<svg width="376" height="529" viewBox="0 0 376 529" fill="none" xmlns="http://www.w3.org/2000/svg">
<rect width="376" height="529" rx="40" fill="#020817"/>
<path d="M142.057 56C141.981 55.053 141.626 54.3144 140.991 53.7841C140.366 53.2538 139.415 52.9886 138.136 52.9886C137.322 52.9886 136.654 53.0881 136.134 53.2869C135.622 53.4763 135.243 53.7367 134.997 54.0682C134.751 54.3996 134.623 54.7784 134.614 55.2045C134.595 55.5549 134.656 55.8722 134.798 56.1562C134.95 56.4309 135.187 56.6818 135.509 56.9091C135.83 57.1269 136.242 57.3258 136.744 57.5057C137.246 57.6856 137.843 57.8466 138.534 57.9886L140.92 58.5C142.53 58.8409 143.908 59.2907 145.054 59.8494C146.2 60.4081 147.137 61.0663 147.866 61.8239C148.596 62.572 149.131 63.4148 149.472 64.3523C149.822 65.2898 150.002 66.3125 150.011 67.4205C150.002 69.3333 149.524 70.9527 148.577 72.2784C147.63 73.6042 146.276 74.6127 144.514 75.304C142.762 75.9953 140.655 76.3409 138.193 76.3409C135.665 76.3409 133.458 75.9669 131.574 75.2188C129.699 74.4706 128.241 73.3201 127.199 71.767C126.167 70.2045 125.646 68.2064 125.636 65.7727H133.136C133.184 66.6629 133.406 67.411 133.804 68.017C134.202 68.6231 134.76 69.0824 135.48 69.3949C136.209 69.7074 137.076 69.8636 138.08 69.8636C138.922 69.8636 139.628 69.7595 140.196 69.5511C140.764 69.3428 141.195 69.054 141.489 68.6847C141.782 68.3153 141.934 67.8939 141.943 67.4205C141.934 66.9754 141.787 66.5871 141.503 66.2557C141.228 65.9148 140.774 65.6117 140.139 65.3466C139.505 65.072 138.648 64.8163 137.568 64.5795L134.67 63.9545C132.095 63.3958 130.063 62.4631 128.577 61.1562C127.099 59.84 126.366 58.0455 126.375 55.7727C126.366 53.9261 126.858 52.3116 127.852 50.929C128.856 49.5369 130.243 48.4527 132.014 47.6761C133.795 46.8996 135.835 46.5114 138.136 46.5114C140.485 46.5114 142.516 46.9044 144.23 47.6903C145.944 48.4763 147.265 49.5843 148.193 51.0142C149.131 52.4347 149.604 54.0966 149.614 56H142.057ZM153.129 84.1818V54.1818H160.913V57.9886H161.084C161.368 57.25 161.785 56.5729 162.334 55.9574C162.883 55.3324 163.565 54.8352 164.379 54.4659C165.194 54.0871 166.141 53.8977 167.22 53.8977C168.66 53.8977 170.028 54.2812 171.325 55.0483C172.632 55.8153 173.693 57.0227 174.507 58.6705C175.331 60.3182 175.743 62.4583 175.743 65.0909C175.743 67.6098 175.35 69.6979 174.564 71.3551C173.787 73.0123 172.746 74.2481 171.439 75.0625C170.142 75.8769 168.716 76.2841 167.163 76.2841C166.141 76.2841 165.227 76.1184 164.422 75.7869C163.626 75.446 162.945 74.9867 162.376 74.4091C161.818 73.822 161.387 73.1591 161.084 72.4205H160.97V84.1818H153.129ZM160.8 65.0909C160.8 66.1515 160.937 67.0701 161.212 67.8466C161.496 68.6136 161.893 69.2102 162.405 69.6364C162.926 70.053 163.546 70.2614 164.266 70.2614C164.985 70.2614 165.596 70.0578 166.098 69.6506C166.609 69.2339 166.998 68.642 167.263 67.875C167.537 67.0985 167.675 66.1705 167.675 65.0909C167.675 64.0114 167.537 63.0881 167.263 62.321C166.998 61.5445 166.609 60.9527 166.098 60.5455C165.596 60.1288 164.985 59.9205 164.266 59.9205C163.546 59.9205 162.926 60.1288 162.405 60.5455C161.893 60.9527 161.496 61.5445 161.212 62.321C160.937 63.0881 160.8 64.0114 160.8 65.0909ZM189.482 76.3977C187.153 76.3977 185.145 75.9527 183.46 75.0625C181.783 74.1629 180.491 72.875 179.582 71.1989C178.682 69.5133 178.232 67.4962 178.232 65.1477C178.232 62.8939 178.687 60.9242 179.596 59.2386C180.505 57.553 181.788 56.2415 183.445 55.304C185.103 54.3665 187.058 53.8977 189.312 53.8977C190.96 53.8977 192.451 54.1534 193.786 54.6648C195.121 55.1761 196.263 55.9195 197.21 56.8949C198.156 57.8608 198.886 59.035 199.397 60.4176C199.908 61.8002 200.164 63.358 200.164 65.0909V66.9091H180.675V62.5909H192.948C192.939 61.9659 192.778 61.4167 192.465 60.9432C192.162 60.4602 191.75 60.0862 191.229 59.821C190.718 59.5464 190.136 59.4091 189.482 59.4091C188.848 59.4091 188.265 59.5464 187.735 59.821C187.205 60.0862 186.779 60.4555 186.457 60.929C186.144 61.4025 185.978 61.9564 185.96 62.5909V67.25C185.96 67.9508 186.106 68.5758 186.4 69.125C186.693 69.6742 187.115 70.1051 187.664 70.4176C188.213 70.7301 188.876 70.8864 189.653 70.8864C190.192 70.8864 190.685 70.8106 191.13 70.6591C191.585 70.5076 191.973 70.2898 192.295 70.0057C192.617 69.7121 192.853 69.3617 193.005 68.9545H200.164C199.918 70.4697 199.335 71.786 198.417 72.9034C197.498 74.0114 196.281 74.8731 194.766 75.4886C193.261 76.0947 191.499 76.3977 189.482 76.3977ZM213.818 76.3977C211.489 76.3977 209.481 75.9527 207.795 75.0625C206.119 74.1629 204.827 72.875 203.918 71.1989C203.018 69.5133 202.568 67.4962 202.568 65.1477C202.568 62.8939 203.023 60.9242 203.932 59.2386C204.841 57.553 206.124 56.2415 207.781 55.304C209.438 54.3665 211.394 53.8977 213.648 53.8977C215.295 53.8977 216.787 54.1534 218.122 54.6648C219.457 55.1761 220.598 55.9195 221.545 56.8949C222.492 57.8608 223.222 59.035 223.733 60.4176C224.244 61.8002 224.5 63.358 224.5 65.0909V66.9091H205.011V62.5909H217.284C217.275 61.9659 217.114 61.4167 216.801 60.9432C216.498 60.4602 216.086 60.0862 215.565 59.821C215.054 59.5464 214.472 59.4091 213.818 59.4091C213.184 59.4091 212.601 59.5464 212.071 59.821C211.541 60.0862 211.115 60.4555 210.793 60.929C210.48 61.4025 210.314 61.9564 210.295 62.5909V67.25C210.295 67.9508 210.442 68.5758 210.736 69.125C211.029 69.6742 211.451 70.1051 212 70.4176C212.549 70.7301 213.212 70.8864 213.989 70.8864C214.528 70.8864 215.021 70.8106 215.466 70.6591C215.92 70.5076 216.309 70.2898 216.631 70.0057C216.953 69.7121 217.189 69.3617 217.341 68.9545H224.5C224.254 70.4697 223.671 71.786 222.753 72.9034C221.834 74.0114 220.617 74.8731 219.102 75.4886C217.597 76.0947 215.835 76.3977 213.818 76.3977ZM235.597 76.2841C234.044 76.2841 232.614 75.8769 231.308 75.0625C230.01 74.2481 228.969 73.0123 228.183 71.3551C227.406 69.6979 227.018 67.6098 227.018 65.0909C227.018 62.4583 227.425 60.3182 228.239 58.6705C229.063 57.0227 230.124 55.8153 231.421 55.0483C232.728 54.2812 234.101 53.8977 235.54 53.8977C236.62 53.8977 237.567 54.0871 238.381 54.4659C239.196 54.8352 239.878 55.3324 240.427 55.9574C240.976 56.5729 241.393 57.25 241.677 57.9886H241.79V46.9091H249.631V76H241.847V72.4205H241.677C241.374 73.1591 240.938 73.822 240.37 74.4091C239.811 74.9867 239.129 75.446 238.325 75.7869C237.529 76.1184 236.62 76.2841 235.597 76.2841ZM238.495 70.2614C239.215 70.2614 239.83 70.053 240.342 69.6364C240.862 69.2102 241.26 68.6136 241.535 67.8466C241.819 67.0701 241.961 66.1515 241.961 65.0909C241.961 64.0114 241.819 63.0881 241.535 62.321C241.26 61.5445 240.862 60.9527 240.342 60.5455C239.83 60.1288 239.215 59.9205 238.495 59.9205C237.775 59.9205 237.16 60.1288 236.648 60.5455C236.147 60.9527 235.758 61.5445 235.484 62.321C235.219 63.0881 235.086 64.0114 235.086 65.0909C235.086 66.1705 235.219 67.0985 235.484 67.875C235.758 68.642 236.147 69.2339 236.648 69.6506C237.16 70.0578 237.775 70.2614 238.495 70.2614Z" fill="white"/>
<path d="M53.1225 106C52.9663 105.522 52.7603 105.093 52.5046 104.714C52.2537 104.331 51.953 104.004 51.6026 103.734C51.257 103.464 50.864 103.259 50.4237 103.116C49.9833 102.974 49.5004 102.903 48.9748 102.903C48.113 102.903 47.3294 103.126 46.6239 103.571C45.9184 104.016 45.3574 104.672 44.9407 105.538C44.524 106.405 44.3157 107.468 44.3157 108.727C44.3157 109.987 44.5264 111.05 44.9478 111.916C45.3692 112.783 45.9397 113.438 46.6594 113.884C47.3791 114.329 48.1888 114.551 49.0884 114.551C49.9218 114.551 50.6557 114.374 51.2901 114.018C51.9293 113.659 52.4265 113.152 52.7816 112.499C53.1415 111.84 53.3214 111.066 53.3214 110.176L53.8612 110.29H49.4862V108.727H55.0259V110.29C55.0259 111.488 54.7702 112.529 54.2589 113.415C53.7522 114.3 53.0515 114.987 52.1566 115.474C51.2665 115.957 50.2437 116.199 49.0884 116.199C47.8005 116.199 46.6689 115.896 45.6935 115.29C44.7229 114.684 43.9653 113.822 43.4208 112.705C42.881 111.587 42.6112 110.261 42.6112 108.727C42.6112 107.577 42.765 106.542 43.0728 105.624C43.3853 104.7 43.8256 103.914 44.3938 103.266C44.962 102.617 45.6344 102.12 46.4109 101.774C47.1874 101.429 48.042 101.256 48.9748 101.256C49.7418 101.256 50.4568 101.372 51.1197 101.604C51.7873 101.831 52.3815 102.155 52.9023 102.577C53.4279 102.993 53.8659 103.493 54.2163 104.075C54.5666 104.653 54.8081 105.295 54.9407 106H53.1225ZM62.3892 116.227C61.3381 116.227 60.4313 115.995 59.669 115.531C58.9115 115.062 58.3267 114.409 57.9148 113.571C57.5076 112.728 57.304 111.748 57.304 110.631C57.304 109.513 57.5076 108.528 57.9148 107.676C58.3267 106.819 58.8996 106.152 59.6335 105.673C60.3722 105.19 61.2339 104.949 62.2188 104.949C62.7869 104.949 63.348 105.044 63.902 105.233C64.456 105.422 64.9602 105.73 65.4148 106.156C65.8693 106.578 66.2315 107.136 66.5014 107.832C66.7713 108.528 66.9062 109.385 66.9062 110.403V111.114H58.4972V109.665H65.2017C65.2017 109.049 65.0786 108.5 64.8324 108.017C64.5909 107.534 64.2453 107.153 63.7955 106.874C63.3504 106.594 62.8248 106.455 62.2188 106.455C61.5511 106.455 60.9735 106.62 60.4858 106.952C60.0028 107.278 59.6312 107.705 59.3707 108.23C59.1103 108.756 58.9801 109.319 58.9801 109.92V110.886C58.9801 111.71 59.1222 112.409 59.4062 112.982C59.6951 113.55 60.0952 113.983 60.6065 114.281C61.1179 114.575 61.7121 114.722 62.3892 114.722C62.8295 114.722 63.2273 114.66 63.5824 114.537C63.9422 114.409 64.2524 114.22 64.5128 113.969C64.7732 113.713 64.9744 113.396 65.1165 113.017L66.7358 113.472C66.5653 114.021 66.2789 114.504 65.8764 114.92C65.474 115.332 64.9768 115.654 64.3849 115.886C63.7931 116.114 63.1278 116.227 62.3892 116.227ZM71.1321 109.438V116H69.456V105.091H71.0753V106.795H71.2173C71.473 106.241 71.8613 105.796 72.3821 105.46C72.9029 105.119 73.5753 104.949 74.3991 104.949C75.1378 104.949 75.7841 105.1 76.3381 105.403C76.892 105.702 77.3229 106.156 77.6307 106.767C77.9384 107.373 78.0923 108.14 78.0923 109.068V116H76.4162V109.182C76.4162 108.325 76.1937 107.657 75.7486 107.179C75.3035 106.696 74.6927 106.455 73.9162 106.455C73.3812 106.455 72.9029 106.571 72.4815 106.803C72.0649 107.035 71.7358 107.373 71.4943 107.818C71.2528 108.263 71.1321 108.803 71.1321 109.438ZM85.729 116.227C84.6779 116.227 83.7712 115.995 83.0089 115.531C82.2513 115.062 81.6665 114.409 81.2546 113.571C80.8474 112.728 80.6438 111.748 80.6438 110.631C80.6438 109.513 80.8474 108.528 81.2546 107.676C81.6665 106.819 82.2395 106.152 82.9734 105.673C83.712 105.19 84.5737 104.949 85.5586 104.949C86.1268 104.949 86.6879 105.044 87.2418 105.233C87.7958 105.422 88.3001 105.73 88.7546 106.156C89.2092 106.578 89.5714 107.136 89.8413 107.832C90.1112 108.528 90.2461 109.385 90.2461 110.403V111.114H81.837V109.665H88.5415C88.5415 109.049 88.4184 108.5 88.1722 108.017C87.9308 107.534 87.5851 107.153 87.1353 106.874C86.6902 106.594 86.1647 106.455 85.5586 106.455C84.891 106.455 84.3133 106.62 83.8256 106.952C83.3427 107.278 82.971 107.705 82.7106 108.23C82.4502 108.756 82.32 109.319 82.32 109.92V110.886C82.32 111.71 82.462 112.409 82.7461 112.982C83.0349 113.55 83.435 113.983 83.9464 114.281C84.4577 114.575 85.052 114.722 85.729 114.722C86.1694 114.722 86.5671 114.66 86.9222 114.537C87.2821 114.409 87.5922 114.22 87.8526 113.969C88.113 113.713 88.3143 113.396 88.4563 113.017L90.0756 113.472C89.9052 114.021 89.6187 114.504 89.2163 114.92C88.8138 115.332 88.3166 115.654 87.7248 115.886C87.1329 116.114 86.4677 116.227 85.729 116.227ZM92.7958 116V105.091H94.4151V106.739H94.5288C94.7276 106.199 95.0875 105.761 95.6083 105.425C96.1291 105.089 96.7163 104.92 97.3697 104.92C97.4928 104.92 97.6467 104.923 97.8313 104.928C98.016 104.932 98.1557 104.939 98.2504 104.949V106.653C98.1935 106.639 98.0633 106.618 97.8597 106.589C97.6609 106.556 97.4502 106.54 97.2276 106.54C96.6973 106.54 96.2238 106.651 95.8072 106.874C95.3952 107.091 95.0685 107.394 94.8271 107.783C94.5903 108.166 94.4719 108.604 94.4719 109.097V116H92.7958ZM103.447 116.256C102.756 116.256 102.129 116.125 101.565 115.865C101.002 115.6 100.554 115.219 100.223 114.722C99.8916 114.22 99.7259 113.614 99.7259 112.903C99.7259 112.278 99.849 111.772 100.095 111.384C100.341 110.991 100.67 110.683 101.082 110.46C101.494 110.238 101.949 110.072 102.446 109.963C102.948 109.849 103.452 109.759 103.959 109.693C104.622 109.608 105.159 109.544 105.571 109.501C105.988 109.454 106.291 109.376 106.48 109.267C106.674 109.158 106.771 108.969 106.771 108.699V108.642C106.771 107.941 106.58 107.397 106.196 107.009C105.817 106.62 105.242 106.426 104.47 106.426C103.67 106.426 103.043 106.601 102.588 106.952C102.134 107.302 101.814 107.676 101.629 108.074L100.038 107.506C100.322 106.843 100.701 106.327 101.175 105.957C101.653 105.583 102.174 105.323 102.737 105.176C103.305 105.025 103.864 104.949 104.413 104.949C104.764 104.949 105.166 104.991 105.621 105.077C106.08 105.157 106.523 105.325 106.949 105.581C107.38 105.837 107.737 106.223 108.021 106.739C108.305 107.255 108.447 107.946 108.447 108.812V116H106.771V114.523H106.686C106.572 114.759 106.383 115.013 106.118 115.283C105.853 115.553 105.5 115.782 105.06 115.972C104.619 116.161 104.082 116.256 103.447 116.256ZM103.703 114.75C104.366 114.75 104.925 114.62 105.379 114.359C105.839 114.099 106.184 113.763 106.416 113.351C106.653 112.939 106.771 112.506 106.771 112.051V110.517C106.7 110.602 106.544 110.68 106.303 110.751C106.066 110.818 105.791 110.877 105.479 110.929C105.171 110.976 104.87 111.019 104.577 111.057C104.288 111.09 104.054 111.118 103.874 111.142C103.438 111.199 103.031 111.291 102.652 111.419C102.278 111.542 101.975 111.729 101.743 111.98C101.516 112.226 101.402 112.562 101.402 112.989C101.402 113.571 101.617 114.011 102.048 114.31C102.484 114.603 103.036 114.75 103.703 114.75ZM116.251 105.091V106.511H110.598V105.091H116.251ZM112.245 102.477H113.922V112.875C113.922 113.348 113.99 113.704 114.127 113.94C114.27 114.172 114.449 114.329 114.667 114.409C114.89 114.485 115.124 114.523 115.37 114.523C115.555 114.523 115.707 114.513 115.825 114.494C115.943 114.471 116.038 114.452 116.109 114.438L116.45 115.943C116.336 115.986 116.178 116.028 115.974 116.071C115.77 116.118 115.512 116.142 115.2 116.142C114.726 116.142 114.262 116.04 113.808 115.837C113.358 115.633 112.984 115.323 112.686 114.906C112.392 114.49 112.245 113.964 112.245 113.33V102.477ZM123.229 116.227C122.178 116.227 121.271 115.995 120.509 115.531C119.751 115.062 119.167 114.409 118.755 113.571C118.347 112.728 118.144 111.748 118.144 110.631C118.144 109.513 118.347 108.528 118.755 107.676C119.167 106.819 119.739 106.152 120.473 105.673C121.212 105.19 122.074 104.949 123.059 104.949C123.627 104.949 124.188 105.044 124.742 105.233C125.296 105.422 125.8 105.73 126.255 106.156C126.709 106.578 127.071 107.136 127.341 107.832C127.611 108.528 127.746 109.385 127.746 110.403V111.114H119.337V109.665H126.042C126.042 109.049 125.918 108.5 125.672 108.017C125.431 107.534 125.085 107.153 124.635 106.874C124.19 106.594 123.665 106.455 123.059 106.455C122.391 106.455 121.813 106.62 121.326 106.952C120.843 107.278 120.471 107.705 120.211 108.23C119.95 108.756 119.82 109.319 119.82 109.92V110.886C119.82 111.71 119.962 112.409 120.246 112.982C120.535 113.55 120.935 113.983 121.446 114.281C121.958 114.575 122.552 114.722 123.229 114.722C123.669 114.722 124.067 114.66 124.422 114.537C124.782 114.409 125.092 114.22 125.353 113.969C125.613 113.713 125.814 113.396 125.956 113.017L127.576 113.472C127.405 114.021 127.119 114.504 126.716 114.92C126.314 115.332 125.817 115.654 125.225 115.886C124.633 116.114 123.968 116.227 123.229 116.227ZM141.006 101.455V116H139.245V103.301H139.159L135.608 105.659V103.869L139.245 101.455H141.006ZM149.934 116.199C148.864 116.199 147.952 115.908 147.199 115.325C146.446 114.738 145.871 113.888 145.473 112.776C145.076 111.658 144.877 110.309 144.877 108.727C144.877 107.155 145.076 105.813 145.473 104.7C145.876 103.583 146.453 102.731 147.206 102.143C147.964 101.552 148.873 101.256 149.934 101.256C150.994 101.256 151.901 101.552 152.654 102.143C153.411 102.731 153.989 103.583 154.387 104.7C154.789 105.813 154.99 107.155 154.99 108.727C154.99 110.309 154.792 111.658 154.394 112.776C153.996 113.888 153.421 114.738 152.668 115.325C151.915 115.908 151.004 116.199 149.934 116.199ZM149.934 114.636C150.994 114.636 151.818 114.125 152.405 113.102C152.992 112.08 153.286 110.621 153.286 108.727C153.286 107.468 153.151 106.395 152.881 105.51C152.616 104.625 152.232 103.95 151.73 103.486C151.233 103.022 150.634 102.79 149.934 102.79C148.882 102.79 148.061 103.308 147.469 104.345C146.877 105.377 146.581 106.838 146.581 108.727C146.581 109.987 146.714 111.057 146.979 111.938C147.244 112.818 147.625 113.488 148.123 113.947C148.624 114.407 149.228 114.636 149.934 114.636ZM162.434 116.199C161.364 116.199 160.452 115.908 159.699 115.325C158.946 114.738 158.371 113.888 157.973 112.776C157.576 111.658 157.377 110.309 157.377 108.727C157.377 107.155 157.576 105.813 157.973 104.7C158.376 103.583 158.953 102.731 159.706 102.143C160.464 101.552 161.373 101.256 162.434 101.256C163.494 101.256 164.401 101.552 165.154 102.143C165.911 102.731 166.489 103.583 166.887 104.7C167.289 105.813 167.49 107.155 167.49 108.727C167.49 110.309 167.292 111.658 166.894 112.776C166.496 113.888 165.921 114.738 165.168 115.325C164.415 115.908 163.504 116.199 162.434 116.199ZM162.434 114.636C163.494 114.636 164.318 114.125 164.905 113.102C165.492 112.08 165.786 110.621 165.786 108.727C165.786 107.468 165.651 106.395 165.381 105.51C165.116 104.625 164.732 103.95 164.23 103.486C163.733 103.022 163.134 102.79 162.434 102.79C161.382 102.79 160.561 103.308 159.969 104.345C159.377 105.377 159.081 106.838 159.081 108.727C159.081 109.987 159.214 111.057 159.479 111.938C159.744 112.818 160.125 113.488 160.623 113.947C161.124 114.407 161.728 114.636 162.434 114.636ZM174.479 113.443V104.068H176.07V113.443H174.479ZM170.587 109.551V107.96H179.962V109.551H170.587ZM189.026 120.091V105.091H190.646V106.824H190.844C190.968 106.634 191.138 106.393 191.356 106.099C191.578 105.801 191.896 105.536 192.308 105.304C192.724 105.067 193.288 104.949 193.998 104.949C194.916 104.949 195.726 105.179 196.427 105.638C197.128 106.097 197.674 106.748 198.067 107.591C198.46 108.434 198.657 109.428 198.657 110.574C198.657 111.729 198.46 112.731 198.067 113.578C197.674 114.421 197.13 115.074 196.434 115.538C195.738 115.998 194.935 116.227 194.026 116.227C193.326 116.227 192.764 116.111 192.343 115.879C191.922 115.643 191.597 115.375 191.37 115.077C191.143 114.774 190.968 114.523 190.844 114.324H190.702V120.091H189.026ZM190.674 110.545C190.674 111.369 190.795 112.096 191.036 112.726C191.278 113.351 191.63 113.841 192.094 114.196C192.558 114.546 193.127 114.722 193.799 114.722C194.5 114.722 195.085 114.537 195.553 114.168C196.027 113.794 196.382 113.292 196.619 112.662C196.86 112.027 196.981 111.322 196.981 110.545C196.981 109.778 196.862 109.087 196.626 108.472C196.394 107.851 196.041 107.361 195.567 107.001C195.099 106.637 194.509 106.455 193.799 106.455C193.117 106.455 192.544 106.627 192.08 106.973C191.616 107.314 191.266 107.792 191.029 108.408C190.792 109.018 190.674 109.731 190.674 110.545ZM202.89 109.438V116H201.214V101.455H202.89V106.795H203.032C203.288 106.232 203.671 105.785 204.183 105.453C204.699 105.117 205.385 104.949 206.242 104.949C206.986 104.949 207.637 105.098 208.195 105.396C208.754 105.69 209.187 106.142 209.495 106.753C209.808 107.359 209.964 108.131 209.964 109.068V116H208.288V109.182C208.288 108.315 208.063 107.645 207.613 107.172C207.168 106.694 206.55 106.455 205.759 106.455C205.21 106.455 204.718 106.571 204.282 106.803C203.851 107.035 203.51 107.373 203.259 107.818C203.013 108.263 202.89 108.803 202.89 109.438ZM217.462 116.227C216.477 116.227 215.613 115.993 214.87 115.524C214.131 115.055 213.553 114.4 213.137 113.557C212.725 112.714 212.519 111.729 212.519 110.602C212.519 109.466 212.725 108.474 213.137 107.626C213.553 106.779 214.131 106.121 214.87 105.652C215.613 105.183 216.477 104.949 217.462 104.949C218.447 104.949 219.309 105.183 220.047 105.652C220.791 106.121 221.368 106.779 221.78 107.626C222.197 108.474 222.405 109.466 222.405 110.602C222.405 111.729 222.197 112.714 221.78 113.557C221.368 114.4 220.791 115.055 220.047 115.524C219.309 115.993 218.447 116.227 217.462 116.227ZM217.462 114.722C218.21 114.722 218.826 114.53 219.309 114.146C219.792 113.763 220.149 113.259 220.381 112.634C220.613 112.009 220.729 111.331 220.729 110.602C220.729 109.873 220.613 109.194 220.381 108.564C220.149 107.934 219.792 107.425 219.309 107.037C218.826 106.649 218.21 106.455 217.462 106.455C216.714 106.455 216.098 106.649 215.615 107.037C215.132 107.425 214.775 107.934 214.543 108.564C214.311 109.194 214.195 109.873 214.195 110.602C214.195 111.331 214.311 112.009 214.543 112.634C214.775 113.259 215.132 113.763 215.615 114.146C216.098 114.53 216.714 114.722 217.462 114.722ZM229.708 105.091V106.511H224.055V105.091H229.708ZM225.702 102.477H227.379V112.875C227.379 113.348 227.447 113.704 227.585 113.94C227.727 114.172 227.906 114.329 228.124 114.409C228.347 114.485 228.581 114.523 228.827 114.523C229.012 114.523 229.164 114.513 229.282 114.494C229.4 114.471 229.495 114.452 229.566 114.438L229.907 115.943C229.793 115.986 229.635 116.028 229.431 116.071C229.228 116.118 228.969 116.142 228.657 116.142C228.183 116.142 227.719 116.04 227.265 115.837C226.815 115.633 226.441 115.323 226.143 114.906C225.849 114.49 225.702 113.964 225.702 113.33V102.477ZM236.544 116.227C235.559 116.227 234.695 115.993 233.952 115.524C233.213 115.055 232.635 114.4 232.219 113.557C231.807 112.714 231.601 111.729 231.601 110.602C231.601 109.466 231.807 108.474 232.219 107.626C232.635 106.779 233.213 106.121 233.952 105.652C234.695 105.183 235.559 104.949 236.544 104.949C237.529 104.949 238.391 105.183 239.129 105.652C239.873 106.121 240.45 106.779 240.862 107.626C241.279 108.474 241.487 109.466 241.487 110.602C241.487 111.729 241.279 112.714 240.862 113.557C240.45 114.4 239.873 115.055 239.129 115.524C238.391 115.993 237.529 116.227 236.544 116.227ZM236.544 114.722C237.292 114.722 237.908 114.53 238.391 114.146C238.874 113.763 239.231 113.259 239.463 112.634C239.695 112.009 239.811 111.331 239.811 110.602C239.811 109.873 239.695 109.194 239.463 108.564C239.231 107.934 238.874 107.425 238.391 107.037C237.908 106.649 237.292 106.455 236.544 106.455C235.796 106.455 235.18 106.649 234.697 107.037C234.214 107.425 233.857 107.934 233.625 108.564C233.393 109.194 233.277 109.873 233.277 110.602C233.277 111.331 233.393 112.009 233.625 112.634C233.857 113.259 234.214 113.763 234.697 114.146C235.18 114.53 235.796 114.722 236.544 114.722ZM251.773 107.534L250.267 107.96C250.173 107.709 250.033 107.465 249.848 107.229C249.668 106.987 249.422 106.788 249.11 106.632C248.797 106.476 248.397 106.398 247.909 106.398C247.242 106.398 246.685 106.552 246.24 106.859C245.8 107.162 245.58 107.548 245.58 108.017C245.58 108.434 245.731 108.763 246.034 109.004C246.337 109.246 246.811 109.447 247.455 109.608L249.074 110.006C250.05 110.242 250.776 110.605 251.255 111.092C251.733 111.575 251.972 112.198 251.972 112.96C251.972 113.585 251.792 114.144 251.432 114.636C251.077 115.129 250.58 115.517 249.941 115.801C249.301 116.085 248.558 116.227 247.711 116.227C246.598 116.227 245.677 115.986 244.948 115.503C244.219 115.02 243.757 114.314 243.563 113.386L245.154 112.989C245.305 113.576 245.592 114.016 246.013 114.31C246.439 114.603 246.996 114.75 247.682 114.75C248.463 114.75 249.084 114.584 249.543 114.253C250.007 113.917 250.239 113.514 250.239 113.045C250.239 112.667 250.106 112.349 249.841 112.094C249.576 111.833 249.169 111.639 248.62 111.511L246.801 111.085C245.802 110.848 245.069 110.482 244.6 109.984C244.136 109.482 243.904 108.855 243.904 108.102C243.904 107.487 244.077 106.942 244.422 106.469C244.773 105.995 245.248 105.624 245.85 105.354C246.456 105.084 247.142 104.949 247.909 104.949C248.989 104.949 249.837 105.186 250.452 105.659C251.072 106.133 251.513 106.758 251.773 107.534ZM263.33 116.256C262.639 116.256 262.012 116.125 261.448 115.865C260.885 115.6 260.437 115.219 260.106 114.722C259.774 114.22 259.609 113.614 259.609 112.903C259.609 112.278 259.732 111.772 259.978 111.384C260.224 110.991 260.553 110.683 260.965 110.46C261.377 110.238 261.832 110.072 262.329 109.963C262.831 109.849 263.335 109.759 263.842 109.693C264.504 109.608 265.042 109.544 265.454 109.501C265.871 109.454 266.174 109.376 266.363 109.267C266.557 109.158 266.654 108.969 266.654 108.699V108.642C266.654 107.941 266.462 107.397 266.079 107.009C265.7 106.62 265.125 106.426 264.353 106.426C263.553 106.426 262.925 106.601 262.471 106.952C262.016 107.302 261.697 107.676 261.512 108.074L259.921 107.506C260.205 106.843 260.584 106.327 261.058 105.957C261.536 105.583 262.057 105.323 262.62 105.176C263.188 105.025 263.747 104.949 264.296 104.949C264.647 104.949 265.049 104.991 265.504 105.077C265.963 105.157 266.406 105.325 266.832 105.581C267.263 105.837 267.62 106.223 267.904 106.739C268.188 107.255 268.33 107.946 268.33 108.812V116H266.654V114.523H266.569C266.455 114.759 266.266 115.013 266.001 115.283C265.736 115.553 265.383 115.782 264.942 115.972C264.502 116.161 263.965 116.256 263.33 116.256ZM263.586 114.75C264.249 114.75 264.808 114.62 265.262 114.359C265.721 114.099 266.067 113.763 266.299 113.351C266.536 112.939 266.654 112.506 266.654 112.051V110.517C266.583 110.602 266.427 110.68 266.185 110.751C265.949 110.818 265.674 110.877 265.362 110.929C265.054 110.976 264.753 111.019 264.46 111.057C264.171 111.09 263.936 111.118 263.756 111.142C263.321 111.199 262.914 111.291 262.535 111.419C262.161 111.542 261.858 111.729 261.626 111.98C261.398 112.226 261.285 112.562 261.285 112.989C261.285 113.571 261.5 114.011 261.931 114.31C262.367 114.603 262.918 114.75 263.586 114.75ZM273.066 109.438V116H271.39V105.091H273.009V106.795H273.151C273.407 106.241 273.795 105.796 274.316 105.46C274.837 105.119 275.509 104.949 276.333 104.949C277.071 104.949 277.718 105.1 278.272 105.403C278.826 105.702 279.257 106.156 279.564 106.767C279.872 107.373 280.026 108.14 280.026 109.068V116H278.35V109.182C278.35 108.325 278.127 107.657 277.682 107.179C277.237 106.696 276.626 106.455 275.85 106.455C275.315 106.455 274.837 106.571 274.415 106.803C273.998 107.035 273.669 107.373 273.428 107.818C273.186 108.263 273.066 108.803 273.066 109.438ZM287.208 116.227C286.299 116.227 285.496 115.998 284.8 115.538C284.104 115.074 283.56 114.421 283.167 113.578C282.774 112.731 282.577 111.729 282.577 110.574C282.577 109.428 282.774 108.434 283.167 107.591C283.56 106.748 284.107 106.097 284.808 105.638C285.508 105.179 286.318 104.949 287.237 104.949C287.947 104.949 288.508 105.067 288.92 105.304C289.336 105.536 289.654 105.801 289.871 106.099C290.094 106.393 290.267 106.634 290.39 106.824H290.532V101.455H292.208V116H290.589V114.324H290.39C290.267 114.523 290.092 114.774 289.864 115.077C289.637 115.375 289.313 115.643 288.891 115.879C288.47 116.111 287.909 116.227 287.208 116.227ZM287.435 114.722C288.108 114.722 288.676 114.546 289.14 114.196C289.604 113.841 289.957 113.351 290.198 112.726C290.44 112.096 290.56 111.369 290.56 110.545C290.56 109.731 290.442 109.018 290.205 108.408C289.969 107.792 289.618 107.314 289.154 106.973C288.69 106.627 288.117 106.455 287.435 106.455C286.725 106.455 286.133 106.637 285.66 107.001C285.191 107.361 284.838 107.851 284.602 108.472C284.37 109.087 284.254 109.778 284.254 110.545C284.254 111.322 284.372 112.027 284.609 112.662C284.85 113.292 285.205 113.794 285.674 114.168C286.147 114.537 286.735 114.722 287.435 114.722ZM306.221 101.455V116H304.46V103.301H304.374L300.823 105.659V103.869L304.46 101.455H306.221ZM315.148 116.199C314.078 116.199 313.167 115.908 312.414 115.325C311.661 114.738 311.086 113.888 310.688 112.776C310.29 111.658 310.092 110.309 310.092 108.727C310.092 107.155 310.29 105.813 310.688 104.7C311.091 103.583 311.668 102.731 312.421 102.143C313.179 101.552 314.088 101.256 315.148 101.256C316.209 101.256 317.116 101.552 317.869 102.143C318.626 102.731 319.204 103.583 319.602 104.7C320.004 105.813 320.205 107.155 320.205 108.727C320.205 110.309 320.006 111.658 319.609 112.776C319.211 113.888 318.636 114.738 317.883 115.325C317.13 115.908 316.219 116.199 315.148 116.199ZM315.148 114.636C316.209 114.636 317.033 114.125 317.62 113.102C318.207 112.08 318.501 110.621 318.501 108.727C318.501 107.468 318.366 106.395 318.096 105.51C317.831 104.625 317.447 103.95 316.945 103.486C316.448 103.022 315.849 102.79 315.148 102.79C314.097 102.79 313.276 103.308 312.684 104.345C312.092 105.377 311.796 106.838 311.796 108.727C311.796 109.987 311.929 111.057 312.194 111.938C312.459 112.818 312.84 113.488 313.337 113.947C313.839 114.407 314.443 114.636 315.148 114.636ZM327.194 113.443V104.068H328.785V113.443H327.194ZM323.302 109.551V107.96H332.677V109.551H323.302ZM88.8159 133.091L84.7818 144H83.0772L79.0431 133.091H80.8613L83.8727 141.784H83.9863L86.9977 133.091H88.8159ZM91.0282 144V133.091H92.7044V144H91.0282ZM91.8805 131.273C91.5538 131.273 91.2721 131.161 91.0353 130.939C90.8033 130.716 90.6873 130.449 90.6873 130.136C90.6873 129.824 90.8033 129.556 91.0353 129.334C91.2721 129.111 91.5538 129 91.8805 129C92.2072 129 92.4866 129.111 92.7186 129.334C92.9553 129.556 93.0737 129.824 93.0737 130.136C93.0737 130.449 92.9553 130.716 92.7186 130.939C92.4866 131.161 92.2072 131.273 91.8805 131.273ZM99.8936 144.227C98.9846 144.227 98.182 143.998 97.486 143.538C96.79 143.074 96.2454 142.421 95.8525 141.578C95.4595 140.731 95.263 139.729 95.263 138.574C95.263 137.428 95.4595 136.434 95.8525 135.591C96.2454 134.748 96.7923 134.097 97.4931 133.638C98.1938 133.179 99.0035 132.949 99.9221 132.949C100.632 132.949 101.193 133.067 101.605 133.304C102.022 133.536 102.339 133.801 102.557 134.099C102.78 134.393 102.952 134.634 103.075 134.824H103.218V129.455H104.894V144H103.274V142.324H103.075C102.952 142.523 102.777 142.774 102.55 143.077C102.323 143.375 101.998 143.643 101.577 143.879C101.155 144.111 100.594 144.227 99.8936 144.227ZM100.121 142.722C100.793 142.722 101.361 142.546 101.825 142.196C102.289 141.841 102.642 141.351 102.884 140.726C103.125 140.096 103.246 139.369 103.246 138.545C103.246 137.731 103.128 137.018 102.891 136.408C102.654 135.792 102.304 135.314 101.84 134.973C101.376 134.627 100.803 134.455 100.121 134.455C99.4107 134.455 98.8188 134.637 98.3453 135.001C97.8766 135.361 97.5239 135.851 97.2871 136.472C97.0551 137.087 96.9391 137.778 96.9391 138.545C96.9391 139.322 97.0575 140.027 97.2942 140.662C97.5357 141.292 97.8908 141.794 98.3596 142.168C98.833 142.537 99.4202 142.722 100.121 142.722ZM112.77 144.227C111.719 144.227 110.812 143.995 110.05 143.531C109.292 143.062 108.708 142.409 108.296 141.571C107.888 140.728 107.685 139.748 107.685 138.631C107.685 137.513 107.888 136.528 108.296 135.676C108.708 134.819 109.28 134.152 110.014 133.673C110.753 133.19 111.615 132.949 112.6 132.949C113.168 132.949 113.729 133.044 114.283 133.233C114.837 133.422 115.341 133.73 115.796 134.156C116.25 134.578 116.612 135.136 116.882 135.832C117.152 136.528 117.287 137.385 117.287 138.403V139.114H108.878V137.665H115.583C115.583 137.049 115.459 136.5 115.213 136.017C114.972 135.534 114.626 135.153 114.176 134.874C113.731 134.594 113.206 134.455 112.6 134.455C111.932 134.455 111.354 134.62 110.867 134.952C110.384 135.278 110.012 135.705 109.752 136.23C109.491 136.756 109.361 137.319 109.361 137.92V138.886C109.361 139.71 109.503 140.409 109.787 140.982C110.076 141.55 110.476 141.983 110.987 142.281C111.499 142.575 112.093 142.722 112.77 142.722C113.21 142.722 113.608 142.66 113.963 142.537C114.323 142.409 114.633 142.22 114.894 141.969C115.154 141.713 115.355 141.396 115.497 141.017L117.117 141.472C116.946 142.021 116.66 142.504 116.257 142.92C115.855 143.332 115.358 143.654 114.766 143.886C114.174 144.114 113.509 144.227 112.77 144.227ZM124.269 144.227C123.284 144.227 122.42 143.993 121.676 143.524C120.938 143.055 120.36 142.4 119.943 141.557C119.531 140.714 119.325 139.729 119.325 138.602C119.325 137.466 119.531 136.474 119.943 135.626C120.36 134.779 120.938 134.121 121.676 133.652C122.42 133.183 123.284 132.949 124.269 132.949C125.253 132.949 126.115 133.183 126.854 133.652C127.597 134.121 128.175 134.779 128.587 135.626C129.003 136.474 129.212 137.466 129.212 138.602C129.212 139.729 129.003 140.714 128.587 141.557C128.175 142.4 127.597 143.055 126.854 143.524C126.115 143.993 125.253 144.227 124.269 144.227ZM124.269 142.722C125.017 142.722 125.632 142.53 126.115 142.146C126.598 141.763 126.956 141.259 127.188 140.634C127.42 140.009 127.536 139.331 127.536 138.602C127.536 137.873 127.42 137.194 127.188 136.564C126.956 135.934 126.598 135.425 126.115 135.037C125.632 134.649 125.017 134.455 124.269 134.455C123.521 134.455 122.905 134.649 122.422 135.037C121.939 135.425 121.582 135.934 121.35 136.564C121.118 137.194 121.002 137.873 121.002 138.602C121.002 139.331 121.118 140.009 121.35 140.634C121.582 141.259 121.939 141.763 122.422 142.146C122.905 142.53 123.521 142.722 124.269 142.722ZM139.498 135.534L137.992 135.96C137.897 135.709 137.758 135.465 137.573 135.229C137.393 134.987 137.147 134.788 136.834 134.632C136.522 134.476 136.122 134.398 135.634 134.398C134.966 134.398 134.41 134.552 133.965 134.859C133.525 135.162 133.305 135.548 133.305 136.017C133.305 136.434 133.456 136.763 133.759 137.004C134.062 137.246 134.536 137.447 135.18 137.608L136.799 138.006C137.774 138.242 138.501 138.605 138.979 139.092C139.457 139.575 139.697 140.198 139.697 140.96C139.697 141.585 139.517 142.144 139.157 142.636C138.802 143.129 138.305 143.517 137.665 143.801C137.026 144.085 136.283 144.227 135.435 144.227C134.323 144.227 133.402 143.986 132.672 143.503C131.943 143.02 131.482 142.314 131.287 141.386L132.878 140.989C133.03 141.576 133.316 142.016 133.738 142.31C134.164 142.603 134.72 142.75 135.407 142.75C136.188 142.75 136.808 142.584 137.268 142.253C137.732 141.917 137.964 141.514 137.964 141.045C137.964 140.667 137.831 140.349 137.566 140.094C137.301 139.833 136.894 139.639 136.344 139.511L134.526 139.085C133.527 138.848 132.793 138.482 132.324 137.984C131.86 137.482 131.628 136.855 131.628 136.102C131.628 135.487 131.801 134.942 132.147 134.469C132.497 133.995 132.973 133.624 133.574 133.354C134.18 133.084 134.867 132.949 135.634 132.949C136.714 132.949 137.561 133.186 138.177 133.659C138.797 134.133 139.237 134.758 139.498 135.534ZM147.845 144V133.091H149.521V144H147.845ZM148.697 131.273C148.37 131.273 148.088 131.161 147.852 130.939C147.62 130.716 147.504 130.449 147.504 130.136C147.504 129.824 147.62 129.556 147.852 129.334C148.088 129.111 148.37 129 148.697 129C149.024 129 149.303 129.111 149.535 129.334C149.772 129.556 149.89 129.824 149.89 130.136C149.89 130.449 149.772 130.716 149.535 130.939C149.303 131.161 149.024 131.273 148.697 131.273ZM154.267 137.438V144H152.591V133.091H154.21V134.795H154.352C154.608 134.241 154.996 133.796 155.517 133.46C156.038 133.119 156.71 132.949 157.534 132.949C158.273 132.949 158.919 133.1 159.473 133.403C160.027 133.702 160.458 134.156 160.765 134.767C161.073 135.373 161.227 136.14 161.227 137.068V144H159.551V137.182C159.551 136.325 159.328 135.657 158.883 135.179C158.438 134.696 157.827 134.455 157.051 134.455C156.516 134.455 156.038 134.571 155.616 134.803C155.2 135.035 154.871 135.373 154.629 135.818C154.388 136.263 154.267 136.803 154.267 137.438ZM169.915 133.091H171.591V144.795C171.591 145.468 171.475 146.05 171.243 146.543C171.016 147.035 170.67 147.416 170.206 147.686C169.747 147.956 169.167 148.091 168.466 148.091C168.409 148.091 168.352 148.091 168.296 148.091C168.239 148.091 168.182 148.091 168.125 148.091V146.528C168.182 146.528 168.234 146.528 168.281 146.528C168.329 146.528 168.381 146.528 168.438 146.528C168.949 146.528 169.323 146.377 169.56 146.074C169.797 145.776 169.915 145.349 169.915 144.795V133.091ZM170.739 131.273C170.412 131.273 170.13 131.161 169.894 130.939C169.662 130.716 169.546 130.449 169.546 130.136C169.546 129.824 169.662 129.556 169.894 129.334C170.13 129.111 170.412 129 170.739 129C171.066 129 171.345 129.111 171.577 129.334C171.814 129.556 171.932 129.824 171.932 130.136C171.932 130.449 171.814 130.716 171.577 130.939C171.345 131.161 171.066 131.273 170.739 131.273ZM181.536 139.54V133.091H183.212V144H181.536V142.153H181.422C181.167 142.707 180.769 143.179 180.229 143.567C179.689 143.95 179.008 144.142 178.184 144.142C177.502 144.142 176.896 143.993 176.366 143.695C175.835 143.392 175.419 142.937 175.116 142.331C174.813 141.72 174.661 140.951 174.661 140.023V133.091H176.337V139.909C176.337 140.705 176.56 141.339 177.005 141.812C177.455 142.286 178.028 142.523 178.724 142.523C179.14 142.523 179.564 142.416 179.995 142.203C180.43 141.99 180.795 141.663 181.089 141.223C181.387 140.783 181.536 140.222 181.536 139.54ZM194.009 135.534L192.504 135.96C192.409 135.709 192.269 135.465 192.085 135.229C191.905 134.987 191.659 134.788 191.346 134.632C191.034 134.476 190.633 134.398 190.146 134.398C189.478 134.398 188.922 134.552 188.477 134.859C188.036 135.162 187.816 135.548 187.816 136.017C187.816 136.434 187.968 136.763 188.271 137.004C188.574 137.246 189.047 137.447 189.691 137.608L191.311 138.006C192.286 138.242 193.013 138.605 193.491 139.092C193.969 139.575 194.208 140.198 194.208 140.96C194.208 141.585 194.028 142.144 193.669 142.636C193.313 143.129 192.816 143.517 192.177 143.801C191.538 144.085 190.794 144.227 189.947 144.227C188.834 144.227 187.913 143.986 187.184 143.503C186.455 143.02 185.993 142.314 185.799 141.386L187.39 140.989C187.542 141.576 187.828 142.016 188.249 142.31C188.676 142.603 189.232 142.75 189.919 142.75C190.7 142.75 191.32 142.584 191.779 142.253C192.243 141.917 192.475 141.514 192.475 141.045C192.475 140.667 192.343 140.349 192.078 140.094C191.812 139.833 191.405 139.639 190.856 139.511L189.038 139.085C188.039 138.848 187.305 138.482 186.836 137.984C186.372 137.482 186.14 136.855 186.14 136.102C186.14 135.487 186.313 134.942 186.659 134.469C187.009 133.995 187.485 133.624 188.086 133.354C188.692 133.084 189.379 132.949 190.146 132.949C191.225 132.949 192.073 133.186 192.688 133.659C193.309 134.133 193.749 134.758 194.009 135.534ZM201.476 133.091V134.511H195.822V133.091H201.476ZM197.47 130.477H199.146V140.875C199.146 141.348 199.215 141.704 199.352 141.94C199.494 142.172 199.674 142.329 199.892 142.409C200.114 142.485 200.349 142.523 200.595 142.523C200.78 142.523 200.931 142.513 201.05 142.494C201.168 142.471 201.263 142.452 201.334 142.438L201.675 143.943C201.561 143.986 201.402 144.028 201.199 144.071C200.995 144.118 200.737 144.142 200.425 144.142C199.951 144.142 199.487 144.04 199.032 143.837C198.583 143.633 198.209 143.323 197.91 142.906C197.617 142.49 197.47 141.964 197.47 141.33V130.477ZM209.253 141.017V139.568L215.645 129.455H216.696V131.699H215.986L211.156 139.341V139.455H219.764V141.017H209.253ZM216.099 144V140.577V139.902V129.455H217.775V144H216.099ZM227.085 144.199C226.109 144.199 225.248 144.026 224.499 143.68C223.756 143.33 223.176 142.849 222.759 142.239C222.343 141.623 222.137 140.922 222.142 140.136C222.137 139.521 222.258 138.953 222.504 138.432C222.75 137.906 223.086 137.468 223.512 137.118C223.943 136.763 224.424 136.538 224.954 136.443V136.358C224.258 136.178 223.704 135.787 223.292 135.186C222.88 134.58 222.677 133.891 222.681 133.119C222.677 132.381 222.864 131.72 223.242 131.138C223.621 130.555 224.142 130.096 224.805 129.76C225.472 129.424 226.232 129.256 227.085 129.256C227.927 129.256 228.68 129.424 229.343 129.76C230.006 130.096 230.527 130.555 230.906 131.138C231.289 131.72 231.483 132.381 231.488 133.119C231.483 133.891 231.273 134.58 230.856 135.186C230.444 135.787 229.897 136.178 229.215 136.358V136.443C229.741 136.538 230.214 136.763 230.636 137.118C231.057 137.468 231.393 137.906 231.644 138.432C231.895 138.953 232.023 139.521 232.028 140.136C232.023 140.922 231.81 141.623 231.389 142.239C230.972 142.849 230.392 143.33 229.649 143.68C228.91 144.026 228.055 144.199 227.085 144.199ZM227.085 142.636C227.743 142.636 228.311 142.53 228.789 142.317C229.267 142.104 229.637 141.803 229.897 141.415C230.158 141.027 230.29 140.572 230.295 140.051C230.29 139.502 230.148 139.017 229.869 138.595C229.589 138.174 229.208 137.842 228.725 137.601C228.247 137.359 227.7 137.239 227.085 137.239C226.464 137.239 225.91 137.359 225.423 137.601C224.94 137.842 224.559 138.174 224.279 138.595C224.005 139.017 223.87 139.502 223.874 140.051C223.87 140.572 223.995 141.027 224.251 141.415C224.511 141.803 224.883 142.104 225.366 142.317C225.849 142.53 226.422 142.636 227.085 142.636ZM227.085 135.733C227.606 135.733 228.067 135.629 228.47 135.42C228.877 135.212 229.196 134.921 229.428 134.547C229.66 134.173 229.779 133.735 229.784 133.233C229.779 132.741 229.663 132.312 229.436 131.947C229.208 131.578 228.893 131.294 228.491 131.095C228.088 130.892 227.62 130.79 227.085 130.79C226.54 130.79 226.064 130.892 225.657 131.095C225.25 131.294 224.935 131.578 224.713 131.947C224.49 132.312 224.381 132.741 224.386 133.233C224.381 133.735 224.492 134.173 224.72 134.547C224.952 134.921 225.271 135.212 225.678 135.42C226.086 135.629 226.554 135.733 227.085 135.733ZM242.079 137.438V144H240.403V129.455H242.079V134.795H242.221C242.477 134.232 242.861 133.785 243.372 133.453C243.888 133.117 244.575 132.949 245.432 132.949C246.175 132.949 246.826 133.098 247.385 133.396C247.943 133.69 248.377 134.142 248.684 134.753C248.997 135.359 249.153 136.131 249.153 137.068V144H247.477V137.182C247.477 136.315 247.252 135.645 246.802 135.172C246.357 134.694 245.739 134.455 244.949 134.455C244.399 134.455 243.907 134.571 243.471 134.803C243.041 135.035 242.7 135.373 242.449 135.818C242.202 136.263 242.079 136.803 242.079 137.438ZM256.651 144.227C255.667 144.227 254.802 143.993 254.059 143.524C253.32 143.055 252.743 142.4 252.326 141.557C251.914 140.714 251.708 139.729 251.708 138.602C251.708 137.466 251.914 136.474 252.326 135.626C252.743 134.779 253.32 134.121 254.059 133.652C254.802 133.183 255.667 132.949 256.651 132.949C257.636 132.949 258.498 133.183 259.237 133.652C259.98 134.121 260.558 134.779 260.97 135.626C261.386 136.474 261.595 137.466 261.595 138.602C261.595 139.729 261.386 140.714 260.97 141.557C260.558 142.4 259.98 143.055 259.237 143.524C258.498 143.993 257.636 144.227 256.651 144.227ZM256.651 142.722C257.4 142.722 258.015 142.53 258.498 142.146C258.981 141.763 259.338 141.259 259.57 140.634C259.802 140.009 259.919 139.331 259.919 138.602C259.919 137.873 259.802 137.194 259.57 136.564C259.338 135.934 258.981 135.425 258.498 135.037C258.015 134.649 257.4 134.455 256.651 134.455C255.903 134.455 255.288 134.649 254.805 135.037C254.322 135.425 253.964 135.934 253.732 136.564C253.5 137.194 253.384 137.873 253.384 138.602C253.384 139.331 253.5 140.009 253.732 140.634C253.964 141.259 254.322 141.763 254.805 142.146C255.288 142.53 255.903 142.722 256.651 142.722ZM271.028 139.54V133.091H272.704V144H271.028V142.153H270.915C270.659 142.707 270.261 143.179 269.721 143.567C269.182 143.95 268.5 144.142 267.676 144.142C266.994 144.142 266.388 143.993 265.858 143.695C265.327 143.392 264.911 142.937 264.608 142.331C264.305 141.72 264.153 140.951 264.153 140.023V133.091H265.829V139.909C265.829 140.705 266.052 141.339 266.497 141.812C266.947 142.286 267.52 142.523 268.216 142.523C268.632 142.523 269.056 142.416 269.487 142.203C269.923 141.99 270.287 141.663 270.581 141.223C270.879 140.783 271.028 140.222 271.028 139.54ZM275.774 144V133.091H277.394V134.739H277.507C277.706 134.199 278.066 133.761 278.587 133.425C279.108 133.089 279.695 132.92 280.348 132.92C280.471 132.92 280.625 132.923 280.81 132.928C280.994 132.932 281.134 132.939 281.229 132.949V134.653C281.172 134.639 281.042 134.618 280.838 134.589C280.639 134.556 280.429 134.54 280.206 134.54C279.676 134.54 279.202 134.651 278.786 134.874C278.374 135.091 278.047 135.394 277.806 135.783C277.569 136.166 277.45 136.604 277.45 137.097V144H275.774ZM290.943 135.534L289.437 135.96C289.343 135.709 289.203 135.465 289.018 135.229C288.838 134.987 288.592 134.788 288.28 134.632C287.967 134.476 287.567 134.398 287.079 134.398C286.412 134.398 285.855 134.552 285.41 134.859C284.97 135.162 284.75 135.548 284.75 136.017C284.75 136.434 284.901 136.763 285.204 137.004C285.507 137.246 285.981 137.447 286.625 137.608L288.244 138.006C289.22 138.242 289.946 138.605 290.425 139.092C290.903 139.575 291.142 140.198 291.142 140.96C291.142 141.585 290.962 142.144 290.602 142.636C290.247 143.129 289.75 143.517 289.111 143.801C288.471 144.085 287.728 144.227 286.881 144.227C285.768 144.227 284.847 143.986 284.118 143.503C283.389 143.02 282.927 142.314 282.733 141.386L284.324 140.989C284.475 141.576 284.762 142.016 285.183 142.31C285.609 142.603 286.166 142.75 286.852 142.75C287.633 142.75 288.254 142.584 288.713 142.253C289.177 141.917 289.409 141.514 289.409 141.045C289.409 140.667 289.276 140.349 289.011 140.094C288.746 139.833 288.339 139.639 287.79 139.511L285.971 139.085C284.972 138.848 284.238 138.482 283.77 137.984C283.306 137.482 283.074 136.855 283.074 136.102C283.074 135.487 283.247 134.942 283.592 134.469C283.943 133.995 284.418 133.624 285.02 133.354C285.626 133.084 286.312 132.949 287.079 132.949C288.159 132.949 289.006 133.186 289.622 133.659C290.242 134.133 290.683 134.758 290.943 135.534ZM294.887 144.114C294.536 144.114 294.235 143.988 293.985 143.737C293.734 143.486 293.608 143.186 293.608 142.835C293.608 142.485 293.734 142.184 293.985 141.933C294.235 141.682 294.536 141.557 294.887 141.557C295.237 141.557 295.538 141.682 295.789 141.933C296.039 142.184 296.165 142.485 296.165 142.835C296.165 143.067 296.106 143.28 295.987 143.474C295.874 143.669 295.72 143.825 295.526 143.943C295.336 144.057 295.123 144.114 294.887 144.114Z" fill="white"/>
<g filter="url(#filter1_ddd_278_880)">
<rect x="20" y="192" width="336" height="297" rx="12" fill="#020817"/>
<rect x="20" y="192" width="336" height="297" rx="12" fill="url(#paint0_linear_278_880)" fill-opacity="0.62"/>
</g>
<defs>
<filter id="filter1_ddd_278_880" x="17.5177" y="191.504" width="340.965" height="301.965" filterUnits="userSpaceOnUse" color-interpolation-filters="sRGB">
<feFlood flood-opacity="0" result="BackgroundImageFix"/>
<feColorMatrix in="SourceAlpha" type="matrix" values="0 0 0 0 0 0 0 0 0 0 0 0 0 0 0 0 0 0 127 0" result="hardAlpha"/>
<feMorphology radius="0.496466" operator="dilate" in="SourceAlpha" result="effect1_dropShadow_278_880"/>
<feOffset/>
<feColorMatrix type="matrix" values="0 0 0 0 0 0 0 0 0 0 0 0 0 0 0 0 0 0 0.05 0"/>
<feBlend mode="normal" in2="BackgroundImageFix" result="effect1_dropShadow_278_880"/>
<feColorMatrix in="SourceAlpha" type="matrix" values="0 0 0 0 0 0 0 0 0 0 0 0 0 0 0 0 0 0 127 0" result="hardAlpha"/>
<feMorphology radius="0.496466" operator="erode" in="SourceAlpha" result="effect2_dropShadow_278_880"/>
<feOffset dy="0.992932"/>
<feGaussianBlur stdDeviation="0.992932"/>
<feColorMatrix type="matrix" values="0 0 0 0 0 0 0 0 0 0 0 0 0 0 0 0 0 0 0.06 0"/>
<feBlend mode="normal" in2="effect1_dropShadow_278_880" result="effect2_dropShadow_278_880"/>
<feColorMatrix in="SourceAlpha" type="matrix" values="0 0 0 0 0 0 0 0 0 0 0 0 0 0 0 0 0 0 127 0" result="hardAlpha"/>
<feMorphology radius="0.496466" operator="erode" in="SourceAlpha" result="effect3_dropShadow_278_880"/>
<feOffset dy="1.98586"/>
<feGaussianBlur stdDeviation="1.4894"/>
<feColorMatrix type="matrix" values="0 0 0 0 0 0 0 0 0 0 0 0 0 0 0 0 0 0 0.1 0"/>
<feBlend mode="normal" in2="effect2_dropShadow_278_880" result="effect3_dropShadow_278_880"/>
<feBlend mode="normal" in="SourceGraphic" in2="effect3_dropShadow_278_880" result="shape"/>
</filter>
<linearGradient id="paint0_linear_278_880" x1="183.692" y1="192" x2="284.867" y2="449.202" gradientUnits="userSpaceOnUse">
<stop stop-color="#D8B4FE"/>
<stop offset="1" stop-color="#B457E0"/>
</linearGradient>
</defs>
</svg>
