<svg width="376" height="529" viewBox="0 0 376 529" fill="none" xmlns="http://www.w3.org/2000/svg">
<rect width="376" height="529" rx="40" fill="#020817"/>
<path d="M89.0341 57.8182H81.0227C80.9659 57.1553 80.8144 56.554 80.5682 56.0142C80.3314 55.4744 80 55.0104 79.5739 54.6222C79.1572 54.2244 78.6506 53.9214 78.054 53.7131C77.4574 53.4953 76.7803 53.3864 76.0227 53.3864C74.697 53.3864 73.5748 53.7083 72.6562 54.3523C71.7472 54.9962 71.0559 55.9195 70.5824 57.1222C70.1184 58.3248 69.8864 59.7689 69.8864 61.4545C69.8864 63.2348 70.1231 64.7263 70.5966 65.929C71.0795 67.1222 71.7756 68.0218 72.6847 68.6278C73.5938 69.2244 74.6875 69.5227 75.9659 69.5227C76.6951 69.5227 77.3485 69.4328 77.9261 69.2528C78.5038 69.0634 79.0057 68.7936 79.4318 68.4432C79.858 68.0928 80.2036 67.6714 80.4688 67.179C80.7434 66.6771 80.928 66.1136 81.0227 65.4886L89.0341 65.5455C88.9394 66.7765 88.5938 68.0312 87.9972 69.3097C87.4006 70.5786 86.553 71.7528 85.4545 72.8324C84.3655 73.9025 83.0161 74.7642 81.4062 75.4176C79.7964 76.071 77.9261 76.3977 75.7955 76.3977C73.125 76.3977 70.7292 75.8248 68.608 74.679C66.4962 73.5331 64.8248 71.8475 63.5938 69.6222C62.3722 67.3968 61.7614 64.6742 61.7614 61.4545C61.7614 58.2159 62.3864 55.4886 63.6364 53.2727C64.8864 51.0473 66.572 49.3665 68.6932 48.2301C70.8144 47.0843 73.1818 46.5114 75.7955 46.5114C77.6326 46.5114 79.3229 46.7623 80.8665 47.2642C82.41 47.7661 83.7642 48.5 84.929 49.4659C86.0938 50.4223 87.0313 51.6013 87.7415 53.0028C88.4517 54.4044 88.8826 56.0095 89.0341 57.8182ZM103.242 76.3977C100.875 76.3977 98.8482 75.929 97.1626 74.9915C95.477 74.0445 94.1844 72.7282 93.2848 71.0426C92.3852 69.3475 91.9354 67.3826 91.9354 65.1477C91.9354 62.9129 92.3852 60.9527 93.2848 59.267C94.1844 57.572 95.477 56.2557 97.1626 55.3182C98.8482 54.3712 100.875 53.8977 103.242 53.8977C105.61 53.8977 107.636 54.3712 109.322 55.3182C111.007 56.2557 112.3 57.572 113.2 59.267C114.099 60.9527 114.549 62.9129 114.549 65.1477C114.549 67.3826 114.099 69.3475 113.2 71.0426C112.3 72.7282 111.007 74.0445 109.322 74.9915C107.636 75.929 105.61 76.3977 103.242 76.3977ZM103.299 70.6023C103.962 70.6023 104.535 70.3797 105.018 69.9347C105.501 69.4896 105.875 68.8551 106.14 68.0312C106.405 67.2074 106.538 66.2273 106.538 65.0909C106.538 63.9451 106.405 62.965 106.14 62.1506C105.875 61.3267 105.501 60.6922 105.018 60.2472C104.535 59.8021 103.962 59.5795 103.299 59.5795C102.598 59.5795 101.997 59.8021 101.495 60.2472C100.993 60.6922 100.61 61.3267 100.344 62.1506C100.079 62.965 99.9467 63.9451 99.9467 65.0909C99.9467 66.2273 100.079 67.2074 100.344 68.0312C100.61 68.8551 100.993 69.4896 101.495 69.9347C101.997 70.3797 102.598 70.6023 103.299 70.6023ZM125.572 63.7273V76H117.731V54.1818H125.174V58.3295H125.401C125.875 56.947 126.708 55.8627 127.901 55.0767C129.104 54.2907 130.505 53.8977 132.106 53.8977C133.649 53.8977 134.989 54.2528 136.126 54.9631C137.272 55.6638 138.157 56.6297 138.782 57.8608C139.416 59.0919 139.729 60.4981 139.719 62.0795V76H131.879V63.7273C131.888 62.6477 131.613 61.8002 131.055 61.1847C130.505 60.5691 129.738 60.2614 128.754 60.2614C128.11 60.2614 127.546 60.4034 127.063 60.6875C126.59 60.9621 126.225 61.3598 125.969 61.8807C125.714 62.392 125.581 63.0076 125.572 63.7273ZM163.533 61.2841H156.317C156.28 60.839 156.123 60.4555 155.849 60.1335C155.574 59.8116 155.219 59.5653 154.783 59.3949C154.357 59.215 153.884 59.125 153.363 59.125C152.691 59.125 152.113 59.2481 151.63 59.4943C151.147 59.7405 150.91 60.0909 150.92 60.5455C150.91 60.8674 151.048 61.1657 151.332 61.4403C151.625 61.715 152.189 61.928 153.022 62.0795L157.454 62.875C159.689 63.2822 161.351 63.9687 162.44 64.9347C163.538 65.8911 164.092 67.1742 164.102 68.7841C164.092 70.3371 163.628 71.6866 162.71 72.8324C161.8 73.9687 160.555 74.8494 158.974 75.4744C157.402 76.09 155.607 76.3977 153.59 76.3977C150.257 76.3977 147.648 75.7159 145.763 74.3523C143.888 72.9886 142.842 71.1894 142.624 68.9545H150.408C150.513 69.6458 150.853 70.1809 151.431 70.5597C152.018 70.929 152.757 71.1136 153.647 71.1136C154.367 71.1136 154.959 70.9905 155.423 70.7443C155.896 70.4981 156.138 70.1477 156.147 69.6932C156.138 69.2765 155.929 68.9451 155.522 68.6989C155.124 68.4527 154.499 68.2538 153.647 68.1023L149.783 67.4205C147.558 67.0322 145.891 66.2936 144.783 65.2045C143.675 64.1155 143.126 62.714 143.136 61C143.126 59.4848 143.524 58.2017 144.329 57.1506C145.143 56.09 146.303 55.285 147.809 54.7358C149.324 54.1771 151.119 53.8977 153.192 53.8977C156.346 53.8977 158.832 54.5511 160.65 55.858C162.478 57.1648 163.439 58.9735 163.533 61.2841ZM167.106 76V54.1818H174.947V76H167.106ZM171.026 51.9091C169.966 51.9091 169.057 51.5587 168.299 50.858C167.541 50.1572 167.163 49.3144 167.163 48.3295C167.163 47.3447 167.541 46.5019 168.299 45.8011C169.057 45.1004 169.966 44.75 171.026 44.75C172.096 44.75 173.005 45.1004 173.754 45.8011C174.511 46.5019 174.89 47.3447 174.89 48.3295C174.89 49.3144 174.511 50.1572 173.754 50.858C173.005 51.5587 172.096 51.9091 171.026 51.9091ZM198.885 61.2841H191.669C191.631 60.839 191.475 60.4555 191.2 60.1335C190.926 59.8116 190.571 59.5653 190.135 59.3949C189.709 59.215 189.235 59.125 188.714 59.125C188.042 59.125 187.464 59.2481 186.982 59.4943C186.499 59.7405 186.262 60.0909 186.271 60.5455C186.262 60.8674 186.399 61.1657 186.683 61.4403C186.977 61.715 187.54 61.928 188.374 62.0795L192.805 62.875C195.04 63.2822 196.702 63.9687 197.791 64.9347C198.89 65.8911 199.444 67.1742 199.453 68.7841C199.444 70.3371 198.98 71.6866 198.061 72.8324C197.152 73.9687 195.907 74.8494 194.325 75.4744C192.753 76.09 190.959 76.3977 188.942 76.3977C185.608 76.3977 183 75.7159 181.115 74.3523C179.24 72.9886 178.194 71.1894 177.976 68.9545H185.76C185.864 69.6458 186.205 70.1809 186.783 70.5597C187.37 70.929 188.108 71.1136 188.999 71.1136C189.718 71.1136 190.31 70.9905 190.774 70.7443C191.248 70.4981 191.489 70.1477 191.499 69.6932C191.489 69.2765 191.281 68.9451 190.874 68.6989C190.476 68.4527 189.851 68.2538 188.999 68.1023L185.135 67.4205C182.91 67.0322 181.243 66.2936 180.135 65.2045C179.027 64.1155 178.478 62.714 178.487 61C178.478 59.4848 178.875 58.2017 179.68 57.1506C180.495 56.09 181.655 55.285 183.161 54.7358C184.676 54.1771 186.47 53.8977 188.544 53.8977C191.697 53.8977 194.183 54.5511 196.001 55.858C197.829 57.1648 198.79 58.9735 198.885 61.2841ZM215.469 54.1818V59.8636H201.094V54.1818H215.469ZM203.878 48.9545H211.719V68.983C211.719 69.286 211.771 69.5417 211.875 69.75C211.979 69.9489 212.14 70.1004 212.358 70.2045C212.576 70.2992 212.855 70.3466 213.196 70.3466C213.433 70.3466 213.707 70.3182 214.02 70.2614C214.342 70.2045 214.579 70.1572 214.73 70.1193L215.866 75.6307C215.516 75.7348 215.014 75.8627 214.361 76.0142C213.717 76.1657 212.95 76.2652 212.06 76.3125C210.26 76.4072 208.75 76.2225 207.528 75.7585C206.307 75.285 205.388 74.5417 204.773 73.5284C204.157 72.5152 203.859 71.2462 203.878 69.7216V48.9545ZM228.888 76.3977C226.559 76.3977 224.551 75.9527 222.866 75.0625C221.19 74.1629 219.897 72.875 218.988 71.1989C218.088 69.5133 217.638 67.4962 217.638 65.1477C217.638 62.8939 218.093 60.9242 219.002 59.2386C219.911 57.553 221.194 56.2415 222.852 55.304C224.509 54.3665 226.464 53.8977 228.718 53.8977C230.366 53.8977 231.857 54.1534 233.192 54.6648C234.528 55.1761 235.669 55.9195 236.616 56.8949C237.563 57.8608 238.292 59.035 238.803 60.4176C239.315 61.8002 239.57 63.358 239.57 65.0909V66.9091H220.082V62.5909H232.354C232.345 61.9659 232.184 61.4167 231.871 60.9432C231.568 60.4602 231.156 60.0862 230.636 59.821C230.124 59.5464 229.542 59.4091 228.888 59.4091C228.254 59.4091 227.672 59.5464 227.141 59.821C226.611 60.0862 226.185 60.4555 225.863 60.929C225.55 61.4025 225.385 61.9564 225.366 62.5909V67.25C225.366 67.9508 225.513 68.5758 225.806 69.125C226.1 69.6742 226.521 70.1051 227.07 70.4176C227.62 70.7301 228.282 70.8864 229.059 70.8864C229.599 70.8864 230.091 70.8106 230.536 70.6591C230.991 70.5076 231.379 70.2898 231.701 70.0057C232.023 69.7121 232.26 69.3617 232.411 68.9545H239.57C239.324 70.4697 238.742 71.786 237.823 72.9034C236.905 74.0114 235.688 74.8731 234.173 75.4886C232.667 76.0947 230.906 76.3977 228.888 76.3977ZM250.611 63.7273V76H242.77V54.1818H250.213V58.3295H250.44C250.914 56.947 251.747 55.8627 252.94 55.0767C254.143 54.2907 255.545 53.8977 257.145 53.8977C258.688 53.8977 260.028 54.2528 261.165 54.9631C262.311 55.6638 263.196 56.6297 263.821 57.8608C264.455 59.0919 264.768 60.4981 264.759 62.0795V76H256.918V63.7273C256.927 62.6477 256.652 61.8002 256.094 61.1847C255.545 60.5691 254.777 60.2614 253.793 60.2614C253.149 60.2614 252.585 60.4034 252.102 60.6875C251.629 60.9621 251.264 61.3598 251.009 61.8807C250.753 62.392 250.62 63.0076 250.611 63.7273ZM279.141 76.3977C276.773 76.3977 274.747 75.929 273.061 74.9915C271.375 74.0445 270.083 72.7282 269.183 71.0426C268.284 69.3475 267.834 67.3826 267.834 65.1477C267.834 62.9129 268.284 60.9527 269.183 59.267C270.083 57.572 271.375 56.2557 273.061 55.3182C274.747 54.3712 276.773 53.8977 279.141 53.8977C281.281 53.8977 283.132 54.286 284.695 55.0625C286.267 55.8295 287.483 56.9186 288.345 58.3295C289.207 59.7311 289.643 61.3788 289.652 63.2727H282.379C282.275 62.1269 281.944 61.2557 281.385 60.6591C280.836 60.053 280.125 59.75 279.254 59.75C278.572 59.75 277.976 59.9489 277.464 60.3466C276.953 60.7348 276.555 61.3267 276.271 62.1222C275.987 62.9081 275.845 63.8977 275.845 65.0909C275.845 66.2841 275.987 67.2784 276.271 68.0739C276.555 68.8598 276.953 69.4517 277.464 69.8494C277.976 70.2377 278.572 70.4318 279.254 70.4318C279.832 70.4318 280.343 70.2992 280.788 70.0341C281.233 69.7595 281.593 69.3617 281.868 68.8409C282.152 68.3106 282.322 67.6667 282.379 66.9091H289.652C289.624 68.8314 289.183 70.5076 288.331 71.9375C287.479 73.358 286.271 74.4564 284.709 75.233C283.156 76.0095 281.3 76.3977 279.141 76.3977ZM297.66 84.1818C296.76 84.1818 295.903 84.1108 295.089 83.9688C294.274 83.8362 293.559 83.6515 292.944 83.4148L294.648 77.8466C295.292 78.0739 295.879 78.2206 296.41 78.2869C296.95 78.3532 297.409 78.3153 297.788 78.1733C298.176 78.0313 298.455 77.7614 298.626 77.3636L298.796 76.9659L291.126 54.1818H299.308L302.83 69.2955H303.058L306.637 54.1818H314.876L306.921 77.8182C306.523 79.0208 305.946 80.1004 305.188 81.0568C304.44 82.0227 303.455 82.785 302.234 83.3438C301.012 83.9025 299.487 84.1818 297.66 84.1818Z" fill="white"/>
<path d="M45.6376 108.727C45.6376 110.261 45.3606 111.587 44.8066 112.705C44.2527 113.822 43.4927 114.684 42.5268 115.29C41.5609 115.896 40.4577 116.199 39.2172 116.199C37.9766 116.199 36.8734 115.896 35.9075 115.29C34.9416 114.684 34.1816 113.822 33.6277 112.705C33.0737 111.587 32.7967 110.261 32.7967 108.727C32.7967 107.193 33.0737 105.867 33.6277 104.75C34.1816 103.633 34.9416 102.771 35.9075 102.165C36.8734 101.559 37.9766 101.256 39.2172 101.256C40.4577 101.256 41.5609 101.559 42.5268 102.165C43.4927 102.771 44.2527 103.633 44.8066 104.75C45.3606 105.867 45.6376 107.193 45.6376 108.727ZM43.9331 108.727C43.9331 107.468 43.7224 106.405 43.301 105.538C42.8843 104.672 42.3185 104.016 41.6035 103.571C40.8933 103.126 40.0978 102.903 39.2172 102.903C38.3365 102.903 37.5386 103.126 36.8237 103.571C36.1135 104.016 35.5476 104.672 35.1262 105.538C34.7096 106.405 34.5012 107.468 34.5012 108.727C34.5012 109.987 34.7096 111.05 35.1262 111.916C35.5476 112.783 36.1135 113.438 36.8237 113.884C37.5386 114.329 38.3365 114.551 39.2172 114.551C40.0978 114.551 40.8933 114.329 41.6035 113.884C42.3185 113.438 42.8843 112.783 43.301 111.916C43.7224 111.05 43.9331 109.987 43.9331 108.727ZM50.0481 109.438V116H48.372V105.091H49.9913V106.795H50.1333C50.389 106.241 50.7773 105.796 51.2981 105.46C51.819 105.119 52.4913 104.949 53.3152 104.949C54.0538 104.949 54.7001 105.1 55.2541 105.403C55.8081 105.702 56.2389 106.156 56.5467 106.767C56.8545 107.373 57.0083 108.14 57.0083 109.068V116H55.3322V109.182C55.3322 108.325 55.1097 107.657 54.6646 107.179C54.2195 106.696 53.6087 106.455 52.8322 106.455C52.2972 106.455 51.819 106.571 51.3975 106.803C50.9809 107.035 50.6518 107.373 50.4103 107.818C50.1689 108.263 50.0481 108.803 50.0481 109.438ZM64.6451 116.227C63.5939 116.227 62.6872 115.995 61.9249 115.531C61.1673 115.062 60.5826 114.409 60.1706 113.571C59.7634 112.728 59.5598 111.748 59.5598 110.631C59.5598 109.513 59.7634 108.528 60.1706 107.676C60.5826 106.819 61.1555 106.152 61.8894 105.673C62.628 105.19 63.4898 104.949 64.4746 104.949C65.0428 104.949 65.6039 105.044 66.1578 105.233C66.7118 105.422 67.2161 105.73 67.6706 106.156C68.1252 106.578 68.4874 107.136 68.7573 107.832C69.0272 108.528 69.1621 109.385 69.1621 110.403V111.114H60.753V109.665H67.4576C67.4576 109.049 67.3345 108.5 67.0882 108.017C66.8468 107.534 66.5011 107.153 66.0513 106.874C65.6062 106.594 65.0807 106.455 64.4746 106.455C63.807 106.455 63.2293 106.62 62.7417 106.952C62.2587 107.278 61.887 107.705 61.6266 108.23C61.3662 108.756 61.236 109.319 61.236 109.92V110.886C61.236 111.71 61.378 112.409 61.6621 112.982C61.9509 113.55 62.351 113.983 62.8624 114.281C63.3738 114.575 63.968 114.722 64.6451 114.722C65.0854 114.722 65.4831 114.66 65.8382 114.537C66.1981 114.409 66.5082 114.22 66.7686 113.969C67.0291 113.713 67.2303 113.396 67.3723 113.017L68.9917 113.472C68.8212 114.021 68.5347 114.504 68.1323 114.92C67.7298 115.332 67.2327 115.654 66.6408 115.886C66.0489 116.114 65.3837 116.227 64.6451 116.227ZM81.7686 116.227C80.7459 116.227 79.8652 115.986 79.1266 115.503C78.388 115.02 77.8198 114.355 77.4221 113.507C77.0243 112.66 76.8255 111.691 76.8255 110.602C76.8255 109.494 77.0291 108.517 77.4363 107.669C77.8482 106.817 78.4211 106.152 79.155 105.673C79.8936 105.19 80.7554 104.949 81.7402 104.949C82.5073 104.949 83.1986 105.091 83.8141 105.375C84.4296 105.659 84.9339 106.057 85.3269 106.568C85.7199 107.08 85.9637 107.676 86.0584 108.358H84.3823C84.2544 107.861 83.9703 107.42 83.53 107.037C83.0944 106.649 82.5073 106.455 81.7686 106.455C81.1152 106.455 80.5423 106.625 80.0499 106.966C79.5622 107.302 79.181 107.778 78.9064 108.393C78.6365 109.004 78.5016 109.722 78.5016 110.545C78.5016 111.388 78.6342 112.122 78.8993 112.747C79.1692 113.372 79.548 113.857 80.0357 114.203C80.5281 114.549 81.1058 114.722 81.7686 114.722C82.2042 114.722 82.5996 114.646 82.9547 114.494C83.3098 114.343 83.6105 114.125 83.8567 113.841C84.1029 113.557 84.2781 113.216 84.3823 112.818H86.0584C85.9637 113.462 85.7293 114.042 85.3553 114.558C84.986 115.07 84.4959 115.477 83.8851 115.78C83.2791 116.078 82.5736 116.227 81.7686 116.227ZM90.1848 109.438V116H88.5087V101.455H90.1848V106.795H90.3269C90.5826 106.232 90.9661 105.785 91.4775 105.453C91.9935 105.117 92.6801 104.949 93.5371 104.949C94.2805 104.949 94.9315 105.098 95.4902 105.396C96.0489 105.69 96.4822 106.142 96.79 106.753C97.1025 107.359 97.2587 108.131 97.2587 109.068V116H95.5826V109.182C95.5826 108.315 95.3577 107.645 94.9078 107.172C94.4628 106.694 93.8449 106.455 93.0542 106.455C92.5049 106.455 92.0125 106.571 91.5769 106.803C91.146 107.035 90.8051 107.373 90.5542 107.818C90.3079 108.263 90.1848 108.803 90.1848 109.438ZM103.535 116.256C102.844 116.256 102.217 116.125 101.653 115.865C101.09 115.6 100.642 115.219 100.311 114.722C99.9795 114.22 99.8137 113.614 99.8137 112.903C99.8137 112.278 99.9368 111.772 100.183 111.384C100.429 110.991 100.758 110.683 101.17 110.46C101.582 110.238 102.037 110.072 102.534 109.963C103.036 109.849 103.54 109.759 104.047 109.693C104.71 109.608 105.247 109.544 105.659 109.501C106.076 109.454 106.379 109.376 106.568 109.267C106.762 109.158 106.859 108.969 106.859 108.699V108.642C106.859 107.941 106.667 107.397 106.284 107.009C105.905 106.62 105.33 106.426 104.558 106.426C103.758 106.426 103.131 106.601 102.676 106.952C102.221 107.302 101.902 107.676 101.717 108.074L100.126 107.506C100.41 106.843 100.789 106.327 101.263 105.957C101.741 105.583 102.262 105.323 102.825 105.176C103.393 105.025 103.952 104.949 104.501 104.949C104.852 104.949 105.254 104.991 105.709 105.077C106.168 105.157 106.611 105.325 107.037 105.581C107.468 105.837 107.825 106.223 108.109 106.739C108.393 107.255 108.535 107.946 108.535 108.812V116H106.859V114.523H106.774C106.66 114.759 106.471 115.013 106.206 115.283C105.941 115.553 105.588 115.782 105.148 115.972C104.707 116.161 104.17 116.256 103.535 116.256ZM103.791 114.75C104.454 114.75 105.013 114.62 105.467 114.359C105.926 114.099 106.272 113.763 106.504 113.351C106.741 112.939 106.859 112.506 106.859 112.051V110.517C106.788 110.602 106.632 110.68 106.39 110.751C106.154 110.818 105.879 110.877 105.567 110.929C105.259 110.976 104.958 111.019 104.665 111.057C104.376 111.09 104.141 111.118 103.961 111.142C103.526 111.199 103.119 111.291 102.74 111.419C102.366 111.542 102.063 111.729 101.831 111.98C101.604 112.226 101.49 112.562 101.49 112.989C101.49 113.571 101.705 114.011 102.136 114.31C102.572 114.603 103.123 114.75 103.791 114.75ZM111.595 116V105.091H113.214V106.739H113.328C113.526 106.199 113.886 105.761 114.407 105.425C114.928 105.089 115.515 104.92 116.169 104.92C116.292 104.92 116.445 104.923 116.63 104.928C116.815 104.932 116.954 104.939 117.049 104.949V106.653C116.992 106.639 116.862 106.618 116.659 106.589C116.46 106.556 116.249 106.54 116.026 106.54C115.496 106.54 115.023 106.651 114.606 106.874C114.194 107.091 113.867 107.394 113.626 107.783C113.389 108.166 113.271 108.604 113.271 109.097V116H111.595ZM122.246 116.256C121.555 116.256 120.928 116.125 120.364 115.865C119.801 115.6 119.353 115.219 119.022 114.722C118.69 114.22 118.525 113.614 118.525 112.903C118.525 112.278 118.648 111.772 118.894 111.384C119.14 110.991 119.469 110.683 119.881 110.46C120.293 110.238 120.748 110.072 121.245 109.963C121.747 109.849 122.251 109.759 122.758 109.693C123.421 109.608 123.958 109.544 124.37 109.501C124.787 109.454 125.09 109.376 125.279 109.267C125.473 109.158 125.57 108.969 125.57 108.699V108.642C125.57 107.941 125.378 107.397 124.995 107.009C124.616 106.62 124.041 106.426 123.269 106.426C122.469 106.426 121.841 106.601 121.387 106.952C120.932 107.302 120.613 107.676 120.428 108.074L118.837 107.506C119.121 106.843 119.5 106.327 119.974 105.957C120.452 105.583 120.973 105.323 121.536 105.176C122.104 105.025 122.663 104.949 123.212 104.949C123.563 104.949 123.965 104.991 124.42 105.077C124.879 105.157 125.322 105.325 125.748 105.581C126.179 105.837 126.536 106.223 126.82 106.739C127.104 107.255 127.246 107.946 127.246 108.812V116H125.57V114.523H125.485C125.371 114.759 125.182 115.013 124.917 115.283C124.652 115.553 124.299 115.782 123.858 115.972C123.418 116.161 122.881 116.256 122.246 116.256ZM122.502 114.75C123.165 114.75 123.724 114.62 124.178 114.359C124.637 114.099 124.983 113.763 125.215 113.351C125.452 112.939 125.57 112.506 125.57 112.051V110.517C125.499 110.602 125.343 110.68 125.101 110.751C124.865 110.818 124.59 110.877 124.278 110.929C123.97 110.976 123.669 111.019 123.376 111.057C123.087 111.09 122.852 111.118 122.672 111.142C122.237 111.199 121.83 111.291 121.451 111.419C121.077 111.542 120.774 111.729 120.542 111.98C120.314 112.226 120.201 112.562 120.201 112.989C120.201 113.571 120.416 114.011 120.847 114.31C121.283 114.603 121.834 114.75 122.502 114.75ZM134.737 116.227C133.715 116.227 132.834 115.986 132.095 115.503C131.357 115.02 130.789 114.355 130.391 113.507C129.993 112.66 129.794 111.691 129.794 110.602C129.794 109.494 129.998 108.517 130.405 107.669C130.817 106.817 131.39 106.152 132.124 105.673C132.862 105.19 133.724 104.949 134.709 104.949C135.476 104.949 136.167 105.091 136.783 105.375C137.398 105.659 137.903 106.057 138.296 106.568C138.689 107.08 138.932 107.676 139.027 108.358H137.351C137.223 107.861 136.939 107.42 136.499 107.037C136.063 106.649 135.476 106.455 134.737 106.455C134.084 106.455 133.511 106.625 133.019 106.966C132.531 107.302 132.15 107.778 131.875 108.393C131.605 109.004 131.47 109.722 131.47 110.545C131.47 111.388 131.603 112.122 131.868 112.747C132.138 113.372 132.517 113.857 133.004 114.203C133.497 114.549 134.075 114.722 134.737 114.722C135.173 114.722 135.568 114.646 135.923 114.494C136.279 114.343 136.579 114.125 136.825 113.841C137.072 113.557 137.247 113.216 137.351 112.818H139.027C138.932 113.462 138.698 114.042 138.324 114.558C137.955 115.07 137.465 115.477 136.854 115.78C136.248 116.078 135.542 116.227 134.737 116.227ZM146.222 105.091V106.511H140.568V105.091H146.222ZM142.216 102.477H143.892V112.875C143.892 113.348 143.961 113.704 144.098 113.94C144.24 114.172 144.42 114.329 144.638 114.409C144.86 114.485 145.095 114.523 145.341 114.523C145.526 114.523 145.677 114.513 145.796 114.494C145.914 114.471 146.009 114.452 146.08 114.438L146.421 115.943C146.307 115.986 146.148 116.028 145.945 116.071C145.741 116.118 145.483 116.142 145.171 116.142C144.697 116.142 144.233 116.04 143.779 115.837C143.329 115.633 142.955 115.323 142.656 114.906C142.363 114.49 142.216 113.964 142.216 113.33V102.477ZM153.2 116.227C152.149 116.227 151.242 115.995 150.48 115.531C149.722 115.062 149.137 114.409 148.725 113.571C148.318 112.728 148.115 111.748 148.115 110.631C148.115 109.513 148.318 108.528 148.725 107.676C149.137 106.819 149.71 106.152 150.444 105.673C151.183 105.19 152.044 104.949 153.029 104.949C153.597 104.949 154.159 105.044 154.713 105.233C155.267 105.422 155.771 105.73 156.225 106.156C156.68 106.578 157.042 107.136 157.312 107.832C157.582 108.528 157.717 109.385 157.717 110.403V111.114H149.308V109.665H156.012C156.012 109.049 155.889 108.5 155.643 108.017C155.401 107.534 155.056 107.153 154.606 106.874C154.161 106.594 153.635 106.455 153.029 106.455C152.362 106.455 151.784 106.62 151.296 106.952C150.813 107.278 150.442 107.705 150.181 108.23C149.921 108.756 149.791 109.319 149.791 109.92V110.886C149.791 111.71 149.933 112.409 150.217 112.982C150.506 113.55 150.906 113.983 151.417 114.281C151.928 114.575 152.523 114.722 153.2 114.722C153.64 114.722 154.038 114.66 154.393 114.537C154.753 114.409 155.063 114.22 155.323 113.969C155.584 113.713 155.785 113.396 155.927 113.017L157.546 113.472C157.376 114.021 157.089 114.504 156.687 114.92C156.285 115.332 155.787 115.654 155.195 115.886C154.604 116.114 153.938 116.227 153.2 116.227ZM160.267 116V105.091H161.886V106.739H161.999C162.198 106.199 162.558 105.761 163.079 105.425C163.6 105.089 164.187 104.92 164.84 104.92C164.963 104.92 165.117 104.923 165.302 104.928C165.487 104.932 165.626 104.939 165.721 104.949V106.653C165.664 106.639 165.534 106.618 165.33 106.589C165.132 106.556 164.921 106.54 164.698 106.54C164.168 106.54 163.695 106.651 163.278 106.874C162.866 107.091 162.539 107.394 162.298 107.783C162.061 108.166 161.943 108.604 161.943 109.097V116H160.267ZM191.799 108.983V110.545H171.799V108.983H191.799ZM203.532 116.227C202.481 116.227 201.574 115.995 200.812 115.531C200.054 115.062 199.469 114.409 199.057 113.571C198.65 112.728 198.447 111.748 198.447 110.631C198.447 109.513 198.65 108.528 199.057 107.676C199.469 106.819 200.042 106.152 200.776 105.673C201.515 105.19 202.376 104.949 203.361 104.949C203.93 104.949 204.491 105.044 205.045 105.233C205.599 105.422 206.103 105.73 206.557 106.156C207.012 106.578 207.374 107.136 207.644 107.832C207.914 108.528 208.049 109.385 208.049 110.403V111.114H199.64V109.665H206.344C206.344 109.049 206.221 108.5 205.975 108.017C205.733 107.534 205.388 107.153 204.938 106.874C204.493 106.594 203.967 106.455 203.361 106.455C202.694 106.455 202.116 106.62 201.628 106.952C201.145 107.278 200.774 107.705 200.513 108.23C200.253 108.756 200.123 109.319 200.123 109.92V110.886C200.123 111.71 200.265 112.409 200.549 112.982C200.838 113.55 201.238 113.983 201.749 114.281C202.26 114.575 202.855 114.722 203.532 114.722C203.972 114.722 204.37 114.66 204.725 114.537C205.085 114.409 205.395 114.22 205.655 113.969C205.916 113.713 206.117 113.396 206.259 113.017L207.878 113.472C207.708 114.021 207.421 114.504 207.019 114.92C206.617 115.332 206.119 115.654 205.528 115.886C204.936 116.114 204.27 116.227 203.532 116.227ZM219.187 105.091L215.153 116H213.448L209.414 105.091H211.232L214.244 113.784H214.357L217.369 105.091H219.187ZM225.583 116.227C224.531 116.227 223.625 115.995 222.862 115.531C222.105 115.062 221.52 114.409 221.108 113.571C220.701 112.728 220.497 111.748 220.497 110.631C220.497 109.513 220.701 108.528 221.108 107.676C221.52 106.819 222.093 106.152 222.827 105.673C223.566 105.19 224.427 104.949 225.412 104.949C225.98 104.949 226.541 105.044 227.095 105.233C227.649 105.422 228.154 105.73 228.608 106.156C229.063 106.578 229.425 107.136 229.695 107.832C229.965 108.528 230.1 109.385 230.1 110.403V111.114H221.691V109.665H228.395C228.395 109.049 228.272 108.5 228.026 108.017C227.784 107.534 227.439 107.153 226.989 106.874C226.544 106.594 226.018 106.455 225.412 106.455C224.744 106.455 224.167 106.62 223.679 106.952C223.196 107.278 222.825 107.705 222.564 108.23C222.304 108.756 222.173 109.319 222.173 109.92V110.886C222.173 111.71 222.316 112.409 222.6 112.982C222.888 113.55 223.289 113.983 223.8 114.281C224.311 114.575 224.905 114.722 225.583 114.722C226.023 114.722 226.421 114.66 226.776 114.537C227.136 114.409 227.446 114.22 227.706 113.969C227.967 113.713 228.168 113.396 228.31 113.017L229.929 113.472C229.759 114.021 229.472 114.504 229.07 114.92C228.667 115.332 228.17 115.654 227.578 115.886C226.986 116.114 226.321 116.227 225.583 116.227ZM232.649 116V105.091H234.269V106.739H234.382C234.581 106.199 234.941 105.761 235.462 105.425C235.983 105.089 236.57 104.92 237.223 104.92C237.346 104.92 237.5 104.923 237.685 104.928C237.869 104.932 238.009 104.939 238.104 104.949V106.653C238.047 106.639 237.917 106.618 237.713 106.589C237.514 106.556 237.304 106.54 237.081 106.54C236.551 106.54 236.077 106.651 235.661 106.874C235.249 107.091 234.922 107.394 234.681 107.783C234.444 108.166 234.325 108.604 234.325 109.097V116H232.649ZM241.502 120.091C241.218 120.091 240.965 120.067 240.742 120.02C240.52 119.977 240.366 119.935 240.281 119.892L240.707 118.415C241.114 118.519 241.474 118.557 241.786 118.528C242.099 118.5 242.376 118.36 242.617 118.109C242.864 117.863 243.088 117.463 243.292 116.909L243.605 116.057L239.57 105.091H241.389L244.4 113.784H244.514L247.525 105.091H249.343L244.713 117.591C244.504 118.154 244.246 118.621 243.938 118.99C243.631 119.364 243.273 119.641 242.866 119.821C242.463 120.001 242.009 120.091 241.502 120.091ZM256.3 105.091V106.511H250.646V105.091H256.3ZM252.294 102.477H253.97V112.875C253.97 113.348 254.039 113.704 254.176 113.94C254.318 114.172 254.498 114.329 254.716 114.409C254.939 114.485 255.173 114.523 255.419 114.523C255.604 114.523 255.755 114.513 255.874 114.494C255.992 114.471 256.087 114.452 256.158 114.438L256.499 115.943C256.385 115.986 256.227 116.028 256.023 116.071C255.819 116.118 255.561 116.142 255.249 116.142C254.775 116.142 254.311 116.04 253.857 115.837C253.407 115.633 253.033 115.323 252.735 114.906C252.441 114.49 252.294 113.964 252.294 113.33V102.477ZM260.732 109.438V116H259.056V101.455H260.732V106.795H260.874C261.129 106.232 261.513 105.785 262.024 105.453C262.54 105.117 263.227 104.949 264.084 104.949C264.827 104.949 265.478 105.098 266.037 105.396C266.596 105.69 267.029 106.142 267.337 106.753C267.649 107.359 267.806 108.131 267.806 109.068V116H266.129V109.182C266.129 108.315 265.905 107.645 265.455 107.172C265.01 106.694 264.392 106.455 263.601 106.455C263.052 106.455 262.559 106.571 262.124 106.803C261.693 107.035 261.352 107.373 261.101 107.818C260.855 108.263 260.732 108.803 260.732 109.438ZM270.872 116V105.091H272.548V116H270.872ZM271.724 103.273C271.398 103.273 271.116 103.161 270.879 102.939C270.647 102.716 270.531 102.449 270.531 102.136C270.531 101.824 270.647 101.556 270.879 101.334C271.116 101.111 271.398 101 271.724 101C272.051 101 272.33 101.111 272.562 101.334C272.799 101.556 272.917 101.824 272.917 102.136C272.917 102.449 272.799 102.716 272.562 102.939C272.33 103.161 272.051 103.273 271.724 103.273ZM277.294 109.438V116H275.618V105.091H277.237V106.795H277.379C277.635 106.241 278.023 105.796 278.544 105.46C279.065 105.119 279.737 104.949 280.561 104.949C281.3 104.949 281.946 105.1 282.5 105.403C283.054 105.702 283.485 106.156 283.793 106.767C284.101 107.373 284.254 108.14 284.254 109.068V116H282.578V109.182C282.578 108.325 282.356 107.657 281.911 107.179C281.466 106.696 280.855 106.455 280.078 106.455C279.543 106.455 279.065 106.571 278.644 106.803C278.227 107.035 277.898 107.373 277.656 107.818C277.415 108.263 277.294 108.803 277.294 109.438ZM291.721 120.318C290.911 120.318 290.215 120.214 289.633 120.006C289.05 119.802 288.565 119.532 288.177 119.196C287.793 118.865 287.488 118.509 287.26 118.131L288.596 117.193C288.747 117.392 288.939 117.619 289.171 117.875C289.403 118.135 289.72 118.36 290.123 118.55C290.53 118.744 291.063 118.841 291.721 118.841C292.601 118.841 293.328 118.628 293.901 118.202C294.474 117.776 294.76 117.108 294.76 116.199V113.983H294.618C294.495 114.182 294.32 114.428 294.093 114.722C293.87 115.01 293.548 115.268 293.127 115.496C292.71 115.718 292.147 115.83 291.437 115.83C290.556 115.83 289.765 115.621 289.064 115.205C288.368 114.788 287.817 114.182 287.41 113.386C287.007 112.591 286.806 111.625 286.806 110.489C286.806 109.371 287.002 108.398 287.395 107.57C287.788 106.736 288.335 106.092 289.036 105.638C289.737 105.179 290.546 104.949 291.465 104.949C292.175 104.949 292.739 105.067 293.155 105.304C293.577 105.536 293.899 105.801 294.121 106.099C294.349 106.393 294.524 106.634 294.647 106.824H294.817V105.091H296.437V116.312C296.437 117.25 296.224 118.012 295.797 118.599C295.376 119.191 294.808 119.625 294.093 119.899C293.383 120.179 292.592 120.318 291.721 120.318ZM291.664 114.324C292.336 114.324 292.904 114.17 293.368 113.862C293.832 113.554 294.185 113.112 294.427 112.534C294.668 111.956 294.789 111.265 294.789 110.46C294.789 109.674 294.671 108.981 294.434 108.379C294.197 107.778 293.847 107.307 293.383 106.966C292.919 106.625 292.346 106.455 291.664 106.455C290.954 106.455 290.362 106.634 289.888 106.994C289.42 107.354 289.067 107.837 288.83 108.443C288.598 109.049 288.482 109.722 288.482 110.46C288.482 111.218 288.6 111.888 288.837 112.47C289.079 113.048 289.434 113.502 289.903 113.834C290.376 114.161 290.963 114.324 291.664 114.324ZM305.357 116V101.455H307.033V106.824H307.175C307.298 106.634 307.469 106.393 307.687 106.099C307.909 105.801 308.226 105.536 308.638 105.304C309.055 105.067 309.618 104.949 310.329 104.949C311.247 104.949 312.057 105.179 312.758 105.638C313.458 106.097 314.005 106.748 314.398 107.591C314.791 108.434 314.988 109.428 314.988 110.574C314.988 111.729 314.791 112.731 314.398 113.578C314.005 114.421 313.461 115.074 312.765 115.538C312.069 115.998 311.266 116.227 310.357 116.227C309.656 116.227 309.095 116.111 308.674 115.879C308.252 115.643 307.928 115.375 307.701 115.077C307.474 114.774 307.298 114.523 307.175 114.324H306.976V116H305.357ZM307.005 110.545C307.005 111.369 307.126 112.096 307.367 112.726C307.608 113.351 307.961 113.841 308.425 114.196C308.889 114.546 309.457 114.722 310.13 114.722C310.831 114.722 311.415 114.537 311.884 114.168C312.358 113.794 312.713 113.292 312.949 112.662C313.191 112.027 313.312 111.322 313.312 110.545C313.312 109.778 313.193 109.087 312.956 108.472C312.724 107.851 312.372 107.361 311.898 107.001C311.43 106.637 310.84 106.455 310.13 106.455C309.448 106.455 308.875 106.627 308.411 106.973C307.947 107.314 307.597 107.792 307.36 108.408C307.123 109.018 307.005 109.731 307.005 110.545ZM324.427 111.54V105.091H326.103V116H324.427V114.153H324.313C324.057 114.707 323.66 115.179 323.12 115.567C322.58 115.95 321.898 116.142 321.074 116.142C320.393 116.142 319.787 115.993 319.256 115.695C318.726 115.392 318.309 114.937 318.006 114.331C317.703 113.72 317.552 112.951 317.552 112.023V105.091H319.228V111.909C319.228 112.705 319.45 113.339 319.895 113.812C320.345 114.286 320.918 114.523 321.614 114.523C322.031 114.523 322.455 114.416 322.885 114.203C323.321 113.99 323.686 113.663 323.979 113.223C324.278 112.783 324.427 112.222 324.427 111.54ZM329.173 116V105.091H330.849V116H329.173ZM330.025 103.273C329.698 103.273 329.417 103.161 329.18 102.939C328.948 102.716 328.832 102.449 328.832 102.136C328.832 101.824 328.948 101.556 329.18 101.334C329.417 101.111 329.698 101 330.025 101C330.352 101 330.631 101.111 330.863 101.334C331.1 101.556 331.218 101.824 331.218 102.136C331.218 102.449 331.1 102.716 330.863 102.939C330.631 103.161 330.352 103.273 330.025 103.273ZM335.595 101.455V116H333.919V101.455H335.595ZM343.409 105.091V106.511H337.756V105.091H343.409ZM339.404 102.477H341.08V112.875C341.08 113.348 341.148 113.704 341.286 113.94C341.428 114.172 341.608 114.329 341.825 114.409C342.048 114.485 342.282 114.523 342.529 114.523C342.713 114.523 342.865 114.513 342.983 114.494C343.102 114.471 343.196 114.452 343.267 114.438L343.608 115.943C343.494 115.986 343.336 116.028 343.132 116.071C342.929 116.118 342.671 116.142 342.358 116.142C341.885 116.142 341.421 116.04 340.966 115.837C340.516 115.633 340.142 115.323 339.844 114.906C339.55 114.49 339.404 113.964 339.404 113.33V102.477ZM30.5639 133.091V134.511H24.6832V133.091H30.5639ZM26.4446 144V131.585C26.4446 130.96 26.5914 130.439 26.8849 130.023C27.1785 129.606 27.5597 129.294 28.0284 129.085C28.4972 128.877 28.992 128.773 29.5128 128.773C29.9247 128.773 30.2609 128.806 30.5213 128.872C30.7817 128.938 30.9759 129 31.1037 129.057L30.6207 130.506C30.5355 130.477 30.4171 130.442 30.2656 130.399C30.1188 130.357 29.9247 130.335 29.6832 130.335C29.1293 130.335 28.7292 130.475 28.483 130.754C28.2415 131.034 28.1207 131.443 28.1207 131.983V144H26.4446ZM36.8956 144.227C35.9107 144.227 35.0466 143.993 34.3033 143.524C33.5646 143.055 32.987 142.4 32.5703 141.557C32.1584 140.714 31.9524 139.729 31.9524 138.602C31.9524 137.466 32.1584 136.474 32.5703 135.626C32.987 134.779 33.5646 134.121 34.3033 133.652C35.0466 133.183 35.9107 132.949 36.8956 132.949C37.8804 132.949 38.7422 133.183 39.4808 133.652C40.2242 134.121 40.8018 134.779 41.2138 135.626C41.6304 136.474 41.8388 137.466 41.8388 138.602C41.8388 139.729 41.6304 140.714 41.2138 141.557C40.8018 142.4 40.2242 143.055 39.4808 143.524C38.7422 143.993 37.8804 144.227 36.8956 144.227ZM36.8956 142.722C37.6437 142.722 38.2592 142.53 38.7422 142.146C39.2251 141.763 39.5826 141.259 39.8146 140.634C40.0466 140.009 40.1626 139.331 40.1626 138.602C40.1626 137.873 40.0466 137.194 39.8146 136.564C39.5826 135.934 39.2251 135.425 38.7422 135.037C38.2592 134.649 37.6437 134.455 36.8956 134.455C36.1475 134.455 35.532 134.649 35.049 135.037C34.5661 135.425 34.2086 135.934 33.9766 136.564C33.7446 137.194 33.6286 137.873 33.6286 138.602C33.6286 139.331 33.7446 140.009 33.9766 140.634C34.2086 141.259 34.5661 141.763 35.049 142.146C35.532 142.53 36.1475 142.722 36.8956 142.722ZM44.3974 144V133.091H46.0167V134.739H46.1303C46.3292 134.199 46.689 133.761 47.2099 133.425C47.7307 133.089 48.3178 132.92 48.9712 132.92C49.0943 132.92 49.2482 132.923 49.4329 132.928C49.6175 132.932 49.7572 132.939 49.8519 132.949V134.653C49.7951 134.639 49.6649 134.618 49.4613 134.589C49.2624 134.556 49.0517 134.54 48.8292 134.54C48.2989 134.54 47.8254 134.651 47.4087 134.874C46.9968 135.091 46.6701 135.394 46.4286 135.783C46.1919 136.166 46.0735 136.604 46.0735 137.097V144H44.3974ZM62.2081 133.091V134.511H56.5547V133.091H62.2081ZM58.2024 130.477H59.8786V140.875C59.8786 141.348 59.9472 141.704 60.0845 141.94C60.2266 142.172 60.4065 142.329 60.6243 142.409C60.8468 142.485 61.0812 142.523 61.3274 142.523C61.5121 142.523 61.6636 142.513 61.782 142.494C61.9003 142.471 61.995 142.452 62.0661 142.438L62.407 143.943C62.2933 143.986 62.1347 144.028 61.9311 144.071C61.7275 144.118 61.4695 144.142 61.157 144.142C60.6835 144.142 60.2195 144.04 59.7649 143.837C59.3151 143.633 58.9411 143.323 58.6428 142.906C58.3492 142.49 58.2024 141.964 58.2024 141.33V130.477ZM66.6399 137.438V144H64.9638V129.455H66.6399V134.795H66.782C67.0376 134.232 67.4212 133.785 67.9325 133.453C68.4486 133.117 69.1352 132.949 69.9922 132.949C70.7356 132.949 71.3866 133.098 71.9453 133.396C72.504 133.69 72.9373 134.142 73.245 134.753C73.5575 135.359 73.7138 136.131 73.7138 137.068V144H72.0376V137.182C72.0376 136.315 71.8127 135.645 71.3629 135.172C70.9179 134.694 70.3 134.455 69.5092 134.455C68.96 134.455 68.4676 134.571 68.032 134.803C67.6011 135.035 67.2602 135.373 67.0092 135.818C66.763 136.263 66.6399 136.803 66.6399 137.438ZM81.354 144.227C80.3029 144.227 79.3962 143.995 78.6339 143.531C77.8763 143.062 77.2915 142.409 76.8796 141.571C76.4724 140.728 76.2688 139.748 76.2688 138.631C76.2688 137.513 76.4724 136.528 76.8796 135.676C77.2915 134.819 77.8645 134.152 78.5984 133.673C79.337 133.19 80.1987 132.949 81.1836 132.949C81.7518 132.949 82.3129 133.044 82.8668 133.233C83.4208 133.422 83.9251 133.73 84.3796 134.156C84.8342 134.578 85.1964 135.136 85.4663 135.832C85.7362 136.528 85.8711 137.385 85.8711 138.403V139.114H77.462V137.665H84.1665C84.1665 137.049 84.0434 136.5 83.7972 136.017C83.5558 135.534 83.2101 135.153 82.7603 134.874C82.3152 134.594 81.7897 134.455 81.1836 134.455C80.516 134.455 79.9383 134.62 79.4506 134.952C78.9677 135.278 78.596 135.705 78.3356 136.23C78.0752 136.756 77.945 137.319 77.945 137.92V138.886C77.945 139.71 78.087 140.409 78.3711 140.982C78.6599 141.55 79.06 141.983 79.5714 142.281C80.0827 142.575 80.677 142.722 81.354 142.722C81.7944 142.722 82.1921 142.66 82.5472 142.537C82.9071 142.409 83.2172 142.22 83.4776 141.969C83.738 141.713 83.9393 141.396 84.0813 141.017L85.7006 141.472C85.5302 142.021 85.2437 142.504 84.8413 142.92C84.4388 143.332 83.9416 143.654 83.3498 143.886C82.7579 144.114 82.0927 144.227 81.354 144.227ZM88.4208 144V133.091H90.0401V134.795H90.1822C90.4094 134.213 90.7764 133.761 91.283 133.439C91.7897 133.112 92.3981 132.949 93.1083 132.949C93.828 132.949 94.427 133.112 94.9052 133.439C95.3881 133.761 95.7646 134.213 96.0344 134.795H96.1481C96.4274 134.232 96.8465 133.785 97.4052 133.453C97.9639 133.117 98.6339 132.949 99.4151 132.949C100.391 132.949 101.188 133.254 101.809 133.865C102.429 134.471 102.739 135.416 102.739 136.699V144H101.063V136.699C101.063 135.894 100.843 135.319 100.402 134.973C99.962 134.627 99.4435 134.455 98.8469 134.455C98.0799 134.455 97.4857 134.687 97.0643 135.151C96.6429 135.61 96.4322 136.192 96.4322 136.898V144H94.7276V136.528C94.7276 135.908 94.5264 135.409 94.1239 135.03C93.7215 134.646 93.203 134.455 92.5685 134.455C92.1329 134.455 91.7257 134.571 91.3469 134.803C90.9729 135.035 90.6699 135.357 90.4379 135.768C90.2106 136.176 90.0969 136.647 90.0969 137.182V144H88.4208ZM108.304 142.011L108.19 142.778C108.109 143.318 107.986 143.896 107.821 144.511C107.66 145.127 107.492 145.707 107.316 146.251C107.141 146.796 106.997 147.229 106.883 147.551H105.605C105.666 147.248 105.747 146.848 105.846 146.351C105.946 145.854 106.045 145.297 106.145 144.682C106.249 144.071 106.334 143.446 106.4 142.807L106.485 142.011H108.304ZM117.034 148.091V133.091H118.653V134.824H118.852C118.975 134.634 119.146 134.393 119.364 134.099C119.586 133.801 119.903 133.536 120.315 133.304C120.732 133.067 121.295 132.949 122.006 132.949C122.924 132.949 123.734 133.179 124.435 133.638C125.135 134.097 125.682 134.748 126.075 135.591C126.468 136.434 126.665 137.428 126.665 138.574C126.665 139.729 126.468 140.731 126.075 141.578C125.682 142.421 125.138 143.074 124.442 143.538C123.746 143.998 122.943 144.227 122.034 144.227C121.333 144.227 120.772 144.111 120.351 143.879C119.929 143.643 119.605 143.375 119.378 143.077C119.151 142.774 118.975 142.523 118.852 142.324H118.71V148.091H117.034ZM118.682 138.545C118.682 139.369 118.803 140.096 119.044 140.726C119.286 141.351 119.638 141.841 120.102 142.196C120.566 142.546 121.134 142.722 121.807 142.722C122.508 142.722 123.092 142.537 123.561 142.168C124.035 141.794 124.39 141.292 124.626 140.662C124.868 140.027 124.989 139.322 124.989 138.545C124.989 137.778 124.87 137.087 124.634 136.472C124.402 135.851 124.049 135.361 123.575 135.001C123.107 134.637 122.517 134.455 121.807 134.455C121.125 134.455 120.552 134.627 120.088 134.973C119.624 135.314 119.274 135.792 119.037 136.408C118.8 137.018 118.682 137.731 118.682 138.545ZM130.898 137.438V144H129.222V129.455H130.898V134.795H131.04C131.295 134.232 131.679 133.785 132.19 133.453C132.706 133.117 133.393 132.949 134.25 132.949C134.993 132.949 135.644 133.098 136.203 133.396C136.762 133.69 137.195 134.142 137.503 134.753C137.815 135.359 137.972 136.131 137.972 137.068V144H136.295V137.182C136.295 136.315 136.071 135.645 135.621 135.172C135.176 134.694 134.558 134.455 133.767 134.455C133.218 134.455 132.725 134.571 132.29 134.803C131.859 135.035 131.518 135.373 131.267 135.818C131.021 136.263 130.898 136.803 130.898 137.438ZM145.47 144.227C144.485 144.227 143.621 143.993 142.877 143.524C142.139 143.055 141.561 142.4 141.145 141.557C140.733 140.714 140.527 139.729 140.527 138.602C140.527 137.466 140.733 136.474 141.145 135.626C141.561 134.779 142.139 134.121 142.877 133.652C143.621 133.183 144.485 132.949 145.47 132.949C146.455 132.949 147.316 133.183 148.055 133.652C148.798 134.121 149.376 134.779 149.788 135.626C150.205 136.474 150.413 137.466 150.413 138.602C150.413 139.729 150.205 140.714 149.788 141.557C149.376 142.4 148.798 143.055 148.055 143.524C147.316 143.993 146.455 144.227 145.47 144.227ZM145.47 142.722C146.218 142.722 146.833 142.53 147.316 142.146C147.799 141.763 148.157 141.259 148.389 140.634C148.621 140.009 148.737 139.331 148.737 138.602C148.737 137.873 148.621 137.194 148.389 136.564C148.157 135.934 147.799 135.425 147.316 135.037C146.833 134.649 146.218 134.455 145.47 134.455C144.722 134.455 144.106 134.649 143.623 135.037C143.14 135.425 142.783 135.934 142.551 136.564C142.319 137.194 142.203 137.873 142.203 138.602C142.203 139.331 142.319 140.009 142.551 140.634C142.783 141.259 143.14 141.763 143.623 142.146C144.106 142.53 144.722 142.722 145.47 142.722ZM157.716 133.091V134.511H152.062V133.091H157.716ZM153.71 130.477H155.386V140.875C155.386 141.348 155.455 141.704 155.592 141.94C155.734 142.172 155.914 142.329 156.132 142.409C156.355 142.485 156.589 142.523 156.835 142.523C157.02 142.523 157.171 142.513 157.29 142.494C157.408 142.471 157.503 142.452 157.574 142.438L157.915 143.943C157.801 143.986 157.643 144.028 157.439 144.071C157.235 144.118 156.977 144.142 156.665 144.142C156.191 144.142 155.727 144.04 155.273 143.837C154.823 143.633 154.449 143.323 154.151 142.906C153.857 142.49 153.71 141.964 153.71 141.33V130.477ZM164.552 144.227C163.567 144.227 162.703 143.993 161.96 143.524C161.221 143.055 160.643 142.4 160.227 141.557C159.815 140.714 159.609 139.729 159.609 138.602C159.609 137.466 159.815 136.474 160.227 135.626C160.643 134.779 161.221 134.121 161.96 133.652C162.703 133.183 163.567 132.949 164.552 132.949C165.537 132.949 166.398 133.183 167.137 133.652C167.88 134.121 168.458 134.779 168.87 135.626C169.287 136.474 169.495 137.466 169.495 138.602C169.495 139.729 169.287 140.714 168.87 141.557C168.458 142.4 167.88 143.055 167.137 143.524C166.398 143.993 165.537 144.227 164.552 144.227ZM164.552 142.722C165.3 142.722 165.915 142.53 166.398 142.146C166.881 141.763 167.239 141.259 167.471 140.634C167.703 140.009 167.819 139.331 167.819 138.602C167.819 137.873 167.703 137.194 167.471 136.564C167.239 135.934 166.881 135.425 166.398 135.037C165.915 134.649 165.3 134.455 164.552 134.455C163.804 134.455 163.188 134.649 162.705 135.037C162.222 135.425 161.865 135.934 161.633 136.564C161.401 137.194 161.285 137.873 161.285 138.602C161.285 139.331 161.401 140.009 161.633 140.634C161.865 141.259 162.222 141.763 162.705 142.146C163.188 142.53 163.804 142.722 164.552 142.722ZM179.781 135.534L178.275 135.96C178.181 135.709 178.041 135.465 177.856 135.229C177.676 134.987 177.43 134.788 177.118 134.632C176.805 134.476 176.405 134.398 175.917 134.398C175.25 134.398 174.693 134.552 174.248 134.859C173.808 135.162 173.588 135.548 173.588 136.017C173.588 136.434 173.739 136.763 174.042 137.004C174.345 137.246 174.819 137.447 175.463 137.608L177.082 138.006C178.057 138.242 178.784 138.605 179.262 139.092C179.741 139.575 179.98 140.198 179.98 140.96C179.98 141.585 179.8 142.144 179.44 142.636C179.085 143.129 178.588 143.517 177.949 143.801C177.309 144.085 176.566 144.227 175.718 144.227C174.606 144.227 173.685 143.986 172.956 143.503C172.226 143.02 171.765 142.314 171.571 141.386L173.162 140.989C173.313 141.576 173.6 142.016 174.021 142.31C174.447 142.603 175.003 142.75 175.69 142.75C176.471 142.75 177.092 142.584 177.551 142.253C178.015 141.917 178.247 141.514 178.247 141.045C178.247 140.667 178.114 140.349 177.849 140.094C177.584 139.833 177.177 139.639 176.627 139.511L174.809 139.085C173.81 138.848 173.076 138.482 172.608 137.984C172.144 137.482 171.912 136.855 171.912 136.102C171.912 135.487 172.084 134.942 172.43 134.469C172.78 133.995 173.256 133.624 173.858 133.354C174.464 133.084 175.15 132.949 175.917 132.949C176.997 132.949 177.844 133.186 178.46 133.659C179.08 134.133 179.52 134.758 179.781 135.534ZM185.003 142.011L184.889 142.778C184.809 143.318 184.686 143.896 184.52 144.511C184.359 145.127 184.191 145.707 184.016 146.251C183.84 146.796 183.696 147.229 183.582 147.551H182.304C182.366 147.248 182.446 146.848 182.545 146.351C182.645 145.854 182.744 145.297 182.844 144.682C182.948 144.071 183.033 143.446 183.099 142.807L183.185 142.011H185.003ZM193.961 144V129.455H195.637V134.824H195.779C195.902 134.634 196.072 134.393 196.29 134.099C196.513 133.801 196.83 133.536 197.242 133.304C197.658 133.067 198.222 132.949 198.932 132.949C199.851 132.949 200.66 133.179 201.361 133.638C202.062 134.097 202.609 134.748 203.002 135.591C203.395 136.434 203.591 137.428 203.591 138.574C203.591 139.729 203.395 140.731 203.002 141.578C202.609 142.421 202.064 143.074 201.368 143.538C200.672 143.998 199.87 144.227 198.961 144.227C198.26 144.227 197.699 144.111 197.277 143.879C196.856 143.643 196.532 143.375 196.304 143.077C196.077 142.774 195.902 142.523 195.779 142.324H195.58V144H193.961ZM195.608 138.545C195.608 139.369 195.729 140.096 195.971 140.726C196.212 141.351 196.565 141.841 197.029 142.196C197.493 142.546 198.061 142.722 198.733 142.722C199.434 142.722 200.019 142.537 200.488 142.168C200.961 141.794 201.316 141.292 201.553 140.662C201.794 140.027 201.915 139.322 201.915 138.545C201.915 137.778 201.797 137.087 201.56 136.472C201.328 135.851 200.975 135.361 200.502 135.001C200.033 134.637 199.444 134.455 198.733 134.455C198.051 134.455 197.479 134.627 197.015 134.973C196.551 135.314 196.2 135.792 195.963 136.408C195.727 137.018 195.608 137.731 195.608 138.545ZM206.155 144V133.091H207.831V144H206.155ZM207.007 131.273C206.681 131.273 206.399 131.161 206.162 130.939C205.93 130.716 205.814 130.449 205.814 130.136C205.814 129.824 205.93 129.556 206.162 129.334C206.399 129.111 206.681 129 207.007 129C207.334 129 207.614 129.111 207.846 129.334C208.082 129.556 208.201 129.824 208.201 130.136C208.201 130.449 208.082 130.716 207.846 130.939C207.614 131.161 207.334 131.273 207.007 131.273ZM215.333 144.227C214.348 144.227 213.484 143.993 212.741 143.524C212.002 143.055 211.424 142.4 211.008 141.557C210.596 140.714 210.39 139.729 210.39 138.602C210.39 137.466 210.596 136.474 211.008 135.626C211.424 134.779 212.002 134.121 212.741 133.652C213.484 133.183 214.348 132.949 215.333 132.949C216.318 132.949 217.18 133.183 217.918 133.652C218.662 134.121 219.239 134.779 219.651 135.626C220.068 136.474 220.276 137.466 220.276 138.602C220.276 139.729 220.068 140.714 219.651 141.557C219.239 142.4 218.662 143.055 217.918 143.524C217.18 143.993 216.318 144.227 215.333 144.227ZM215.333 142.722C216.081 142.722 216.697 142.53 217.18 142.146C217.663 141.763 218.02 141.259 218.252 140.634C218.484 140.009 218.6 139.331 218.6 138.602C218.6 137.873 218.484 137.194 218.252 136.564C218.02 135.934 217.663 135.425 217.18 135.037C216.697 134.649 216.081 134.455 215.333 134.455C214.585 134.455 213.969 134.649 213.487 135.037C213.004 135.425 212.646 135.934 212.414 136.564C212.182 137.194 212.066 137.873 212.066 138.602C212.066 139.331 212.182 140.009 212.414 140.634C212.646 141.259 213.004 141.763 213.487 142.146C213.969 142.53 214.585 142.722 215.333 142.722ZM230.562 135.534L229.056 135.96C228.962 135.709 228.822 135.465 228.637 135.229C228.458 134.987 228.211 134.788 227.899 134.632C227.586 134.476 227.186 134.398 226.699 134.398C226.031 134.398 225.475 134.552 225.029 134.859C224.589 135.162 224.369 135.548 224.369 136.017C224.369 136.434 224.52 136.763 224.824 137.004C225.127 137.246 225.6 137.447 226.244 137.608L227.863 138.006C228.839 138.242 229.565 138.605 230.044 139.092C230.522 139.575 230.761 140.198 230.761 140.96C230.761 141.585 230.581 142.144 230.221 142.636C229.866 143.129 229.369 143.517 228.73 143.801C228.091 144.085 227.347 144.227 226.5 144.227C225.387 144.227 224.466 143.986 223.737 143.503C223.008 143.02 222.546 142.314 222.352 141.386L223.943 140.989C224.094 141.576 224.381 142.016 224.802 142.31C225.228 142.603 225.785 142.75 226.471 142.75C227.252 142.75 227.873 142.584 228.332 142.253C228.796 141.917 229.028 141.514 229.028 141.045C229.028 140.667 228.895 140.349 228.63 140.094C228.365 139.833 227.958 139.639 227.409 139.511L225.591 139.085C224.592 138.848 223.858 138.482 223.389 137.984C222.925 137.482 222.693 136.855 222.693 136.102C222.693 135.487 222.866 134.942 223.211 134.469C223.562 133.995 224.038 133.624 224.639 133.354C225.245 133.084 225.931 132.949 226.699 132.949C227.778 132.949 228.626 133.186 229.241 133.659C229.861 134.133 230.302 134.758 230.562 135.534ZM235.784 142.011L235.67 142.778C235.59 143.318 235.467 143.896 235.301 144.511C235.14 145.127 234.972 145.707 234.797 146.251C234.622 146.796 234.477 147.229 234.364 147.551H233.085C233.147 147.248 233.227 146.848 233.327 146.351C233.426 145.854 233.526 145.297 233.625 144.682C233.729 144.071 233.814 143.446 233.881 142.807L233.966 142.011H235.784ZM247.725 144.256C247.033 144.256 246.406 144.125 245.843 143.865C245.279 143.6 244.832 143.219 244.5 142.722C244.169 142.22 244.003 141.614 244.003 140.903C244.003 140.278 244.126 139.772 244.373 139.384C244.619 138.991 244.948 138.683 245.36 138.46C245.772 138.238 246.226 138.072 246.723 137.963C247.225 137.849 247.73 137.759 248.236 137.693C248.899 137.608 249.436 137.544 249.848 137.501C250.265 137.454 250.568 137.376 250.757 137.267C250.952 137.158 251.049 136.969 251.049 136.699V136.642C251.049 135.941 250.857 135.397 250.473 135.009C250.095 134.62 249.519 134.426 248.748 134.426C247.947 134.426 247.32 134.601 246.865 134.952C246.411 135.302 246.091 135.676 245.907 136.074L244.316 135.506C244.6 134.843 244.979 134.327 245.452 133.957C245.93 133.583 246.451 133.323 247.015 133.176C247.583 133.025 248.141 132.949 248.691 132.949C249.041 132.949 249.444 132.991 249.898 133.077C250.357 133.157 250.8 133.325 251.226 133.581C251.657 133.837 252.015 134.223 252.299 134.739C252.583 135.255 252.725 135.946 252.725 136.812V144H251.049V142.523H250.963C250.85 142.759 250.66 143.013 250.395 143.283C250.13 143.553 249.777 143.782 249.337 143.972C248.897 144.161 248.359 144.256 247.725 144.256ZM247.98 142.75C248.643 142.75 249.202 142.62 249.657 142.359C250.116 142.099 250.462 141.763 250.694 141.351C250.93 140.939 251.049 140.506 251.049 140.051V138.517C250.978 138.602 250.821 138.68 250.58 138.751C250.343 138.818 250.069 138.877 249.756 138.929C249.448 138.976 249.148 139.019 248.854 139.057C248.565 139.09 248.331 139.118 248.151 139.142C247.715 139.199 247.308 139.291 246.929 139.419C246.555 139.542 246.252 139.729 246.02 139.98C245.793 140.226 245.679 140.562 245.679 140.989C245.679 141.571 245.895 142.011 246.326 142.31C246.761 142.603 247.313 142.75 247.98 142.75ZM257.46 137.438V144H255.784V133.091H257.403V134.795H257.545C257.801 134.241 258.189 133.796 258.71 133.46C259.231 133.119 259.903 132.949 260.727 132.949C261.466 132.949 262.112 133.1 262.666 133.403C263.22 133.702 263.651 134.156 263.959 134.767C264.267 135.373 264.42 136.14 264.42 137.068V144H262.744V137.182C262.744 136.325 262.522 135.657 262.077 135.179C261.632 134.696 261.021 134.455 260.244 134.455C259.709 134.455 259.231 134.571 258.81 134.803C258.393 135.035 258.064 135.373 257.822 135.818C257.581 136.263 257.46 136.803 257.46 137.438ZM271.603 144.227C270.694 144.227 269.891 143.998 269.195 143.538C268.499 143.074 267.954 142.421 267.561 141.578C267.168 140.731 266.972 139.729 266.972 138.574C266.972 137.428 267.168 136.434 267.561 135.591C267.954 134.748 268.501 134.097 269.202 133.638C269.903 133.179 270.712 132.949 271.631 132.949C272.341 132.949 272.902 133.067 273.314 133.304C273.731 133.536 274.048 133.801 274.266 134.099C274.489 134.393 274.661 134.634 274.784 134.824H274.926V129.455H276.603V144H274.983V142.324H274.784C274.661 142.523 274.486 142.774 274.259 143.077C274.032 143.375 273.707 143.643 273.286 143.879C272.864 144.111 272.303 144.227 271.603 144.227ZM271.83 142.722C272.502 142.722 273.07 142.546 273.534 142.196C273.998 141.841 274.351 141.351 274.593 140.726C274.834 140.096 274.955 139.369 274.955 138.545C274.955 137.731 274.837 137.018 274.6 136.408C274.363 135.792 274.013 135.314 273.549 134.973C273.085 134.627 272.512 134.455 271.83 134.455C271.12 134.455 270.528 134.637 270.054 135.001C269.586 135.361 269.233 135.851 268.996 136.472C268.764 137.087 268.648 137.778 268.648 138.545C268.648 139.322 268.766 140.027 269.003 140.662C269.245 141.292 269.6 141.794 270.069 142.168C270.542 142.537 271.129 142.722 271.83 142.722ZM294.451 133.091L290.417 144H288.712L284.678 133.091H286.496L289.507 141.784H289.621L292.632 133.091H294.451ZM296.663 144V133.091H298.339V144H296.663ZM297.515 131.273C297.189 131.273 296.907 131.161 296.67 130.939C296.438 130.716 296.322 130.449 296.322 130.136C296.322 129.824 296.438 129.556 296.67 129.334C296.907 129.111 297.189 129 297.515 129C297.842 129 298.121 129.111 298.353 129.334C298.59 129.556 298.708 129.824 298.708 130.136C298.708 130.449 298.59 130.716 298.353 130.939C298.121 131.161 297.842 131.273 297.515 131.273ZM305.528 144.227C304.619 144.227 303.817 143.998 303.121 143.538C302.425 143.074 301.88 142.421 301.487 141.578C301.094 140.731 300.898 139.729 300.898 138.574C300.898 137.428 301.094 136.434 301.487 135.591C301.88 134.748 302.427 134.097 303.128 133.638C303.829 133.179 304.638 132.949 305.557 132.949C306.267 132.949 306.828 133.067 307.24 133.304C307.657 133.536 307.974 133.801 308.192 134.099C308.414 134.393 308.587 134.634 308.71 134.824H308.852V129.455H310.528V144H308.909V142.324H308.71C308.587 142.523 308.412 142.774 308.185 143.077C307.957 143.375 307.633 143.643 307.212 143.879C306.79 144.111 306.229 144.227 305.528 144.227ZM305.756 142.722C306.428 142.722 306.996 142.546 307.46 142.196C307.924 141.841 308.277 141.351 308.518 140.726C308.76 140.096 308.881 139.369 308.881 138.545C308.881 137.731 308.762 137.018 308.526 136.408C308.289 135.792 307.938 135.314 307.474 134.973C307.01 134.627 306.438 134.455 305.756 134.455C305.045 134.455 304.454 134.637 303.98 135.001C303.511 135.361 303.159 135.851 302.922 136.472C302.69 137.087 302.574 137.778 302.574 138.545C302.574 139.322 302.692 140.027 302.929 140.662C303.17 141.292 303.526 141.794 303.994 142.168C304.468 142.537 305.055 142.722 305.756 142.722ZM318.405 144.227C317.354 144.227 316.447 143.995 315.685 143.531C314.927 143.062 314.342 142.409 313.93 141.571C313.523 140.728 313.32 139.748 313.32 138.631C313.32 137.513 313.523 136.528 313.93 135.676C314.342 134.819 314.915 134.152 315.649 133.673C316.388 133.19 317.25 132.949 318.234 132.949C318.803 132.949 319.364 133.044 319.918 133.233C320.472 133.422 320.976 133.73 321.43 134.156C321.885 134.578 322.247 135.136 322.517 135.832C322.787 136.528 322.922 137.385 322.922 138.403V139.114H314.513V137.665H321.217C321.217 137.049 321.094 136.5 320.848 136.017C320.607 135.534 320.261 135.153 319.811 134.874C319.366 134.594 318.84 134.455 318.234 134.455C317.567 134.455 316.989 134.62 316.501 134.952C316.018 135.278 315.647 135.705 315.386 136.23C315.126 136.756 314.996 137.319 314.996 137.92V138.886C314.996 139.71 315.138 140.409 315.422 140.982C315.711 141.55 316.111 141.983 316.622 142.281C317.134 142.575 317.728 142.722 318.405 142.722C318.845 142.722 319.243 142.66 319.598 142.537C319.958 142.409 320.268 142.22 320.528 141.969C320.789 141.713 320.99 141.396 321.132 141.017L322.751 141.472C322.581 142.021 322.295 142.504 321.892 142.92C321.49 143.332 320.992 143.654 320.401 143.886C319.809 144.114 319.143 144.227 318.405 144.227ZM329.903 144.227C328.919 144.227 328.054 143.993 327.311 143.524C326.572 143.055 325.995 142.4 325.578 141.557C325.166 140.714 324.96 139.729 324.96 138.602C324.96 137.466 325.166 136.474 325.578 135.626C325.995 134.779 326.572 134.121 327.311 133.652C328.054 133.183 328.919 132.949 329.903 132.949C330.888 132.949 331.75 133.183 332.489 133.652C333.232 134.121 333.81 134.779 334.222 135.626C334.638 136.474 334.847 137.466 334.847 138.602C334.847 139.729 334.638 140.714 334.222 141.557C333.81 142.4 333.232 143.055 332.489 143.524C331.75 143.993 330.888 144.227 329.903 144.227ZM329.903 142.722C330.652 142.722 331.267 142.53 331.75 142.146C332.233 141.763 332.59 141.259 332.822 140.634C333.054 140.009 333.17 139.331 333.17 138.602C333.17 137.873 333.054 137.194 332.822 136.564C332.59 135.934 332.233 135.425 331.75 135.037C331.267 134.649 330.652 134.455 329.903 134.455C329.155 134.455 328.54 134.649 328.057 135.037C327.574 135.425 327.216 135.934 326.984 136.564C326.752 137.194 326.636 137.873 326.636 138.602C326.636 139.331 326.752 140.009 326.984 140.634C327.216 141.259 327.574 141.763 328.057 142.146C328.54 142.53 329.155 142.722 329.903 142.722ZM345.132 135.534L343.627 135.96C343.532 135.709 343.392 135.465 343.208 135.229C343.028 134.987 342.782 134.788 342.469 134.632C342.157 134.476 341.757 134.398 341.269 134.398C340.601 134.398 340.045 134.552 339.6 134.859C339.159 135.162 338.939 135.548 338.939 136.017C338.939 136.434 339.091 136.763 339.394 137.004C339.697 137.246 340.17 137.447 340.814 137.608L342.434 138.006C343.409 138.242 344.136 138.605 344.614 139.092C345.092 139.575 345.331 140.198 345.331 140.96C345.331 141.585 345.151 142.144 344.792 142.636C344.436 143.129 343.939 143.517 343.3 143.801C342.661 144.085 341.917 144.227 341.07 144.227C339.957 144.227 339.036 143.986 338.307 143.503C337.578 143.02 337.116 142.314 336.922 141.386L338.513 140.989C338.665 141.576 338.951 142.016 339.373 142.31C339.799 142.603 340.355 142.75 341.042 142.75C341.823 142.75 342.443 142.584 342.902 142.253C343.366 141.917 343.598 141.514 343.598 141.045C343.598 140.667 343.466 140.349 343.201 140.094C342.935 139.833 342.528 139.639 341.979 139.511L340.161 139.085C339.162 138.848 338.428 138.482 337.959 137.984C337.495 137.482 337.263 136.855 337.263 136.102C337.263 135.487 337.436 134.942 337.782 134.469C338.132 133.995 338.608 133.624 339.209 133.354C339.815 133.084 340.502 132.949 341.269 132.949C342.348 132.949 343.196 133.186 343.811 133.659C344.432 134.133 344.872 134.758 345.132 135.534ZM349.076 144.114C348.726 144.114 348.425 143.988 348.174 143.737C347.923 143.486 347.798 143.186 347.798 142.835C347.798 142.485 347.923 142.184 348.174 141.933C348.425 141.682 348.726 141.557 349.076 141.557C349.426 141.557 349.727 141.682 349.978 141.933C350.229 142.184 350.354 142.485 350.354 142.835C350.354 143.067 350.295 143.28 350.177 143.474C350.063 143.669 349.909 143.825 349.715 143.943C349.526 144.057 349.313 144.114 349.076 144.114Z" fill="white"/>
<g filter="url(#filter1_ddd_285_703)">
<rect x="20" y="192" width="336" height="297" rx="12" fill="#020817"/>
<rect x="20" y="192" width="336" height="297" rx="12" fill="url(#paint0_linear_285_703)" fill-opacity="0.62"/>
</g>
<defs>
<filter id="filter1_ddd_285_703" x="17.5177" y="191.504" width="340.965" height="301.965" filterUnits="userSpaceOnUse" color-interpolation-filters="sRGB">
<feFlood flood-opacity="0" result="BackgroundImageFix"/>
<feColorMatrix in="SourceAlpha" type="matrix" values="0 0 0 0 0 0 0 0 0 0 0 0 0 0 0 0 0 0 127 0" result="hardAlpha"/>
<feMorphology radius="0.496466" operator="dilate" in="SourceAlpha" result="effect1_dropShadow_285_703"/>
<feOffset/>
<feColorMatrix type="matrix" values="0 0 0 0 0 0 0 0 0 0 0 0 0 0 0 0 0 0 0.05 0"/>
<feBlend mode="normal" in2="BackgroundImageFix" result="effect1_dropShadow_285_703"/>
<feColorMatrix in="SourceAlpha" type="matrix" values="0 0 0 0 0 0 0 0 0 0 0 0 0 0 0 0 0 0 127 0" result="hardAlpha"/>
<feMorphology radius="0.496466" operator="erode" in="SourceAlpha" result="effect2_dropShadow_285_703"/>
<feOffset dy="0.992932"/>
<feGaussianBlur stdDeviation="0.992932"/>
<feColorMatrix type="matrix" values="0 0 0 0 0 0 0 0 0 0 0 0 0 0 0 0 0 0 0.06 0"/>
<feBlend mode="normal" in2="effect1_dropShadow_285_703" result="effect2_dropShadow_285_703"/>
<feColorMatrix in="SourceAlpha" type="matrix" values="0 0 0 0 0 0 0 0 0 0 0 0 0 0 0 0 0 0 127 0" result="hardAlpha"/>
<feMorphology radius="0.496466" operator="erode" in="SourceAlpha" result="effect3_dropShadow_285_703"/>
<feOffset dy="1.98586"/>
<feGaussianBlur stdDeviation="1.4894"/>
<feColorMatrix type="matrix" values="0 0 0 0 0 0 0 0 0 0 0 0 0 0 0 0 0 0 0.1 0"/>
<feBlend mode="normal" in2="effect2_dropShadow_285_703" result="effect3_dropShadow_285_703"/>
<feBlend mode="normal" in="SourceGraphic" in2="effect3_dropShadow_285_703" result="shape"/>
</filter>
<linearGradient id="paint0_linear_285_703" x1="183.692" y1="192" x2="284.867" y2="449.202" gradientUnits="userSpaceOnUse">
<stop stop-color="#D8B4FE"/>
<stop offset="1" stop-color="#B457E0"/>
</linearGradient>
</defs>
</svg>
