<svg width="376" height="529" viewBox="0 0 376 529" fill="none" xmlns="http://www.w3.org/2000/svg">
<rect width="376" height="529" rx="40" fill="#020817"/>
<path d="M68.5341 57.8182H60.5227C60.4659 57.1553 60.3144 56.554 60.0682 56.0142C59.8314 55.4744 59.5 55.0104 59.0739 54.6222C58.6572 54.2244 58.1506 53.9214 57.554 53.7131C56.9574 53.4953 56.2803 53.3864 55.5227 53.3864C54.197 53.3864 53.0748 53.7083 52.1562 54.3523C51.2472 54.9962 50.5559 55.9195 50.0824 57.1222C49.6184 58.3248 49.3864 59.7689 49.3864 61.4545C49.3864 63.2348 49.6231 64.7263 50.0966 65.929C50.5795 67.1222 51.2756 68.0218 52.1847 68.6278C53.0938 69.2244 54.1875 69.5227 55.4659 69.5227C56.1951 69.5227 56.8485 69.4328 57.4261 69.2528C58.0038 69.0634 58.5057 68.7936 58.9318 68.4432C59.358 68.0928 59.7036 67.6714 59.9688 67.179C60.2434 66.6771 60.428 66.1136 60.5227 65.4886L68.5341 65.5455C68.4394 66.7765 68.0938 68.0312 67.4972 69.3097C66.9006 70.5786 66.053 71.7528 64.9545 72.8324C63.8655 73.9025 62.5161 74.7642 60.9062 75.4176C59.2964 76.071 57.4261 76.3977 55.2955 76.3977C52.625 76.3977 50.2292 75.8248 48.108 74.679C45.9962 73.5331 44.3248 71.8475 43.0938 69.6222C41.8722 67.3968 41.2614 64.6742 41.2614 61.4545C41.2614 58.2159 41.8864 55.4886 43.1364 53.2727C44.3864 51.0473 46.072 49.3665 48.1932 48.2301C50.3144 47.0843 52.6818 46.5114 55.2955 46.5114C57.1326 46.5114 58.8229 46.7623 60.3665 47.2642C61.91 47.7661 63.2642 48.5 64.429 49.4659C65.5938 50.4223 66.5313 51.6013 67.2415 53.0028C67.9517 54.4044 68.3826 56.0095 68.5341 57.8182ZM86.3786 66.4545V54.1818H94.2195V76H86.7763V71.8523H86.549C86.0755 73.2443 85.2469 74.3333 84.0632 75.1193C82.8795 75.8958 81.4732 76.2841 79.8445 76.2841C78.3198 76.2841 76.9846 75.9337 75.8388 75.233C74.7024 74.5322 73.817 73.5663 73.1825 72.3352C72.5575 71.1042 72.2403 69.6932 72.2308 68.1023V54.1818H80.0717V66.4545C80.0812 67.5341 80.3558 68.3816 80.8956 68.9972C81.4448 69.6127 82.2119 69.9205 83.1967 69.9205C83.8501 69.9205 84.4136 69.7831 84.8871 69.5085C85.37 69.2244 85.7393 68.8267 85.995 68.3153C86.2602 67.7945 86.388 67.1742 86.3786 66.4545ZM118.151 61.2841H110.935C110.897 60.839 110.741 60.4555 110.466 60.1335C110.191 59.8116 109.836 59.5653 109.401 59.3949C108.974 59.215 108.501 59.125 107.98 59.125C107.308 59.125 106.73 59.2481 106.247 59.4943C105.764 59.7405 105.527 60.0909 105.537 60.5455C105.527 60.8674 105.665 61.1657 105.949 61.4403C106.242 61.715 106.806 61.928 107.639 62.0795L112.071 62.875C114.306 63.2822 115.968 63.9687 117.057 64.9347C118.155 65.8911 118.709 67.1742 118.719 68.7841C118.709 70.3371 118.245 71.6866 117.327 72.8324C116.418 73.9687 115.172 74.8494 113.591 75.4744C112.019 76.09 110.224 76.3977 108.207 76.3977C104.874 76.3977 102.265 75.7159 100.381 74.3523C98.5057 72.9886 97.4593 71.1894 97.2415 68.9545H105.026C105.13 69.6458 105.471 70.1809 106.048 70.5597C106.635 70.929 107.374 71.1136 108.264 71.1136C108.984 71.1136 109.576 70.9905 110.04 70.7443C110.513 70.4981 110.755 70.1477 110.764 69.6932C110.755 69.2765 110.546 68.9451 110.139 68.6989C109.741 68.4527 109.116 68.2538 108.264 68.1023L104.401 67.4205C102.175 67.0322 100.509 66.2936 99.4006 65.2045C98.2926 64.1155 97.7434 62.714 97.7528 61C97.7434 59.4848 98.1411 58.2017 98.946 57.1506C99.7604 56.09 100.92 55.285 102.426 54.7358C103.941 54.1771 105.736 53.8977 107.81 53.8977C110.963 53.8977 113.449 54.5511 115.267 55.858C117.095 57.1648 118.056 58.9735 118.151 61.2841ZM134.734 54.1818V59.8636H120.359V54.1818H134.734ZM123.143 48.9545H130.984V68.983C130.984 69.286 131.036 69.5417 131.141 69.75C131.245 69.9489 131.406 70.1004 131.624 70.2045C131.841 70.2992 132.121 70.3466 132.462 70.3466C132.698 70.3466 132.973 70.3182 133.286 70.2614C133.607 70.2045 133.844 70.1572 133.996 70.1193L135.132 75.6307C134.782 75.7348 134.28 75.8627 133.626 76.0142C132.982 76.1657 132.215 76.2652 131.325 76.3125C129.526 76.4072 128.016 76.2225 126.794 75.7585C125.572 75.285 124.654 74.5417 124.038 73.5284C123.423 72.5152 123.125 71.2462 123.143 69.7216V48.9545ZM148.211 76.3977C145.844 76.3977 143.817 75.929 142.131 74.9915C140.446 74.0445 139.153 72.7282 138.254 71.0426C137.354 69.3475 136.904 67.3826 136.904 65.1477C136.904 62.9129 137.354 60.9527 138.254 59.267C139.153 57.572 140.446 56.2557 142.131 55.3182C143.817 54.3712 145.844 53.8977 148.211 53.8977C150.578 53.8977 152.605 54.3712 154.29 55.3182C155.976 56.2557 157.269 57.572 158.168 59.267C159.068 60.9527 159.518 62.9129 159.518 65.1477C159.518 67.3826 159.068 69.3475 158.168 71.0426C157.269 72.7282 155.976 74.0445 154.29 74.9915C152.605 75.929 150.578 76.3977 148.211 76.3977ZM148.268 70.6023C148.931 70.6023 149.504 70.3797 149.987 69.9347C150.469 69.4896 150.844 68.8551 151.109 68.0312C151.374 67.2074 151.506 66.2273 151.506 65.0909C151.506 63.9451 151.374 62.965 151.109 62.1506C150.844 61.3267 150.469 60.6922 149.987 60.2472C149.504 59.8021 148.931 59.5795 148.268 59.5795C147.567 59.5795 146.966 59.8021 146.464 60.2472C145.962 60.6922 145.578 61.3267 145.313 62.1506C145.048 62.965 144.915 63.9451 144.915 65.0909C144.915 66.2273 145.048 67.2074 145.313 68.0312C145.578 68.8551 145.962 69.4896 146.464 69.9347C146.966 70.3797 147.567 70.6023 148.268 70.6023ZM162.7 76V54.1818H170.143V58.3295H170.37C170.825 56.9659 171.601 55.8864 172.7 55.0909C173.798 54.2955 175.105 53.8977 176.62 53.8977C178.154 53.8977 179.475 54.3049 180.583 55.1193C181.691 55.9242 182.359 56.9943 182.586 58.3295H182.813C183.183 56.9943 183.969 55.9242 185.171 55.1193C186.374 54.3049 187.785 53.8977 189.404 53.8977C191.497 53.8977 193.192 54.5701 194.489 55.9148C195.796 57.2595 196.45 59.0492 196.45 61.2841V76H188.609V63.2727C188.609 62.3163 188.367 61.5682 187.884 61.0284C187.401 60.4792 186.753 60.2045 185.938 60.2045C185.133 60.2045 184.494 60.4792 184.021 61.0284C183.557 61.5682 183.325 62.3163 183.325 63.2727V76H175.825V63.2727C175.825 62.3163 175.583 61.5682 175.1 61.0284C174.617 60.4792 173.969 60.2045 173.154 60.2045C172.614 60.2045 172.15 60.3277 171.762 60.5739C171.374 60.8201 171.071 61.1752 170.853 61.6392C170.645 62.0937 170.54 62.6383 170.54 63.2727V76H162.7ZM200.317 76V54.1818H208.158V76H200.317ZM204.237 51.9091C203.177 51.9091 202.268 51.5587 201.51 50.858C200.752 50.1572 200.374 49.3144 200.374 48.3295C200.374 47.3447 200.752 46.5019 201.51 45.8011C202.268 45.1004 203.177 44.75 204.237 44.75C205.307 44.75 206.216 45.1004 206.964 45.8011C207.722 46.5019 208.101 47.3447 208.101 48.3295C208.101 49.3144 207.722 50.1572 206.964 50.858C206.216 51.5587 205.307 51.9091 204.237 51.9091ZM212.38 76V71.6818L221.925 60.2614V60.1477H212.721V54.1818H231.187V58.9545L222.494 69.9205V70.0341H231.528V76H212.38ZM241.943 76.3409C240.551 76.3409 239.32 76.1136 238.25 75.6591C237.189 75.1951 236.356 74.4943 235.75 73.5568C235.144 72.6193 234.841 71.4261 234.841 69.9773C234.841 68.7841 235.045 67.7661 235.452 66.9233C235.859 66.071 236.427 65.375 237.156 64.8352C237.885 64.2955 238.733 63.8835 239.699 63.5994C240.674 63.3153 241.725 63.1307 242.852 63.0455C244.074 62.9508 245.054 62.8371 245.793 62.7045C246.541 62.5625 247.08 62.3684 247.412 62.1222C247.743 61.8665 247.909 61.5303 247.909 61.1136V61.0568C247.909 60.4886 247.691 60.053 247.256 59.75C246.82 59.447 246.261 59.2955 245.58 59.2955C244.831 59.2955 244.221 59.4612 243.747 59.7926C243.283 60.1146 243.004 60.6117 242.909 61.2841H235.693C235.788 59.9583 236.209 58.7367 236.957 57.6193C237.715 56.4924 238.818 55.5928 240.267 54.9205C241.716 54.2386 243.525 53.8977 245.693 53.8977C247.256 53.8977 248.657 54.0824 249.898 54.4517C251.138 54.8116 252.194 55.3182 253.065 55.9716C253.937 56.6155 254.599 57.3731 255.054 58.2443C255.518 59.1061 255.75 60.0436 255.75 61.0568V76H248.42V72.9318H248.25C247.814 73.7462 247.284 74.4044 246.659 74.9062C246.044 75.4081 245.338 75.7727 244.543 76C243.757 76.2273 242.89 76.3409 241.943 76.3409ZM244.5 71.3977C245.097 71.3977 245.655 71.2746 246.176 71.0284C246.706 70.7822 247.137 70.4271 247.469 69.9631C247.8 69.4991 247.966 68.9356 247.966 68.2727V66.4545C247.758 66.5398 247.535 66.6203 247.298 66.696C247.071 66.7718 246.825 66.8428 246.56 66.9091C246.304 66.9754 246.029 67.0369 245.736 67.0938C245.452 67.1506 245.153 67.2027 244.841 67.25C244.235 67.3447 243.738 67.5009 243.349 67.7188C242.971 67.9271 242.687 68.1875 242.497 68.5C242.317 68.803 242.227 69.1439 242.227 69.5227C242.227 70.1288 242.44 70.5928 242.866 70.9148C243.293 71.2367 243.837 71.3977 244.5 71.3977ZM272.508 54.1818V59.8636H258.133V54.1818H272.508ZM260.917 48.9545H268.758V68.983C268.758 69.286 268.81 69.5417 268.914 69.75C269.018 69.9489 269.179 70.1004 269.397 70.2045C269.615 70.2992 269.894 70.3466 270.235 70.3466C270.472 70.3466 270.746 70.3182 271.059 70.2614C271.381 70.2045 271.618 70.1572 271.769 70.1193L272.906 75.6307C272.555 75.7348 272.053 75.8627 271.4 76.0142C270.756 76.1657 269.989 76.2652 269.099 76.3125C267.299 76.4072 265.789 76.2225 264.567 75.7585C263.346 75.285 262.427 74.5417 261.812 73.5284C261.196 72.5152 260.898 71.2462 260.917 69.7216V48.9545ZM275.707 76V54.1818H283.548V76H275.707ZM279.628 51.9091C278.567 51.9091 277.658 51.5587 276.901 50.858C276.143 50.1572 275.764 49.3144 275.764 48.3295C275.764 47.3447 276.143 46.5019 276.901 45.8011C277.658 45.1004 278.567 44.75 279.628 44.75C280.698 44.75 281.607 45.1004 282.355 45.8011C283.113 46.5019 283.491 47.3447 283.491 48.3295C283.491 49.3144 283.113 50.1572 282.355 50.858C281.607 51.5587 280.698 51.9091 279.628 51.9091ZM298.055 76.3977C295.687 76.3977 293.661 75.929 291.975 74.9915C290.29 74.0445 288.997 72.7282 288.097 71.0426C287.198 69.3475 286.748 67.3826 286.748 65.1477C286.748 62.9129 287.198 60.9527 288.097 59.267C288.997 57.572 290.29 56.2557 291.975 55.3182C293.661 54.3712 295.687 53.8977 298.055 53.8977C300.422 53.8977 302.449 54.3712 304.134 55.3182C305.82 56.2557 307.112 57.572 308.012 59.267C308.912 60.9527 309.362 62.9129 309.362 65.1477C309.362 67.3826 308.912 69.3475 308.012 71.0426C307.112 72.7282 305.82 74.0445 304.134 74.9915C302.449 75.929 300.422 76.3977 298.055 76.3977ZM298.112 70.6023C298.774 70.6023 299.347 70.3797 299.83 69.9347C300.313 69.4896 300.687 68.8551 300.952 68.0312C301.218 67.2074 301.35 66.2273 301.35 65.0909C301.35 63.9451 301.218 62.965 300.952 62.1506C300.687 61.3267 300.313 60.6922 299.83 60.2472C299.347 59.8021 298.774 59.5795 298.112 59.5795C297.411 59.5795 296.809 59.8021 296.308 60.2472C295.806 60.6922 295.422 61.3267 295.157 62.1506C294.892 62.965 294.759 63.9451 294.759 65.0909C294.759 66.2273 294.892 67.2074 295.157 68.0312C295.422 68.8551 295.806 69.4896 296.308 69.9347C296.809 70.3797 297.411 70.6023 298.112 70.6023ZM320.384 63.7273V76H312.543V54.1818H319.987V58.3295H320.214C320.687 56.947 321.521 55.8627 322.714 55.0767C323.916 54.2907 325.318 53.8977 326.918 53.8977C328.462 53.8977 329.802 54.2528 330.938 54.9631C332.084 55.6638 332.969 56.6297 333.594 57.8608C334.229 59.0919 334.541 60.4981 334.532 62.0795V76H326.691V63.7273C326.701 62.6477 326.426 61.8002 325.867 61.1847C325.318 60.5691 324.551 60.2614 323.566 60.2614C322.922 60.2614 322.359 60.4034 321.876 60.6875C321.402 60.9621 321.038 61.3598 320.782 61.8807C320.526 62.392 320.394 63.0076 320.384 63.7273Z" fill="white"/>
<path d="M30.2745 106H28.5131C28.409 105.493 28.2267 105.048 27.9663 104.665C27.7106 104.281 27.3981 103.959 27.0288 103.699C26.6642 103.434 26.2594 103.235 25.8143 103.102C25.3692 102.97 24.9052 102.903 24.4222 102.903C23.5415 102.903 22.7437 103.126 22.0288 103.571C21.3185 104.016 20.7527 104.672 20.3313 105.538C19.9147 106.405 19.7063 107.468 19.7063 108.727C19.7063 109.987 19.9147 111.05 20.3313 111.916C20.7527 112.783 21.3185 113.438 22.0288 113.884C22.7437 114.329 23.5415 114.551 24.4222 114.551C24.9052 114.551 25.3692 114.485 25.8143 114.352C26.2594 114.22 26.6642 114.023 27.0288 113.763C27.3981 113.498 27.7106 113.173 27.9663 112.79C28.2267 112.402 28.409 111.956 28.5131 111.455H30.2745C30.1419 112.198 29.9005 112.863 29.5501 113.45C29.1997 114.037 28.7641 114.537 28.2433 114.949C27.7224 115.356 27.1377 115.666 26.489 115.879C25.8451 116.092 25.1561 116.199 24.4222 116.199C23.1817 116.199 22.0785 115.896 21.1126 115.29C20.1467 114.684 19.3867 113.822 18.8327 112.705C18.2788 111.587 18.0018 110.261 18.0018 108.727C18.0018 107.193 18.2788 105.867 18.8327 104.75C19.3867 103.633 20.1467 102.771 21.1126 102.165C22.0785 101.559 23.1817 101.256 24.4222 101.256C25.1561 101.256 25.8451 101.362 26.489 101.575C27.1377 101.788 27.7224 102.101 28.2433 102.513C28.7641 102.92 29.1997 103.417 29.5501 104.004C29.9005 104.587 30.1419 105.252 30.2745 106ZM32.8935 116V105.091H34.5128V106.739H34.6264C34.8253 106.199 35.1851 105.761 35.706 105.425C36.2268 105.089 36.8139 104.92 37.4673 104.92C37.5904 104.92 37.7443 104.923 37.929 104.928C38.1136 104.932 38.2533 104.939 38.348 104.949V106.653C38.2912 106.639 38.161 106.618 37.9574 106.589C37.7585 106.556 37.5478 106.54 37.3253 106.54C36.795 106.54 36.3215 106.651 35.9048 106.874C35.4929 107.091 35.1662 107.394 34.9247 107.783C34.688 108.166 34.5696 108.604 34.5696 109.097V116H32.8935ZM44.5767 116.227C43.5256 116.227 42.6188 115.995 41.8565 115.531C41.099 115.062 40.5142 114.409 40.1023 113.571C39.6951 112.728 39.4915 111.748 39.4915 110.631C39.4915 109.513 39.6951 108.528 40.1023 107.676C40.5142 106.819 41.0871 106.152 41.821 105.673C42.5597 105.19 43.4214 104.949 44.4062 104.949C44.9744 104.949 45.5355 105.044 46.0895 105.233C46.6435 105.422 47.1477 105.73 47.6023 106.156C48.0568 106.578 48.419 107.136 48.6889 107.832C48.9588 108.528 49.0938 109.385 49.0938 110.403V111.114H40.6847V109.665H47.3892C47.3892 109.049 47.2661 108.5 47.0199 108.017C46.7784 107.534 46.4328 107.153 45.983 106.874C45.5379 106.594 45.0123 106.455 44.4062 106.455C43.7386 106.455 43.161 106.62 42.6733 106.952C42.1903 107.278 41.8187 107.705 41.5582 108.23C41.2978 108.756 41.1676 109.319 41.1676 109.92V110.886C41.1676 111.71 41.3097 112.409 41.5938 112.982C41.8826 113.55 42.2827 113.983 42.794 114.281C43.3054 114.575 43.8996 114.722 44.5767 114.722C45.017 114.722 45.4148 114.66 45.7699 114.537C46.1297 114.409 46.4399 114.22 46.7003 113.969C46.9607 113.713 47.1619 113.396 47.304 113.017L48.9233 113.472C48.7528 114.021 48.4664 114.504 48.0639 114.92C47.6615 115.332 47.1643 115.654 46.5724 115.886C45.9806 116.114 45.3153 116.227 44.5767 116.227ZM54.8537 116.256C54.1624 116.256 53.535 116.125 52.9716 115.865C52.4081 115.6 51.9607 115.219 51.6293 114.722C51.2978 114.22 51.1321 113.614 51.1321 112.903C51.1321 112.278 51.2552 111.772 51.5014 111.384C51.7476 110.991 52.0767 110.683 52.4886 110.46C52.9006 110.238 53.3551 110.072 53.8523 109.963C54.3542 109.849 54.8584 109.759 55.3651 109.693C56.0279 109.608 56.5653 109.544 56.9773 109.501C57.3939 109.454 57.697 109.376 57.8864 109.267C58.0805 109.158 58.1776 108.969 58.1776 108.699V108.642C58.1776 107.941 57.9858 107.397 57.6023 107.009C57.2235 106.62 56.6482 106.426 55.8764 106.426C55.0762 106.426 54.4489 106.601 53.9943 106.952C53.5398 107.302 53.2202 107.676 53.0355 108.074L51.4446 107.506C51.7287 106.843 52.1075 106.327 52.581 105.957C53.0592 105.583 53.58 105.323 54.1435 105.176C54.7116 105.025 55.2704 104.949 55.8196 104.949C56.17 104.949 56.5724 104.991 57.027 105.077C57.4863 105.157 57.929 105.325 58.3551 105.581C58.786 105.837 59.1435 106.223 59.4276 106.739C59.7116 107.255 59.8537 107.946 59.8537 108.812V116H58.1776V114.523H58.0923C57.9787 114.759 57.7893 115.013 57.5241 115.283C57.259 115.553 56.9063 115.782 56.4659 115.972C56.0256 116.161 55.4882 116.256 54.8537 116.256ZM55.1094 114.75C55.7723 114.75 56.331 114.62 56.7855 114.359C57.2448 114.099 57.5904 113.763 57.8224 113.351C58.0592 112.939 58.1776 112.506 58.1776 112.051V110.517C58.1065 110.602 57.9503 110.68 57.7088 110.751C57.4721 110.818 57.1974 110.877 56.8849 110.929C56.5772 110.976 56.2765 111.019 55.983 111.057C55.6941 111.09 55.4598 111.118 55.2798 111.142C54.8442 111.199 54.437 111.291 54.0582 111.419C53.6842 111.542 53.3812 111.729 53.1491 111.98C52.9219 112.226 52.8082 112.562 52.8082 112.989C52.8082 113.571 53.0237 114.011 53.4545 114.31C53.8902 114.603 54.4418 114.75 55.1094 114.75ZM67.6573 105.091V106.511H62.0039V105.091H67.6573ZM63.6516 102.477H65.3278V112.875C65.3278 113.348 65.3964 113.704 65.5337 113.94C65.6758 114.172 65.8557 114.329 66.0735 114.409C66.296 114.485 66.5304 114.523 66.7766 114.523C66.9613 114.523 67.1128 114.513 67.2312 114.494C67.3496 114.471 67.4442 114.452 67.5153 114.438L67.8562 115.943C67.7425 115.986 67.5839 116.028 67.3803 116.071C67.1767 116.118 66.9187 116.142 66.6062 116.142C66.1327 116.142 65.6687 116.04 65.2141 115.837C64.7643 115.633 64.3903 115.323 64.092 114.906C63.7984 114.49 63.6516 113.964 63.6516 113.33V102.477ZM74.6353 116.227C73.5842 116.227 72.6774 115.995 71.9151 115.531C71.1576 115.062 70.5728 114.409 70.1609 113.571C69.7537 112.728 69.5501 111.748 69.5501 110.631C69.5501 109.513 69.7537 108.528 70.1609 107.676C70.5728 106.819 71.1457 106.152 71.8796 105.673C72.6183 105.19 73.48 104.949 74.4648 104.949C75.033 104.949 75.5941 105.044 76.1481 105.233C76.7021 105.422 77.2063 105.73 77.6609 106.156C78.1154 106.578 78.4776 107.136 78.7475 107.832C79.0174 108.528 79.1523 109.385 79.1523 110.403V111.114H70.7433V109.665H77.4478C77.4478 109.049 77.3247 108.5 77.0785 108.017C76.837 107.534 76.4914 107.153 76.0415 106.874C75.5965 106.594 75.0709 106.455 74.4648 106.455C73.7972 106.455 73.2196 106.62 72.7319 106.952C72.2489 107.278 71.8772 107.705 71.6168 108.23C71.3564 108.756 71.2262 109.319 71.2262 109.92V110.886C71.2262 111.71 71.3683 112.409 71.6523 112.982C71.9412 113.55 72.3413 113.983 72.8526 114.281C73.364 114.575 73.9582 114.722 74.6353 114.722C75.0756 114.722 75.4734 114.66 75.8285 114.537C76.1883 114.409 76.4985 114.22 76.7589 113.969C77.0193 113.713 77.2205 113.396 77.3626 113.017L78.9819 113.472C78.8114 114.021 78.525 114.504 78.1225 114.92C77.7201 115.332 77.2229 115.654 76.631 115.886C76.0392 116.114 75.3739 116.227 74.6353 116.227ZM94.2021 111.54V105.091H95.8782V116H94.2021V114.153H94.0884C93.8327 114.707 93.435 115.179 92.8952 115.567C92.3555 115.95 91.6737 116.142 90.8498 116.142C90.168 116.142 89.5619 115.993 89.0316 115.695C88.5013 115.392 88.0846 114.937 87.7816 114.331C87.4786 113.72 87.3271 112.951 87.3271 112.023V105.091H89.0032V111.909C89.0032 112.705 89.2257 113.339 89.6708 113.812C90.1206 114.286 90.6935 114.523 91.3896 114.523C91.8062 114.523 92.23 114.416 92.6609 114.203C93.0965 113.99 93.4611 113.663 93.7546 113.223C94.0529 112.783 94.2021 112.222 94.2021 111.54ZM100.624 109.438V116H98.9482V105.091H100.567V106.795H100.71C100.965 106.241 101.353 105.796 101.874 105.46C102.395 105.119 103.067 104.949 103.891 104.949C104.63 104.949 105.276 105.1 105.83 105.403C106.384 105.702 106.815 106.156 107.123 106.767C107.431 107.373 107.585 108.14 107.585 109.068V116H105.908V109.182C105.908 108.325 105.686 107.657 105.241 107.179C104.796 106.696 104.185 106.455 103.408 106.455C102.873 106.455 102.395 106.571 101.974 106.803C101.557 107.035 101.228 107.373 100.987 107.818C100.745 108.263 100.624 108.803 100.624 109.438ZM110.647 116V105.091H112.324V116H110.647ZM111.5 103.273C111.173 103.273 110.891 103.161 110.654 102.939C110.422 102.716 110.306 102.449 110.306 102.136C110.306 101.824 110.422 101.556 110.654 101.334C110.891 101.111 111.173 101 111.5 101C111.826 101 112.106 101.111 112.338 101.334C112.574 101.556 112.693 101.824 112.693 102.136C112.693 102.449 112.574 102.716 112.338 102.939C112.106 103.161 111.826 103.273 111.5 103.273ZM122.837 120.091V114.324H122.695C122.571 114.523 122.396 114.774 122.169 115.077C121.942 115.375 121.617 115.643 121.196 115.879C120.775 116.111 120.214 116.227 119.513 116.227C118.604 116.227 117.801 115.998 117.105 115.538C116.409 115.074 115.865 114.421 115.472 113.578C115.079 112.731 114.882 111.729 114.882 110.574C114.882 109.428 115.079 108.434 115.472 107.591C115.865 106.748 116.411 106.097 117.112 105.638C117.813 105.179 118.623 104.949 119.541 104.949C120.251 104.949 120.813 105.067 121.224 105.304C121.641 105.536 121.958 105.801 122.176 106.099C122.399 106.393 122.571 106.634 122.695 106.824H122.893V105.091H124.513V120.091H122.837ZM119.74 114.722C120.412 114.722 120.981 114.546 121.445 114.196C121.909 113.841 122.261 113.351 122.503 112.726C122.744 112.096 122.865 111.369 122.865 110.545C122.865 109.731 122.747 109.018 122.51 108.408C122.273 107.792 121.923 107.314 121.459 106.973C120.995 106.627 120.422 106.455 119.74 106.455C119.03 106.455 118.438 106.637 117.964 107.001C117.496 107.361 117.143 107.851 116.906 108.472C116.674 109.087 116.558 109.778 116.558 110.545C116.558 111.322 116.677 112.027 116.913 112.662C117.155 113.292 117.51 113.794 117.979 114.168C118.452 114.537 119.039 114.722 119.74 114.722ZM134.456 111.54V105.091H136.132V116H134.456V114.153H134.342C134.087 114.707 133.689 115.179 133.149 115.567C132.609 115.95 131.928 116.142 131.104 116.142C130.422 116.142 129.816 115.993 129.286 115.695C128.755 115.392 128.339 114.937 128.036 114.331C127.732 113.72 127.581 112.951 127.581 112.023V105.091H129.257V111.909C129.257 112.705 129.48 113.339 129.925 113.812C130.375 114.286 130.947 114.523 131.643 114.523C132.06 114.523 132.484 114.416 132.915 114.203C133.35 113.99 133.715 113.663 134.009 113.223C134.307 112.783 134.456 112.222 134.456 111.54ZM143.776 116.227C142.725 116.227 141.818 115.995 141.056 115.531C140.298 115.062 139.713 114.409 139.301 113.571C138.894 112.728 138.691 111.748 138.691 110.631C138.691 109.513 138.894 108.528 139.301 107.676C139.713 106.819 140.286 106.152 141.02 105.673C141.759 105.19 142.621 104.949 143.605 104.949C144.174 104.949 144.735 105.044 145.289 105.233C145.843 105.422 146.347 105.73 146.801 106.156C147.256 106.578 147.618 107.136 147.888 107.832C148.158 108.528 148.293 109.385 148.293 110.403V111.114H139.884V109.665H146.588C146.588 109.049 146.465 108.5 146.219 108.017C145.978 107.534 145.632 107.153 145.182 106.874C144.737 106.594 144.212 106.455 143.605 106.455C142.938 106.455 142.36 106.62 141.873 106.952C141.39 107.278 141.018 107.705 140.757 108.23C140.497 108.756 140.367 109.319 140.367 109.92V110.886C140.367 111.71 140.509 112.409 140.793 112.982C141.082 113.55 141.482 113.983 141.993 114.281C142.505 114.575 143.099 114.722 143.776 114.722C144.216 114.722 144.614 114.66 144.969 114.537C145.329 114.409 145.639 114.22 145.9 113.969C146.16 113.713 146.361 113.396 146.503 113.017L148.123 113.472C147.952 114.021 147.666 114.504 147.263 114.92C146.861 115.332 146.364 115.654 145.772 115.886C145.18 116.114 144.515 116.227 143.776 116.227ZM161.326 105.091V106.511H155.445V105.091H161.326ZM157.206 116V103.585C157.206 102.96 157.353 102.439 157.647 102.023C157.94 101.606 158.321 101.294 158.79 101.085C159.259 100.877 159.754 100.773 160.275 100.773C160.686 100.773 161.023 100.806 161.283 100.872C161.543 100.938 161.738 101 161.865 101.057L161.382 102.506C161.297 102.477 161.179 102.442 161.027 102.399C160.881 102.357 160.686 102.335 160.445 102.335C159.891 102.335 159.491 102.475 159.245 102.754C159.003 103.034 158.882 103.443 158.882 103.983V116H157.206ZM166.572 116.256C165.881 116.256 165.254 116.125 164.69 115.865C164.127 115.6 163.679 115.219 163.348 114.722C163.017 114.22 162.851 113.614 162.851 112.903C162.851 112.278 162.974 111.772 163.22 111.384C163.466 110.991 163.795 110.683 164.207 110.46C164.619 110.238 165.074 110.072 165.571 109.963C166.073 109.849 166.577 109.759 167.084 109.693C167.747 109.608 168.284 109.544 168.696 109.501C169.113 109.454 169.416 109.376 169.605 109.267C169.799 109.158 169.896 108.969 169.896 108.699V108.642C169.896 107.941 169.705 107.397 169.321 107.009C168.942 106.62 168.367 106.426 167.595 106.426C166.795 106.426 166.168 106.601 165.713 106.952C165.259 107.302 164.939 107.676 164.754 108.074L163.163 107.506C163.447 106.843 163.826 106.327 164.3 105.957C164.778 105.583 165.299 105.323 165.862 105.176C166.43 105.025 166.989 104.949 167.538 104.949C167.889 104.949 168.291 104.991 168.746 105.077C169.205 105.157 169.648 105.325 170.074 105.581C170.505 105.837 170.862 106.223 171.146 106.739C171.43 107.255 171.572 107.946 171.572 108.812V116H169.896V114.523H169.811C169.697 114.759 169.508 115.013 169.243 115.283C168.978 115.553 168.625 115.782 168.185 115.972C167.744 116.161 167.207 116.256 166.572 116.256ZM166.828 114.75C167.491 114.75 168.05 114.62 168.504 114.359C168.964 114.099 169.309 113.763 169.541 113.351C169.778 112.939 169.896 112.506 169.896 112.051V110.517C169.825 110.602 169.669 110.68 169.428 110.751C169.191 110.818 168.916 110.877 168.604 110.929C168.296 110.976 167.995 111.019 167.702 111.057C167.413 111.09 167.179 111.118 166.999 111.142C166.563 111.199 166.156 111.291 165.777 111.419C165.403 111.542 165.1 111.729 164.868 111.98C164.641 112.226 164.527 112.562 164.527 112.989C164.527 113.571 164.742 114.011 165.173 114.31C165.609 114.603 166.161 114.75 166.828 114.75ZM179.064 116.227C178.041 116.227 177.16 115.986 176.422 115.503C175.683 115.02 175.115 114.355 174.717 113.507C174.319 112.66 174.12 111.691 174.12 110.602C174.12 109.494 174.324 108.517 174.731 107.669C175.143 106.817 175.716 106.152 176.45 105.673C177.189 105.19 178.05 104.949 179.035 104.949C179.802 104.949 180.493 105.091 181.109 105.375C181.725 105.659 182.229 106.057 182.622 106.568C183.015 107.08 183.259 107.676 183.353 108.358H181.677C181.549 107.861 181.265 107.42 180.825 107.037C180.389 106.649 179.802 106.455 179.064 106.455C178.41 106.455 177.837 106.625 177.345 106.966C176.857 107.302 176.476 107.778 176.201 108.393C175.931 109.004 175.797 109.722 175.797 110.545C175.797 111.388 175.929 112.122 176.194 112.747C176.464 113.372 176.843 113.857 177.331 114.203C177.823 114.549 178.401 114.722 179.064 114.722C179.499 114.722 179.895 114.646 180.25 114.494C180.605 114.343 180.905 114.125 181.152 113.841C181.398 113.557 181.573 113.216 181.677 112.818H183.353C183.259 113.462 183.024 114.042 182.65 114.558C182.281 115.07 181.791 115.477 181.18 115.78C180.574 116.078 179.868 116.227 179.064 116.227ZM190.377 116.227C189.326 116.227 188.42 115.995 187.657 115.531C186.9 115.062 186.315 114.409 185.903 113.571C185.496 112.728 185.292 111.748 185.292 110.631C185.292 109.513 185.496 108.528 185.903 107.676C186.315 106.819 186.888 106.152 187.622 105.673C188.36 105.19 189.222 104.949 190.207 104.949C190.775 104.949 191.336 105.044 191.89 105.233C192.444 105.422 192.949 105.73 193.403 106.156C193.858 106.578 194.22 107.136 194.49 107.832C194.76 108.528 194.895 109.385 194.895 110.403V111.114H186.485V109.665H193.19C193.19 109.049 193.067 108.5 192.821 108.017C192.579 107.534 192.234 107.153 191.784 106.874C191.339 106.594 190.813 106.455 190.207 106.455C189.539 106.455 188.962 106.62 188.474 106.952C187.991 107.278 187.619 107.705 187.359 108.23C187.099 108.756 186.968 109.319 186.968 109.92V110.886C186.968 111.71 187.11 112.409 187.395 112.982C187.683 113.55 188.083 113.983 188.595 114.281C189.106 114.575 189.7 114.722 190.377 114.722C190.818 114.722 191.216 114.66 191.571 114.537C191.931 114.409 192.241 114.22 192.501 113.969C192.761 113.713 192.963 113.396 193.105 113.017L194.724 113.472C194.554 114.021 194.267 114.504 193.865 114.92C193.462 115.332 192.965 115.654 192.373 115.886C191.781 116.114 191.116 116.227 190.377 116.227ZM205.172 107.534L203.666 107.96C203.571 107.709 203.431 107.465 203.247 107.229C203.067 106.987 202.821 106.788 202.508 106.632C202.196 106.476 201.796 106.398 201.308 106.398C200.64 106.398 200.084 106.552 199.639 106.859C199.199 107.162 198.978 107.548 198.978 108.017C198.978 108.434 199.13 108.763 199.433 109.004C199.736 109.246 200.209 109.447 200.853 109.608L202.473 110.006C203.448 110.242 204.175 110.605 204.653 111.092C205.131 111.575 205.37 112.198 205.37 112.96C205.37 113.585 205.19 114.144 204.831 114.636C204.475 115.129 203.978 115.517 203.339 115.801C202.7 116.085 201.957 116.227 201.109 116.227C199.996 116.227 199.075 115.986 198.346 115.503C197.617 115.02 197.155 114.314 196.961 113.386L198.552 112.989C198.704 113.576 198.99 114.016 199.412 114.31C199.838 114.603 200.394 114.75 201.081 114.75C201.862 114.75 202.482 114.584 202.941 114.253C203.405 113.917 203.637 113.514 203.637 113.045C203.637 112.667 203.505 112.349 203.24 112.094C202.975 111.833 202.567 111.639 202.018 111.511L200.2 111.085C199.201 110.848 198.467 110.482 197.998 109.984C197.534 109.482 197.302 108.855 197.302 108.102C197.302 107.487 197.475 106.942 197.821 106.469C198.171 105.995 198.647 105.624 199.248 105.354C199.854 105.084 200.541 104.949 201.308 104.949C202.387 104.949 203.235 105.186 203.85 105.659C204.471 106.133 204.911 106.758 205.172 107.534ZM210.393 114.011L210.28 114.778C210.199 115.318 210.076 115.896 209.911 116.511C209.75 117.127 209.581 117.707 209.406 118.251C209.231 118.796 209.087 119.229 208.973 119.551H207.695C207.756 119.248 207.837 118.848 207.936 118.351C208.036 117.854 208.135 117.297 208.234 116.682C208.339 116.071 208.424 115.446 208.49 114.807L208.575 114.011H210.393ZM219.351 116V101.455H221.027V106.824H221.169C221.292 106.634 221.463 106.393 221.681 106.099C221.903 105.801 222.221 105.536 222.632 105.304C223.049 105.067 223.613 104.949 224.323 104.949C225.241 104.949 226.051 105.179 226.752 105.638C227.453 106.097 227.999 106.748 228.392 107.591C228.785 108.434 228.982 109.428 228.982 110.574C228.982 111.729 228.785 112.731 228.392 113.578C227.999 114.421 227.455 115.074 226.759 115.538C226.063 115.998 225.26 116.227 224.351 116.227C223.65 116.227 223.089 116.111 222.668 115.879C222.247 115.643 221.922 115.375 221.695 115.077C221.468 114.774 221.292 114.523 221.169 114.324H220.971V116H219.351ZM220.999 110.545C220.999 111.369 221.12 112.096 221.361 112.726C221.603 113.351 221.955 113.841 222.419 114.196C222.883 114.546 223.452 114.722 224.124 114.722C224.825 114.722 225.409 114.537 225.878 114.168C226.352 113.794 226.707 113.292 226.944 112.662C227.185 112.027 227.306 111.322 227.306 110.545C227.306 109.778 227.187 109.087 226.951 108.472C226.719 107.851 226.366 107.361 225.892 107.001C225.424 106.637 224.834 106.455 224.124 106.455C223.442 106.455 222.869 106.627 222.405 106.973C221.941 107.314 221.591 107.792 221.354 108.408C221.117 109.018 220.999 109.731 220.999 110.545ZM231.546 116V105.091H233.222V116H231.546ZM232.398 103.273C232.071 103.273 231.79 103.161 231.553 102.939C231.321 102.716 231.205 102.449 231.205 102.136C231.205 101.824 231.321 101.556 231.553 101.334C231.79 101.111 232.071 101 232.398 101C232.725 101 233.004 101.111 233.236 101.334C233.473 101.556 233.591 101.824 233.591 102.136C233.591 102.449 233.473 102.716 233.236 102.939C233.004 103.161 232.725 103.273 232.398 103.273ZM240.724 116.227C239.739 116.227 238.875 115.993 238.131 115.524C237.393 115.055 236.815 114.4 236.398 113.557C235.987 112.714 235.781 111.729 235.781 110.602C235.781 109.466 235.987 108.474 236.398 107.626C236.815 106.779 237.393 106.121 238.131 105.652C238.875 105.183 239.739 104.949 240.724 104.949C241.709 104.949 242.57 105.183 243.309 105.652C244.052 106.121 244.63 106.779 245.042 107.626C245.459 108.474 245.667 109.466 245.667 110.602C245.667 111.729 245.459 112.714 245.042 113.557C244.63 114.4 244.052 115.055 243.309 115.524C242.57 115.993 241.709 116.227 240.724 116.227ZM240.724 114.722C241.472 114.722 242.087 114.53 242.57 114.146C243.053 113.763 243.411 113.259 243.643 112.634C243.875 112.009 243.991 111.331 243.991 110.602C243.991 109.873 243.875 109.194 243.643 108.564C243.411 107.934 243.053 107.425 242.57 107.037C242.087 106.649 241.472 106.455 240.724 106.455C239.976 106.455 239.36 106.649 238.877 107.037C238.394 107.425 238.037 107.934 237.805 108.564C237.573 109.194 237.457 109.873 237.457 110.602C237.457 111.331 237.573 112.009 237.805 112.634C238.037 113.259 238.394 113.763 238.877 114.146C239.36 114.53 239.976 114.722 240.724 114.722ZM255.953 107.534L254.447 107.96C254.352 107.709 254.213 107.465 254.028 107.229C253.848 106.987 253.602 106.788 253.289 106.632C252.977 106.476 252.577 106.398 252.089 106.398C251.422 106.398 250.865 106.552 250.42 106.859C249.98 107.162 249.76 107.548 249.76 108.017C249.76 108.434 249.911 108.763 250.214 109.004C250.517 109.246 250.991 109.447 251.635 109.608L253.254 110.006C254.229 110.242 254.956 110.605 255.434 111.092C255.913 111.575 256.152 112.198 256.152 112.96C256.152 113.585 255.972 114.144 255.612 114.636C255.257 115.129 254.76 115.517 254.12 115.801C253.481 116.085 252.738 116.227 251.89 116.227C250.778 116.227 249.857 115.986 249.127 115.503C248.398 115.02 247.937 114.314 247.743 113.386L249.333 112.989C249.485 113.576 249.771 114.016 250.193 114.31C250.619 114.603 251.175 114.75 251.862 114.75C252.643 114.75 253.263 114.584 253.723 114.253C254.187 113.917 254.419 113.514 254.419 113.045C254.419 112.667 254.286 112.349 254.021 112.094C253.756 111.833 253.349 111.639 252.799 111.511L250.981 111.085C249.982 110.848 249.248 110.482 248.779 109.984C248.315 109.482 248.083 108.855 248.083 108.102C248.083 107.487 248.256 106.942 248.602 106.469C248.952 105.995 249.428 105.624 250.029 105.354C250.636 105.084 251.322 104.949 252.089 104.949C253.169 104.949 254.016 105.186 254.632 105.659C255.252 106.133 255.692 106.758 255.953 107.534ZM261.175 114.011L261.061 114.778C260.981 115.318 260.857 115.896 260.692 116.511C260.531 117.127 260.363 117.707 260.188 118.251C260.012 118.796 259.868 119.229 259.754 119.551H258.476C258.537 119.248 258.618 118.848 258.717 118.351C258.817 117.854 258.916 117.297 259.016 116.682C259.12 116.071 259.205 115.446 259.271 114.807L259.357 114.011H261.175ZM271.581 101.455V116H269.905V101.455H271.581ZM279.083 116.227C278.098 116.227 277.234 115.993 276.491 115.524C275.752 115.055 275.174 114.4 274.758 113.557C274.346 112.714 274.14 111.729 274.14 110.602C274.14 109.466 274.346 108.474 274.758 107.626C275.174 106.779 275.752 106.121 276.491 105.652C277.234 105.183 278.098 104.949 279.083 104.949C280.068 104.949 280.93 105.183 281.668 105.652C282.412 106.121 282.989 106.779 283.401 107.626C283.818 108.474 284.026 109.466 284.026 110.602C284.026 111.729 283.818 112.714 283.401 113.557C282.989 114.4 282.412 115.055 281.668 115.524C280.93 115.993 280.068 116.227 279.083 116.227ZM279.083 114.722C279.831 114.722 280.447 114.53 280.93 114.146C281.413 113.763 281.77 113.259 282.002 112.634C282.234 112.009 282.35 111.331 282.35 110.602C282.35 109.873 282.234 109.194 282.002 108.564C281.77 107.934 281.413 107.425 280.93 107.037C280.447 106.649 279.831 106.455 279.083 106.455C278.335 106.455 277.719 106.649 277.237 107.037C276.754 107.425 276.396 107.934 276.164 108.564C275.932 109.194 275.816 109.873 275.816 110.602C275.816 111.331 275.932 112.009 276.164 112.634C276.396 113.259 276.754 113.763 277.237 114.146C277.719 114.53 278.335 114.722 279.083 114.722ZM291.017 116.227C289.994 116.227 289.113 115.986 288.375 115.503C287.636 115.02 287.068 114.355 286.67 113.507C286.272 112.66 286.074 111.691 286.074 110.602C286.074 109.494 286.277 108.517 286.684 107.669C287.096 106.817 287.669 106.152 288.403 105.673C289.142 105.19 290.003 104.949 290.988 104.949C291.755 104.949 292.447 105.091 293.062 105.375C293.678 105.659 294.182 106.057 294.575 106.568C294.968 107.08 295.212 107.676 295.306 108.358H293.63C293.502 107.861 293.218 107.42 292.778 107.037C292.342 106.649 291.755 106.455 291.017 106.455C290.363 106.455 289.79 106.625 289.298 106.966C288.81 107.302 288.429 107.778 288.154 108.393C287.885 109.004 287.75 109.722 287.75 110.545C287.75 111.388 287.882 112.122 288.147 112.747C288.417 113.372 288.796 113.857 289.284 114.203C289.776 114.549 290.354 114.722 291.017 114.722C291.452 114.722 291.848 114.646 292.203 114.494C292.558 114.343 292.859 114.125 293.105 113.841C293.351 113.557 293.526 113.216 293.63 112.818H295.306C295.212 113.462 294.977 114.042 294.603 114.558C294.234 115.07 293.744 115.477 293.133 115.78C292.527 116.078 291.822 116.227 291.017 116.227ZM300.967 116.256C300.276 116.256 299.648 116.125 299.085 115.865C298.521 115.6 298.074 115.219 297.743 114.722C297.411 114.22 297.245 113.614 297.245 112.903C297.245 112.278 297.368 111.772 297.615 111.384C297.861 110.991 298.19 110.683 298.602 110.46C299.014 110.238 299.468 110.072 299.966 109.963C300.467 109.849 300.972 109.759 301.478 109.693C302.141 109.608 302.679 109.544 303.091 109.501C303.507 109.454 303.81 109.376 304 109.267C304.194 109.158 304.291 108.969 304.291 108.699V108.642C304.291 107.941 304.099 107.397 303.716 107.009C303.337 106.62 302.761 106.426 301.99 106.426C301.19 106.426 300.562 106.601 300.108 106.952C299.653 107.302 299.333 107.676 299.149 108.074L297.558 107.506C297.842 106.843 298.221 106.327 298.694 105.957C299.172 105.583 299.693 105.323 300.257 105.176C300.825 105.025 301.384 104.949 301.933 104.949C302.283 104.949 302.686 104.991 303.14 105.077C303.6 105.157 304.042 105.325 304.468 105.581C304.899 105.837 305.257 106.223 305.541 106.739C305.825 107.255 305.967 107.946 305.967 108.812V116H304.291V114.523H304.206C304.092 114.759 303.903 115.013 303.637 115.283C303.372 115.553 303.02 115.782 302.579 115.972C302.139 116.161 301.601 116.256 300.967 116.256ZM301.223 114.75C301.886 114.75 302.444 114.62 302.899 114.359C303.358 114.099 303.704 113.763 303.936 113.351C304.172 112.939 304.291 112.506 304.291 112.051V110.517C304.22 110.602 304.064 110.68 303.822 110.751C303.585 110.818 303.311 110.877 302.998 110.929C302.69 110.976 302.39 111.019 302.096 111.057C301.807 111.09 301.573 111.118 301.393 111.142C300.958 111.199 300.55 111.291 300.172 111.419C299.797 111.542 299.494 111.729 299.262 111.98C299.035 112.226 298.922 112.562 298.922 112.989C298.922 113.571 299.137 114.011 299.568 114.31C300.003 114.603 300.555 114.75 301.223 114.75ZM313.771 105.091V106.511H308.117V105.091H313.771ZM309.765 102.477H311.441V112.875C311.441 113.348 311.51 113.704 311.647 113.94C311.789 114.172 311.969 114.329 312.187 114.409C312.409 114.485 312.644 114.523 312.89 114.523C313.075 114.523 313.226 114.513 313.344 114.494C313.463 114.471 313.558 114.452 313.629 114.438L313.969 115.943C313.856 115.986 313.697 116.028 313.494 116.071C313.29 116.118 313.032 116.142 312.719 116.142C312.246 116.142 311.782 116.04 311.327 115.837C310.878 115.633 310.504 115.323 310.205 114.906C309.912 114.49 309.765 113.964 309.765 113.33V102.477ZM316.292 116V105.091H317.968V116H316.292ZM317.144 103.273C316.817 103.273 316.536 103.161 316.299 102.939C316.067 102.716 315.951 102.449 315.951 102.136C315.951 101.824 316.067 101.556 316.299 101.334C316.536 101.111 316.817 101 317.144 101C317.471 101 317.75 101.111 317.982 101.334C318.219 101.556 318.337 101.824 318.337 102.136C318.337 102.449 318.219 102.716 317.982 102.939C317.75 103.161 317.471 103.273 317.144 103.273ZM325.47 116.227C324.485 116.227 323.621 115.993 322.877 115.524C322.139 115.055 321.561 114.4 321.145 113.557C320.733 112.714 320.527 111.729 320.527 110.602C320.527 109.466 320.733 108.474 321.145 107.626C321.561 106.779 322.139 106.121 322.877 105.652C323.621 105.183 324.485 104.949 325.47 104.949C326.455 104.949 327.316 105.183 328.055 105.652C328.798 106.121 329.376 106.779 329.788 107.626C330.205 108.474 330.413 109.466 330.413 110.602C330.413 111.729 330.205 112.714 329.788 113.557C329.376 114.4 328.798 115.055 328.055 115.524C327.316 115.993 326.455 116.227 325.47 116.227ZM325.47 114.722C326.218 114.722 326.833 114.53 327.316 114.146C327.799 113.763 328.157 113.259 328.389 112.634C328.621 112.009 328.737 111.331 328.737 110.602C328.737 109.873 328.621 109.194 328.389 108.564C328.157 107.934 327.799 107.425 327.316 107.037C326.833 106.649 326.218 106.455 325.47 106.455C324.722 106.455 324.106 106.649 323.623 107.037C323.14 107.425 322.783 107.934 322.551 108.564C322.319 109.194 322.203 109.873 322.203 110.602C322.203 111.331 322.319 112.009 322.551 112.634C322.783 113.259 323.14 113.763 323.623 114.146C324.106 114.53 324.722 114.722 325.47 114.722ZM334.648 109.438V116H332.972V105.091H334.591V106.795H334.733C334.989 106.241 335.377 105.796 335.898 105.46C336.419 105.119 337.091 104.949 337.915 104.949C338.653 104.949 339.3 105.1 339.854 105.403C340.408 105.702 340.839 106.156 341.146 106.767C341.454 107.373 341.608 108.14 341.608 109.068V116H339.932V109.182C339.932 108.325 339.709 107.657 339.264 107.179C338.819 106.696 338.208 106.455 337.432 106.455C336.897 106.455 336.419 106.571 335.997 106.803C335.58 107.035 335.251 107.373 335.01 107.818C334.768 108.263 334.648 108.803 334.648 109.438ZM352.398 107.534L350.892 107.96C350.798 107.709 350.658 107.465 350.473 107.229C350.293 106.987 350.047 106.788 349.735 106.632C349.422 106.476 349.022 106.398 348.534 106.398C347.867 106.398 347.31 106.552 346.865 106.859C346.425 107.162 346.205 107.548 346.205 108.017C346.205 108.434 346.356 108.763 346.659 109.004C346.962 109.246 347.436 109.447 348.08 109.608L349.699 110.006C350.675 110.242 351.401 110.605 351.88 111.092C352.358 111.575 352.597 112.198 352.597 112.96C352.597 113.585 352.417 114.144 352.057 114.636C351.702 115.129 351.205 115.517 350.566 115.801C349.926 116.085 349.183 116.227 348.336 116.227C347.223 116.227 346.302 115.986 345.573 115.503C344.844 115.02 344.382 114.314 344.188 113.386L345.779 112.989C345.93 113.576 346.217 114.016 346.638 114.31C347.064 114.603 347.621 114.75 348.307 114.75C349.088 114.75 349.709 114.584 350.168 114.253C350.632 113.917 350.864 113.514 350.864 113.045C350.864 112.667 350.731 112.349 350.466 112.094C350.201 111.833 349.794 111.639 349.245 111.511L347.426 111.085C346.427 110.848 345.694 110.482 345.225 109.984C344.761 109.482 344.529 108.855 344.529 108.102C344.529 107.487 344.702 106.942 345.047 106.469C345.398 105.995 345.873 105.624 346.475 105.354C347.081 105.084 347.767 104.949 348.534 104.949C349.614 104.949 350.462 105.186 351.077 105.659C351.697 106.133 352.138 106.758 352.398 107.534ZM357.62 114.011L357.506 114.778C357.426 115.318 357.303 115.896 357.137 116.511C356.976 117.127 356.808 117.707 356.633 118.251C356.458 118.796 356.313 119.229 356.2 119.551H354.921C354.983 119.248 355.063 118.848 355.163 118.351C355.262 117.854 355.362 117.297 355.461 116.682C355.565 116.071 355.65 115.446 355.717 114.807L355.802 114.011H357.62ZM64.551 144.256C63.8597 144.256 63.2323 144.125 62.6689 143.865C62.1054 143.6 61.658 143.219 61.3265 142.722C60.9951 142.22 60.8294 141.614 60.8294 140.903C60.8294 140.278 60.9525 139.772 61.1987 139.384C61.4449 138.991 61.774 138.683 62.1859 138.46C62.5978 138.238 63.0524 138.072 63.5495 137.963C64.0514 137.849 64.5557 137.759 65.0623 137.693C65.7252 137.608 66.2626 137.544 66.6745 137.501C67.0912 137.454 67.3942 137.376 67.5836 137.267C67.7778 137.158 67.8748 136.969 67.8748 136.699V136.642C67.8748 135.941 67.6831 135.397 67.2995 135.009C66.9208 134.62 66.3455 134.426 65.5737 134.426C64.7735 134.426 64.1461 134.601 63.6916 134.952C63.237 135.302 62.9174 135.676 62.7328 136.074L61.1419 135.506C61.426 134.843 61.8047 134.327 62.2782 133.957C62.7565 133.583 63.2773 133.323 63.8407 133.176C64.4089 133.025 64.9676 132.949 65.5169 132.949C65.8672 132.949 66.2697 132.991 66.7243 133.077C67.1835 133.157 67.6262 133.325 68.0524 133.581C68.4833 133.837 68.8407 134.223 69.1248 134.739C69.4089 135.255 69.551 135.946 69.551 136.812V144H67.8748V142.523H67.7896C67.676 142.759 67.4866 143.013 67.2214 143.283C66.9563 143.553 66.6035 143.782 66.1632 143.972C65.7228 144.161 65.1854 144.256 64.551 144.256ZM64.8066 142.75C65.4695 142.75 66.0282 142.62 66.4828 142.359C66.9421 142.099 67.2877 141.763 67.5197 141.351C67.7565 140.939 67.8748 140.506 67.8748 140.051V138.517C67.8038 138.602 67.6475 138.68 67.4061 138.751C67.1693 138.818 66.8947 138.877 66.5822 138.929C66.2744 138.976 65.9738 139.019 65.6802 139.057C65.3914 139.09 65.157 139.118 64.9771 139.142C64.5415 139.199 64.1343 139.291 63.7555 139.419C63.3815 139.542 63.0784 139.729 62.8464 139.98C62.6191 140.226 62.5055 140.562 62.5055 140.989C62.5055 141.571 62.7209 142.011 63.1518 142.31C63.5874 142.603 64.139 142.75 64.8066 142.75ZM74.2864 137.438V144H72.6103V133.091H74.2296V134.795H74.3716C74.6273 134.241 75.0156 133.796 75.5364 133.46C76.0572 133.119 76.7296 132.949 77.5534 132.949C78.2921 132.949 78.9384 133.1 79.4924 133.403C80.0463 133.702 80.4772 134.156 80.785 134.767C81.0927 135.373 81.2466 136.14 81.2466 137.068V144H79.5705V137.182C79.5705 136.325 79.348 135.657 78.9029 135.179C78.4578 134.696 77.847 134.455 77.0705 134.455C76.5355 134.455 76.0572 134.571 75.6358 134.803C75.2192 135.035 74.8901 135.373 74.6486 135.818C74.4071 136.263 74.2864 136.803 74.2864 137.438ZM88.4288 144.227C87.5197 144.227 86.7172 143.998 86.0211 143.538C85.3251 143.074 84.7806 142.421 84.3876 141.578C83.9946 140.731 83.7981 139.729 83.7981 138.574C83.7981 137.428 83.9946 136.434 84.3876 135.591C84.7806 134.748 85.3275 134.097 86.0282 133.638C86.729 133.179 87.5386 132.949 88.4572 132.949C89.1674 132.949 89.7285 133.067 90.1404 133.304C90.5571 133.536 90.8743 133.801 91.0922 134.099C91.3147 134.393 91.4875 134.634 91.6106 134.824H91.7527V129.455H93.4288V144H91.8095V142.324H91.6106C91.4875 142.523 91.3123 142.774 91.085 143.077C90.8578 143.375 90.5334 143.643 90.112 143.879C89.6906 144.111 89.1296 144.227 88.4288 144.227ZM88.6561 142.722C89.3284 142.722 89.8966 142.546 90.3606 142.196C90.8246 141.841 91.1774 141.351 91.4189 140.726C91.6603 140.096 91.7811 139.369 91.7811 138.545C91.7811 137.731 91.6627 137.018 91.426 136.408C91.1892 135.792 90.8388 135.314 90.3748 134.973C89.9108 134.627 89.3379 134.455 88.6561 134.455C87.9458 134.455 87.354 134.637 86.8805 135.001C86.4118 135.361 86.059 135.851 85.8223 136.472C85.5903 137.087 85.4743 137.778 85.4743 138.545C85.4743 139.322 85.5926 140.027 85.8294 140.662C86.0708 141.292 86.426 141.794 86.8947 142.168C87.3682 142.537 87.9553 142.722 88.6561 142.722ZM110.084 135.534L108.578 135.96C108.483 135.709 108.344 135.465 108.159 135.229C107.979 134.987 107.733 134.788 107.42 134.632C107.108 134.476 106.708 134.398 106.22 134.398C105.552 134.398 104.996 134.552 104.551 134.859C104.111 135.162 103.89 135.548 103.89 136.017C103.89 136.434 104.042 136.763 104.345 137.004C104.648 137.246 105.122 137.447 105.765 137.608L107.385 138.006C108.36 138.242 109.087 138.605 109.565 139.092C110.043 139.575 110.282 140.198 110.282 140.96C110.282 141.585 110.103 142.144 109.743 142.636C109.388 143.129 108.89 143.517 108.251 143.801C107.612 144.085 106.869 144.227 106.021 144.227C104.908 144.227 103.988 143.986 103.258 143.503C102.529 143.02 102.068 142.314 101.873 141.386L103.464 140.989C103.616 141.576 103.902 142.016 104.324 142.31C104.75 142.603 105.306 142.75 105.993 142.75C106.774 142.75 107.394 142.584 107.854 142.253C108.318 141.917 108.55 141.514 108.55 141.045C108.55 140.667 108.417 140.349 108.152 140.094C107.887 139.833 107.479 139.639 106.93 139.511L105.112 139.085C104.113 138.848 103.379 138.482 102.91 137.984C102.446 137.482 102.214 136.855 102.214 136.102C102.214 135.487 102.387 134.942 102.733 134.469C103.083 133.995 103.559 133.624 104.16 133.354C104.766 133.084 105.453 132.949 106.22 132.949C107.3 132.949 108.147 133.186 108.763 133.659C109.383 134.133 109.823 134.758 110.084 135.534ZM117.55 133.091V134.511H111.896V133.091H117.55ZM113.544 130.477H115.22V140.875C115.22 141.348 115.289 141.704 115.426 141.94C115.568 142.172 115.748 142.329 115.966 142.409C116.189 142.485 116.423 142.523 116.669 142.523C116.854 142.523 117.005 142.513 117.124 142.494C117.242 142.471 117.337 142.452 117.408 142.438L117.749 143.943C117.635 143.986 117.477 144.028 117.273 144.071C117.069 144.118 116.811 144.142 116.499 144.142C116.025 144.142 115.561 144.04 115.107 143.837C114.657 143.633 114.283 143.323 113.985 142.906C113.691 142.49 113.544 141.964 113.544 141.33V130.477ZM121.151 148.091C120.867 148.091 120.613 148.067 120.391 148.02C120.168 147.977 120.014 147.935 119.929 147.892L120.355 146.415C120.762 146.519 121.122 146.557 121.435 146.528C121.747 146.5 122.024 146.36 122.266 146.109C122.512 145.863 122.737 145.463 122.941 144.909L123.253 144.057L119.219 133.091H121.037L124.048 141.784H124.162L127.173 133.091H128.992L124.361 145.591C124.153 146.154 123.895 146.621 123.587 146.99C123.279 147.364 122.922 147.641 122.514 147.821C122.112 148.001 121.657 148.091 121.151 148.091ZM132.88 129.455V144H131.204V129.455H132.88ZM140.524 144.227C139.473 144.227 138.566 143.995 137.804 143.531C137.046 143.062 136.461 142.409 136.05 141.571C135.642 140.728 135.439 139.748 135.439 138.631C135.439 137.513 135.642 136.528 136.05 135.676C136.461 134.819 137.034 134.152 137.768 133.673C138.507 133.19 139.369 132.949 140.354 132.949C140.922 132.949 141.483 133.044 142.037 133.233C142.591 133.422 143.095 133.73 143.55 134.156C144.004 134.578 144.366 135.136 144.636 135.832C144.906 136.528 145.041 137.385 145.041 138.403V139.114H136.632V137.665H143.336C143.336 137.049 143.213 136.5 142.967 136.017C142.726 135.534 142.38 135.153 141.93 134.874C141.485 134.594 140.96 134.455 140.354 134.455C139.686 134.455 139.108 134.62 138.621 134.952C138.138 135.278 137.766 135.705 137.506 136.23C137.245 136.756 137.115 137.319 137.115 137.92V138.886C137.115 139.71 137.257 140.409 137.541 140.982C137.83 141.55 138.23 141.983 138.741 142.281C139.253 142.575 139.847 142.722 140.524 142.722C140.964 142.722 141.362 142.66 141.717 142.537C142.077 142.409 142.387 142.22 142.648 141.969C142.908 141.713 143.109 141.396 143.251 141.017L144.871 141.472C144.7 142.021 144.414 142.504 144.011 142.92C143.609 143.332 143.112 143.654 142.52 143.886C141.928 144.114 141.263 144.227 140.524 144.227ZM155.318 135.534L153.812 135.96C153.718 135.709 153.578 135.465 153.393 135.229C153.213 134.987 152.967 134.788 152.655 134.632C152.342 134.476 151.942 134.398 151.454 134.398C150.787 134.398 150.23 134.552 149.785 134.859C149.345 135.162 149.125 135.548 149.125 136.017C149.125 136.434 149.276 136.763 149.579 137.004C149.882 137.246 150.356 137.447 151 137.608L152.619 138.006C153.595 138.242 154.321 138.605 154.8 139.092C155.278 139.575 155.517 140.198 155.517 140.96C155.517 141.585 155.337 142.144 154.977 142.636C154.622 143.129 154.125 143.517 153.486 143.801C152.846 144.085 152.103 144.227 151.256 144.227C150.143 144.227 149.222 143.986 148.493 143.503C147.764 143.02 147.302 142.314 147.108 141.386L148.699 140.989C148.85 141.576 149.137 142.016 149.558 142.31C149.984 142.603 150.541 142.75 151.227 142.75C152.008 142.75 152.629 142.584 153.088 142.253C153.552 141.917 153.784 141.514 153.784 141.045C153.784 140.667 153.651 140.349 153.386 140.094C153.121 139.833 152.714 139.639 152.165 139.511L150.346 139.085C149.347 138.848 148.613 138.482 148.145 137.984C147.681 137.482 147.449 136.855 147.449 136.102C147.449 135.487 147.622 134.942 147.967 134.469C148.318 133.995 148.793 133.624 149.395 133.354C150.001 133.084 150.687 132.949 151.454 132.949C152.534 132.949 153.381 133.186 153.997 133.659C154.617 134.133 155.058 134.758 155.318 135.534ZM168.523 133.091V134.511H162.642V133.091H168.523ZM164.404 144V131.585C164.404 130.96 164.55 130.439 164.844 130.023C165.137 129.606 165.519 129.294 165.987 129.085C166.456 128.877 166.951 128.773 167.472 128.773C167.884 128.773 168.22 128.806 168.48 128.872C168.741 128.938 168.935 129 169.063 129.057L168.58 130.506C168.494 130.477 168.376 130.442 168.225 130.399C168.078 130.357 167.884 130.335 167.642 130.335C167.088 130.335 166.688 130.475 166.442 130.754C166.2 131.034 166.08 131.443 166.08 131.983V144H164.404ZM174.855 144.227C173.87 144.227 173.006 143.993 172.262 143.524C171.524 143.055 170.946 142.4 170.529 141.557C170.117 140.714 169.911 139.729 169.911 138.602C169.911 137.466 170.117 136.474 170.529 135.626C170.946 134.779 171.524 134.121 172.262 133.652C173.006 133.183 173.87 132.949 174.855 132.949C175.839 132.949 176.701 133.183 177.44 133.652C178.183 134.121 178.761 134.779 179.173 135.626C179.589 136.474 179.798 137.466 179.798 138.602C179.798 139.729 179.589 140.714 179.173 141.557C178.761 142.4 178.183 143.055 177.44 143.524C176.701 143.993 175.839 144.227 174.855 144.227ZM174.855 142.722C175.603 142.722 176.218 142.53 176.701 142.146C177.184 141.763 177.542 141.259 177.774 140.634C178.006 140.009 178.122 139.331 178.122 138.602C178.122 137.873 178.006 137.194 177.774 136.564C177.542 135.934 177.184 135.425 176.701 135.037C176.218 134.649 175.603 134.455 174.855 134.455C174.106 134.455 173.491 134.649 173.008 135.037C172.525 135.425 172.168 135.934 171.936 136.564C171.704 137.194 171.588 137.873 171.588 138.602C171.588 139.331 171.704 140.009 171.936 140.634C172.168 141.259 172.525 141.763 173.008 142.146C173.491 142.53 174.106 142.722 174.855 142.722ZM182.356 144V133.091H183.976V134.739H184.089C184.288 134.199 184.648 133.761 185.169 133.425C185.69 133.089 186.277 132.92 186.93 132.92C187.053 132.92 187.207 132.923 187.392 132.928C187.577 132.932 187.716 132.939 187.811 132.949V134.653C187.754 134.639 187.624 134.618 187.42 134.589C187.221 134.556 187.011 134.54 186.788 134.54C186.258 134.54 185.784 134.651 185.368 134.874C184.956 135.091 184.629 135.394 184.388 135.783C184.151 136.166 184.032 136.604 184.032 137.097V144H182.356ZM198.633 144.256C197.942 144.256 197.314 144.125 196.751 143.865C196.187 143.6 195.74 143.219 195.409 142.722C195.077 142.22 194.911 141.614 194.911 140.903C194.911 140.278 195.035 139.772 195.281 139.384C195.527 138.991 195.856 138.683 196.268 138.46C196.68 138.238 197.134 138.072 197.632 137.963C198.133 137.849 198.638 137.759 199.144 137.693C199.807 137.608 200.345 137.544 200.757 137.501C201.173 137.454 201.476 137.376 201.666 137.267C201.86 137.158 201.957 136.969 201.957 136.699V136.642C201.957 135.941 201.765 135.397 201.382 135.009C201.003 134.62 200.427 134.426 199.656 134.426C198.856 134.426 198.228 134.601 197.774 134.952C197.319 135.302 196.999 135.676 196.815 136.074L195.224 135.506C195.508 134.843 195.887 134.327 196.36 133.957C196.838 133.583 197.359 133.323 197.923 133.176C198.491 133.025 199.05 132.949 199.599 132.949C199.949 132.949 200.352 132.991 200.806 133.077C201.266 133.157 201.708 133.325 202.134 133.581C202.565 133.837 202.923 134.223 203.207 134.739C203.491 135.255 203.633 135.946 203.633 136.812V144H201.957V142.523H201.872C201.758 142.759 201.569 143.013 201.303 143.283C201.038 143.553 200.686 143.782 200.245 143.972C199.805 144.161 199.267 144.256 198.633 144.256ZM198.889 142.75C199.552 142.75 200.11 142.62 200.565 142.359C201.024 142.099 201.37 141.763 201.602 141.351C201.838 140.939 201.957 140.506 201.957 140.051V138.517C201.886 138.602 201.73 138.68 201.488 138.751C201.251 138.818 200.977 138.877 200.664 138.929C200.356 138.976 200.056 139.019 199.762 139.057C199.473 139.09 199.239 139.118 199.059 139.142C198.624 139.199 198.216 139.291 197.838 139.419C197.463 139.542 197.16 139.729 196.928 139.98C196.701 140.226 196.588 140.562 196.588 140.989C196.588 141.571 196.803 142.011 197.234 142.31C197.669 142.603 198.221 142.75 198.889 142.75ZM208.368 137.438V144H206.692V133.091H208.312V134.795H208.454C208.709 134.241 209.098 133.796 209.618 133.46C210.139 133.119 210.812 132.949 211.635 132.949C212.374 132.949 213.02 133.1 213.574 133.403C214.128 133.702 214.559 134.156 214.867 134.767C215.175 135.373 215.329 136.14 215.329 137.068V144H213.653V137.182C213.653 136.325 213.43 135.657 212.985 135.179C212.54 134.696 211.929 134.455 211.153 134.455C210.617 134.455 210.139 134.571 209.718 134.803C209.301 135.035 208.972 135.373 208.731 135.818C208.489 136.263 208.368 136.803 208.368 137.438ZM219.08 148.091C218.796 148.091 218.543 148.067 218.32 148.02C218.098 147.977 217.944 147.935 217.859 147.892L218.285 146.415C218.692 146.519 219.052 146.557 219.365 146.528C219.677 146.5 219.954 146.36 220.195 146.109C220.442 145.863 220.667 145.463 220.87 144.909L221.183 144.057L217.149 133.091H218.967L221.978 141.784H222.092L225.103 133.091H226.921L222.291 145.591C222.082 146.154 221.824 146.621 221.517 146.99C221.209 147.364 220.851 147.641 220.444 147.821C220.042 148.001 219.587 148.091 219.08 148.091ZM234.759 148.091V133.091H236.378V134.824H236.577C236.7 134.634 236.87 134.393 237.088 134.099C237.311 133.801 237.628 133.536 238.04 133.304C238.457 133.067 239.02 132.949 239.73 132.949C240.649 132.949 241.459 133.179 242.159 133.638C242.86 134.097 243.407 134.748 243.8 135.591C244.193 136.434 244.389 137.428 244.389 138.574C244.389 139.729 244.193 140.731 243.8 141.578C243.407 142.421 242.862 143.074 242.166 143.538C241.47 143.998 240.668 144.227 239.759 144.227C239.058 144.227 238.497 144.111 238.075 143.879C237.654 143.643 237.33 143.375 237.102 143.077C236.875 142.774 236.7 142.523 236.577 142.324H236.435V148.091H234.759ZM236.406 138.545C236.406 139.369 236.527 140.096 236.769 140.726C237.01 141.351 237.363 141.841 237.827 142.196C238.291 142.546 238.859 142.722 239.531 142.722C240.232 142.722 240.817 142.537 241.286 142.168C241.759 141.794 242.114 141.292 242.351 140.662C242.593 140.027 242.713 139.322 242.713 138.545C242.713 137.778 242.595 137.087 242.358 136.472C242.126 135.851 241.773 135.361 241.3 135.001C240.831 134.637 240.242 134.455 239.531 134.455C238.85 134.455 238.277 134.627 237.813 134.973C237.349 135.314 236.998 135.792 236.762 136.408C236.525 137.018 236.406 137.731 236.406 138.545ZM253.821 139.54V133.091H255.497V144H253.821V142.153H253.708C253.452 142.707 253.054 143.179 252.514 143.567C251.975 143.95 251.293 144.142 250.469 144.142C249.787 144.142 249.181 143.993 248.651 143.695C248.12 143.392 247.704 142.937 247.401 142.331C247.098 141.72 246.946 140.951 246.946 140.023V133.091H248.622V139.909C248.622 140.705 248.845 141.339 249.29 141.812C249.74 142.286 250.313 142.523 251.009 142.523C251.425 142.523 251.849 142.416 252.28 142.203C252.716 141.99 253.08 141.663 253.374 141.223C253.672 140.783 253.821 140.222 253.821 139.54ZM258.567 144V133.091H260.187V134.739H260.3C260.499 134.199 260.859 133.761 261.38 133.425C261.901 133.089 262.488 132.92 263.141 132.92C263.264 132.92 263.418 132.923 263.603 132.928C263.787 132.932 263.927 132.939 264.022 132.949V134.653C263.965 134.639 263.835 134.618 263.631 134.589C263.432 134.556 263.222 134.54 262.999 134.54C262.469 134.54 261.995 134.651 261.579 134.874C261.167 135.091 260.84 135.394 260.599 135.783C260.362 136.166 260.243 136.604 260.243 137.097V144H258.567ZM266.009 148.091V133.091H267.628V134.824H267.827C267.95 134.634 268.12 134.393 268.338 134.099C268.561 133.801 268.878 133.536 269.29 133.304C269.707 133.067 270.27 132.949 270.98 132.949C271.899 132.949 272.709 133.179 273.409 133.638C274.11 134.097 274.657 134.748 275.05 135.591C275.443 136.434 275.639 137.428 275.639 138.574C275.639 139.729 275.443 140.731 275.05 141.578C274.657 142.421 274.112 143.074 273.416 143.538C272.72 143.998 271.918 144.227 271.009 144.227C270.308 144.227 269.747 144.111 269.325 143.879C268.904 143.643 268.58 143.375 268.352 143.077C268.125 142.774 267.95 142.523 267.827 142.324H267.685V148.091H266.009ZM267.656 138.545C267.656 139.369 267.777 140.096 268.019 140.726C268.26 141.351 268.613 141.841 269.077 142.196C269.541 142.546 270.109 142.722 270.781 142.722C271.482 142.722 272.067 142.537 272.536 142.168C273.009 141.794 273.364 141.292 273.601 140.662C273.843 140.027 273.963 139.322 273.963 138.545C273.963 137.778 273.845 137.087 273.608 136.472C273.376 135.851 273.023 135.361 272.55 135.001C272.081 134.637 271.492 134.455 270.781 134.455C270.1 134.455 269.527 134.627 269.063 134.973C268.599 135.314 268.248 135.792 268.012 136.408C267.775 137.018 267.656 137.731 267.656 138.545ZM282.628 144.227C281.643 144.227 280.779 143.993 280.036 143.524C279.297 143.055 278.719 142.4 278.303 141.557C277.891 140.714 277.685 139.729 277.685 138.602C277.685 137.466 277.891 136.474 278.303 135.626C278.719 134.779 279.297 134.121 280.036 133.652C280.779 133.183 281.643 132.949 282.628 132.949C283.613 132.949 284.475 133.183 285.213 133.652C285.957 134.121 286.534 134.779 286.946 135.626C287.363 136.474 287.571 137.466 287.571 138.602C287.571 139.729 287.363 140.714 286.946 141.557C286.534 142.4 285.957 143.055 285.213 143.524C284.475 143.993 283.613 144.227 282.628 144.227ZM282.628 142.722C283.376 142.722 283.992 142.53 284.475 142.146C284.958 141.763 285.315 141.259 285.547 140.634C285.779 140.009 285.895 139.331 285.895 138.602C285.895 137.873 285.779 137.194 285.547 136.564C285.315 135.934 284.958 135.425 284.475 135.037C283.992 134.649 283.376 134.455 282.628 134.455C281.88 134.455 281.264 134.649 280.781 135.037C280.298 135.425 279.941 135.934 279.709 136.564C279.477 137.194 279.361 137.873 279.361 138.602C279.361 139.331 279.477 140.009 279.709 140.634C279.941 141.259 280.298 141.763 280.781 142.146C281.264 142.53 281.88 142.722 282.628 142.722ZM297.857 135.534L296.351 135.96C296.257 135.709 296.117 135.465 295.932 135.229C295.752 134.987 295.506 134.788 295.194 134.632C294.881 134.476 294.481 134.398 293.993 134.398C293.326 134.398 292.769 134.552 292.324 134.859C291.884 135.162 291.664 135.548 291.664 136.017C291.664 136.434 291.815 136.763 292.118 137.004C292.421 137.246 292.895 137.447 293.539 137.608L295.158 138.006C296.134 138.242 296.86 138.605 297.339 139.092C297.817 139.575 298.056 140.198 298.056 140.96C298.056 141.585 297.876 142.144 297.516 142.636C297.161 143.129 296.664 143.517 296.025 143.801C295.385 144.085 294.642 144.227 293.795 144.227C292.682 144.227 291.761 143.986 291.032 143.503C290.303 143.02 289.841 142.314 289.647 141.386L291.238 140.989C291.389 141.576 291.676 142.016 292.097 142.31C292.523 142.603 293.08 142.75 293.766 142.75C294.547 142.75 295.168 142.584 295.627 142.253C296.091 141.917 296.323 141.514 296.323 141.045C296.323 140.667 296.19 140.349 295.925 140.094C295.66 139.833 295.253 139.639 294.704 139.511L292.885 139.085C291.886 138.848 291.153 138.482 290.684 137.984C290.22 137.482 289.988 136.855 289.988 136.102C289.988 135.487 290.161 134.942 290.506 134.469C290.857 133.995 291.332 133.624 291.934 133.354C292.54 133.084 293.226 132.949 293.993 132.949C295.073 132.949 295.921 133.186 296.536 133.659C297.156 134.133 297.597 134.758 297.857 135.534ZM305.153 144.227C304.102 144.227 303.195 143.995 302.433 143.531C301.675 143.062 301.09 142.409 300.678 141.571C300.271 140.728 300.068 139.748 300.068 138.631C300.068 137.513 300.271 136.528 300.678 135.676C301.09 134.819 301.663 134.152 302.397 133.673C303.136 133.19 303.998 132.949 304.982 132.949C305.551 132.949 306.112 133.044 306.666 133.233C307.22 133.422 307.724 133.73 308.178 134.156C308.633 134.578 308.995 135.136 309.265 135.832C309.535 136.528 309.67 137.385 309.67 138.403V139.114H301.261V137.665H307.965C307.965 137.049 307.842 136.5 307.596 136.017C307.355 135.534 307.009 135.153 306.559 134.874C306.114 134.594 305.588 134.455 304.982 134.455C304.315 134.455 303.737 134.62 303.249 134.952C302.767 135.278 302.395 135.705 302.134 136.23C301.874 136.756 301.744 137.319 301.744 137.92V138.886C301.744 139.71 301.886 140.409 302.17 140.982C302.459 141.55 302.859 141.983 303.37 142.281C303.882 142.575 304.476 142.722 305.153 142.722C305.593 142.722 305.991 142.66 306.346 142.537C306.706 142.409 307.016 142.22 307.276 141.969C307.537 141.713 307.738 141.396 307.88 141.017L309.499 141.472C309.329 142.021 309.043 142.504 308.64 142.92C308.238 143.332 307.74 143.654 307.149 143.886C306.557 144.114 305.892 144.227 305.153 144.227ZM313.441 144.114C313.091 144.114 312.79 143.988 312.539 143.737C312.288 143.486 312.163 143.186 312.163 142.835C312.163 142.485 312.288 142.184 312.539 141.933C312.79 141.682 313.091 141.557 313.441 141.557C313.792 141.557 314.092 141.682 314.343 141.933C314.594 142.184 314.72 142.485 314.72 142.835C314.72 143.067 314.66 143.28 314.542 143.474C314.428 143.669 314.275 143.825 314.08 143.943C313.891 144.057 313.678 144.114 313.441 144.114Z" fill="white"/>
<g filter="url(#filter1_ddd_285_626)">
<rect x="20" y="192" width="336" height="297" rx="12" fill="#020817"/>
<rect x="20" y="192" width="336" height="297" rx="12" fill="url(#paint0_linear_285_626)" fill-opacity="0.62"/>
</g>
<defs>
<filter id="filter1_ddd_285_626" x="17.5177" y="191.504" width="340.965" height="301.965" filterUnits="userSpaceOnUse" color-interpolation-filters="sRGB">
<feFlood flood-opacity="0" result="BackgroundImageFix"/>
<feColorMatrix in="SourceAlpha" type="matrix" values="0 0 0 0 0 0 0 0 0 0 0 0 0 0 0 0 0 0 127 0" result="hardAlpha"/>
<feMorphology radius="0.496466" operator="dilate" in="SourceAlpha" result="effect1_dropShadow_285_626"/>
<feOffset/>
<feColorMatrix type="matrix" values="0 0 0 0 0 0 0 0 0 0 0 0 0 0 0 0 0 0 0.05 0"/>
<feBlend mode="normal" in2="BackgroundImageFix" result="effect1_dropShadow_285_626"/>
<feColorMatrix in="SourceAlpha" type="matrix" values="0 0 0 0 0 0 0 0 0 0 0 0 0 0 0 0 0 0 127 0" result="hardAlpha"/>
<feMorphology radius="0.496466" operator="erode" in="SourceAlpha" result="effect2_dropShadow_285_626"/>
<feOffset dy="0.992932"/>
<feGaussianBlur stdDeviation="0.992932"/>
<feColorMatrix type="matrix" values="0 0 0 0 0 0 0 0 0 0 0 0 0 0 0 0 0 0 0.06 0"/>
<feBlend mode="normal" in2="effect1_dropShadow_285_626" result="effect2_dropShadow_285_626"/>
<feColorMatrix in="SourceAlpha" type="matrix" values="0 0 0 0 0 0 0 0 0 0 0 0 0 0 0 0 0 0 127 0" result="hardAlpha"/>
<feMorphology radius="0.496466" operator="erode" in="SourceAlpha" result="effect3_dropShadow_285_626"/>
<feOffset dy="1.98586"/>
<feGaussianBlur stdDeviation="1.4894"/>
<feColorMatrix type="matrix" values="0 0 0 0 0 0 0 0 0 0 0 0 0 0 0 0 0 0 0.1 0"/>
<feBlend mode="normal" in2="effect2_dropShadow_285_626" result="effect3_dropShadow_285_626"/>
<feBlend mode="normal" in="SourceGraphic" in2="effect3_dropShadow_285_626" result="shape"/>
</filter>
<linearGradient id="paint0_linear_285_626" x1="183.692" y1="192" x2="284.867" y2="449.202" gradientUnits="userSpaceOnUse">
<stop stop-color="#D8B4FE"/>
<stop offset="1" stop-color="#B457E0"/>
</linearGradient>
</defs>
</svg>
