<svg width="180" height="20" viewBox="0 0 180 20" fill="none" xmlns="http://www.w3.org/2000/svg">
<rect width="180" height="20" rx="10" fill="white"/>
<path d="M11.3592 14V5.27273H12.676V12.8665H16.6305V14H11.3592ZM20.8514 14.1321C20.2065 14.1321 19.6511 13.9943 19.1852 13.7188C18.7221 13.4403 18.3642 13.0497 18.1113 12.5469C17.8613 12.0412 17.7363 11.4489 17.7363 10.7699C17.7363 10.0994 17.8613 9.50852 18.1113 8.99716C18.3642 8.4858 18.7164 8.08665 19.1681 7.79972C19.6227 7.51278 20.1539 7.36932 20.7619 7.36932C21.1312 7.36932 21.4892 7.4304 21.8358 7.55256C22.1824 7.67472 22.4934 7.86648 22.769 8.12784C23.0446 8.3892 23.2619 8.72869 23.421 9.14631C23.5801 9.56108 23.6596 10.0653 23.6596 10.6591V11.1108H18.4565V10.1562H22.411C22.411 9.82102 22.3429 9.52415 22.2065 9.26562C22.0701 9.00426 21.8784 8.7983 21.6312 8.64773C21.3869 8.49716 21.1 8.42188 20.7704 8.42188C20.4125 8.42188 20.1 8.50994 19.8329 8.68608C19.5687 8.85937 19.3642 9.08665 19.2193 9.3679C19.0772 9.64631 19.0062 9.94886 19.0062 10.2756V11.0213C19.0062 11.4588 19.0829 11.831 19.2363 12.1378C19.3926 12.4446 19.6099 12.679 19.8883 12.8409C20.1667 13 20.492 13.0795 20.8642 13.0795C21.1056 13.0795 21.3258 13.0455 21.5247 12.9773C21.7235 12.9062 21.8954 12.8011 22.0403 12.6619C22.1852 12.5227 22.296 12.3509 22.3727 12.1463L23.5787 12.3636C23.4821 12.7187 23.3088 13.0298 23.0588 13.2969C22.8116 13.5611 22.5005 13.767 22.1255 13.9148C21.7534 14.0597 21.3287 14.1321 20.8514 14.1321ZM30.4853 7.45455L28.1117 14H26.748L24.3702 7.45455H25.7381L27.3958 12.4915H27.464L29.1174 7.45455H30.4853ZM34.2811 14.1321C33.6362 14.1321 33.0808 13.9943 32.6149 13.7188C32.1518 13.4403 31.7939 13.0497 31.541 12.5469C31.291 12.0412 31.166 11.4489 31.166 10.7699C31.166 10.0994 31.291 9.50852 31.541 8.99716C31.7939 8.4858 32.1461 8.08665 32.5978 7.79972C33.0524 7.51278 33.5836 7.36932 34.1916 7.36932C34.5609 7.36932 34.9189 7.4304 35.2654 7.55256C35.612 7.67472 35.9231 7.86648 36.1987 8.12784C36.4743 8.3892 36.6916 8.72869 36.8507 9.14631C37.0098 9.56108 37.0893 10.0653 37.0893 10.6591V11.1108H31.8862V10.1562H35.8407C35.8407 9.82102 35.7725 9.52415 35.6362 9.26562C35.4998 9.00426 35.3081 8.7983 35.0609 8.64773C34.8166 8.49716 34.5297 8.42188 34.2001 8.42188C33.8422 8.42188 33.5297 8.50994 33.2626 8.68608C32.9984 8.85937 32.7939 9.08665 32.649 9.3679C32.5069 9.64631 32.4359 9.94886 32.4359 10.2756V11.0213C32.4359 11.4588 32.5126 11.831 32.666 12.1378C32.8223 12.4446 33.0396 12.679 33.318 12.8409C33.5964 13 33.9217 13.0795 34.2939 13.0795C34.5353 13.0795 34.7555 13.0455 34.9544 12.9773C35.1532 12.9062 35.3251 12.8011 35.47 12.6619C35.6149 12.5227 35.7257 12.3509 35.8024 12.1463L37.0083 12.3636C36.9118 12.7187 36.7385 13.0298 36.4885 13.2969C36.2413 13.5611 35.9302 13.767 35.5552 13.9148C35.1831 14.0597 34.7583 14.1321 34.2811 14.1321ZM39.7772 5.27273V14H38.503V5.27273H39.7772ZM48.8134 11.2855V7.45455H50.0918V14H48.839V12.8665H48.7708C48.6202 13.2159 48.3787 13.5071 48.0463 13.7401C47.7168 13.9702 47.3063 14.0852 46.8148 14.0852C46.3944 14.0852 46.0222 13.9929 45.6983 13.8082C45.3773 13.6207 45.1245 13.3438 44.9398 12.9773C44.758 12.6108 44.6671 12.1577 44.6671 11.6179V7.45455H45.9412V11.4645C45.9412 11.9105 46.0648 12.2656 46.312 12.5298C46.5591 12.794 46.8801 12.9261 47.275 12.9261C47.5137 12.9261 47.7509 12.8665 47.9867 12.7472C48.2253 12.6278 48.4228 12.4474 48.579 12.206C48.7381 11.9645 48.8162 11.6577 48.8134 11.2855ZM51.8038 16.4545V7.45455H53.0481V8.51562H53.1547C53.2285 8.37926 53.335 8.22159 53.4743 8.04261C53.6135 7.86364 53.8066 7.70739 54.0538 7.57386C54.301 7.4375 54.6277 7.36932 55.0339 7.36932C55.5623 7.36932 56.0339 7.50284 56.4487 7.76989C56.8635 8.03693 57.1887 8.42187 57.4245 8.92472C57.6632 9.42756 57.7825 10.0327 57.7825 10.7401C57.7825 11.4474 57.6646 12.054 57.4288 12.5597C57.193 13.0625 56.8691 13.4503 56.4572 13.723C56.0453 13.9929 55.5751 14.1278 55.0467 14.1278C54.649 14.1278 54.3237 14.0611 54.0708 13.9276C53.8208 13.794 53.6248 13.6378 53.4828 13.4588C53.3407 13.2798 53.2314 13.1207 53.1547 12.9815H53.0779V16.4545H51.8038ZM53.0524 10.7273C53.0524 11.1875 53.1191 11.5909 53.2527 11.9375C53.3862 12.2841 53.5794 12.5554 53.8322 12.7514C54.085 12.9446 54.3947 13.0412 54.7612 13.0412C55.1419 13.0412 55.46 12.9403 55.7157 12.7386C55.9714 12.5341 56.1646 12.2571 56.2953 11.9077C56.4288 11.5582 56.4956 11.1648 56.4956 10.7273C56.4956 10.2955 56.4302 9.90767 56.2995 9.56392C56.1717 9.22017 55.9785 8.94886 55.72 8.75C55.4643 8.55114 55.1447 8.4517 54.7612 8.4517C54.3919 8.4517 54.0794 8.54687 53.8237 8.73722C53.5708 8.92756 53.3791 9.19318 53.2484 9.53409C53.1177 9.875 53.0524 10.2727 53.0524 10.7273ZM63.1912 16.4545C63.0009 16.4545 62.8276 16.4389 62.6713 16.4077C62.5151 16.3793 62.3986 16.348 62.3219 16.3139L62.6287 15.2699C62.8617 15.3324 63.0691 15.3594 63.2509 15.3509C63.4327 15.3423 63.5932 15.2741 63.7324 15.1463C63.8745 15.0185 63.9995 14.8097 64.1074 14.5199L64.2651 14.0852L61.8702 7.45455H63.2338L64.8915 12.5341H64.9597L66.6174 7.45455H67.9853L65.2878 14.8736C65.1628 15.2145 65.0037 15.5028 64.8105 15.7386C64.6174 15.9773 64.3873 16.1563 64.1202 16.2756C63.8532 16.3949 63.5435 16.4545 63.1912 16.4545ZM71.7172 14.1321C71.1035 14.1321 70.568 13.9915 70.1106 13.7102C69.6532 13.429 69.2981 13.0355 69.0453 12.5298C68.7924 12.0241 68.666 11.4332 68.666 10.7571C68.666 10.0781 68.7924 9.48437 69.0453 8.97585C69.2981 8.46733 69.6532 8.07244 70.1106 7.79119C70.568 7.50994 71.1035 7.36932 71.7172 7.36932C72.3308 7.36932 72.8663 7.50994 73.3237 7.79119C73.7811 8.07244 74.1362 8.46733 74.389 8.97585C74.6419 9.48437 74.7683 10.0781 74.7683 10.7571C74.7683 11.4332 74.6419 12.0241 74.389 12.5298C74.1362 13.0355 73.7811 13.429 73.3237 13.7102C72.8663 13.9915 72.3308 14.1321 71.7172 14.1321ZM71.7214 13.0625C72.1191 13.0625 72.4487 12.9574 72.71 12.7472C72.9714 12.5369 73.1646 12.2571 73.2896 11.9077C73.4174 11.5582 73.4814 11.1733 73.4814 10.7528C73.4814 10.3352 73.4174 9.9517 73.2896 9.60227C73.1646 9.25 72.9714 8.96733 72.71 8.75426C72.4487 8.54119 72.1191 8.43466 71.7214 8.43466C71.3208 8.43466 70.9885 8.54119 70.7243 8.75426C70.4629 8.96733 70.2683 9.25 70.1404 9.60227C70.0154 9.9517 69.9529 10.3352 69.9529 10.7528C69.9529 11.1733 70.0154 11.5582 70.1404 11.9077C70.2683 12.2571 70.4629 12.5369 70.7243 12.7472C70.9885 12.9574 71.3208 13.0625 71.7214 13.0625ZM80.3368 11.2855V7.45455H81.6152V14H80.3624V12.8665H80.2942C80.1436 13.2159 79.9022 13.5071 79.5698 13.7401C79.2402 13.9702 78.8297 14.0852 78.3382 14.0852C77.9178 14.0852 77.5456 13.9929 77.2218 13.8082C76.9007 13.6207 76.6479 13.3438 76.4632 12.9773C76.2814 12.6108 76.1905 12.1577 76.1905 11.6179V7.45455H77.4647V11.4645C77.4647 11.9105 77.5882 12.2656 77.8354 12.5298C78.0826 12.794 78.4036 12.9261 78.7985 12.9261C79.0371 12.9261 79.2743 12.8665 79.5101 12.7472C79.7488 12.6278 79.9462 12.4474 80.1025 12.206C80.2615 11.9645 80.3397 11.6577 80.3368 11.2855ZM83.3272 14V7.45455H84.5588V8.49432H84.627C84.7463 8.14205 84.9565 7.86506 85.2576 7.66335C85.5616 7.45881 85.9054 7.35653 86.2889 7.35653C86.3684 7.35653 86.4622 7.35937 86.5701 7.36506C86.6809 7.37074 86.7676 7.37784 86.8301 7.38636V8.60511C86.7789 8.59091 86.688 8.57528 86.5574 8.55824C86.4267 8.53835 86.296 8.52841 86.1653 8.52841C85.8642 8.52841 85.5957 8.59233 85.3599 8.72017C85.127 8.84517 84.9423 9.01989 84.8059 9.24432C84.6696 9.46591 84.6014 9.71875 84.6014 10.0028V14H83.3272ZM93.8656 14.1321C93.2321 14.1321 92.6866 13.9886 92.2292 13.7017C91.7747 13.4119 91.4252 13.0128 91.1809 12.5043C90.9366 11.9957 90.8145 11.4134 90.8145 10.7571C90.8145 10.0923 90.9395 9.50568 91.1895 8.99716C91.4395 8.4858 91.7917 8.08665 92.2463 7.79972C92.7008 7.51278 93.2363 7.36932 93.8528 7.36932C94.35 7.36932 94.7931 7.46165 95.1824 7.64631C95.5716 7.82812 95.8855 8.08381 96.1241 8.41335C96.3656 8.7429 96.5091 9.12784 96.5545 9.56818H95.3145C95.2463 9.26136 95.09 8.99716 94.8457 8.77557C94.6042 8.55398 94.2804 8.44318 93.8741 8.44318C93.519 8.44318 93.2079 8.53693 92.9409 8.72443C92.6767 8.90909 92.4707 9.1733 92.323 9.51705C92.1752 9.85795 92.1014 10.2614 92.1014 10.7273C92.1014 11.2045 92.1738 11.6165 92.3187 11.9631C92.4636 12.3097 92.6681 12.5781 92.9324 12.7685C93.1994 12.9588 93.5133 13.054 93.8741 13.054C94.1156 13.054 94.3343 13.0099 94.5304 12.9219C94.7292 12.831 94.8954 12.7017 95.0289 12.5341C95.1653 12.3665 95.2605 12.1648 95.3145 11.929H96.5545C96.5091 12.3523 96.3713 12.7301 96.1412 13.0625C95.911 13.3949 95.6028 13.6562 95.2164 13.8466C94.8329 14.0369 94.3826 14.1321 93.8656 14.1321ZM100.674 14.1321C100.061 14.1321 99.525 13.9915 99.0676 13.7102C98.6103 13.429 98.2551 13.0355 98.0023 12.5298C97.7495 12.0241 97.623 11.4332 97.623 10.7571C97.623 10.0781 97.7495 9.48437 98.0023 8.97585C98.2551 8.46733 98.6103 8.07244 99.0676 7.79119C99.525 7.50994 100.061 7.36932 100.674 7.36932C101.288 7.36932 101.823 7.50994 102.281 7.79119C102.738 8.07244 103.093 8.46733 103.346 8.97585C103.599 9.48437 103.725 10.0781 103.725 10.7571C103.725 11.4332 103.599 12.0241 103.346 12.5298C103.093 13.0355 102.738 13.429 102.281 13.7102C101.823 13.9915 101.288 14.1321 100.674 14.1321ZM100.678 13.0625C101.076 13.0625 101.406 12.9574 101.667 12.7472C101.928 12.5369 102.122 12.2571 102.247 11.9077C102.374 11.5582 102.438 11.1733 102.438 10.7528C102.438 10.3352 102.374 9.9517 102.247 9.60227C102.122 9.25 101.928 8.96733 101.667 8.75426C101.406 8.54119 101.076 8.43466 100.678 8.43466C100.278 8.43466 99.9455 8.54119 99.6813 8.75426C99.4199 8.96733 99.2253 9.25 99.0975 9.60227C98.9725 9.9517 98.91 10.3352 98.91 10.7528C98.91 11.1733 98.9725 11.5582 99.0975 11.9077C99.2253 12.2571 99.4199 12.5369 99.6813 12.7472C99.9455 12.9574 100.278 13.0625 100.678 13.0625ZM106.422 10.1136V14H105.148V7.45455H106.371V8.51989H106.452C106.602 8.1733 106.838 7.89489 107.159 7.68466C107.483 7.47443 107.89 7.36932 108.382 7.36932C108.828 7.36932 109.219 7.46307 109.554 7.65057C109.889 7.83523 110.149 8.1108 110.334 8.47727C110.518 8.84375 110.611 9.29687 110.611 9.83665V14H109.336V9.99006C109.336 9.51562 109.213 9.14489 108.966 8.87784C108.719 8.60795 108.379 8.47301 107.947 8.47301C107.652 8.47301 107.389 8.53693 107.159 8.66477C106.932 8.79261 106.751 8.98011 106.618 9.22727C106.487 9.47159 106.422 9.76705 106.422 10.1136ZM115.375 7.45455V8.47727H111.8V7.45455H115.375ZM112.758 5.88636H114.032V12.0781C114.032 12.3253 114.069 12.5114 114.143 12.6364C114.217 12.7585 114.312 12.8423 114.429 12.8878C114.548 12.9304 114.677 12.9517 114.817 12.9517C114.919 12.9517 115.008 12.9446 115.085 12.9304C115.162 12.9162 115.221 12.9048 115.264 12.8963L115.494 13.9489C115.42 13.9773 115.315 14.0057 115.179 14.0341C115.042 14.0653 114.872 14.0824 114.667 14.0852C114.332 14.0909 114.02 14.0312 113.73 13.9062C113.44 13.7812 113.206 13.5881 113.027 13.3267C112.848 13.0653 112.758 12.7372 112.758 12.3423V5.88636ZM119.535 14.1321C118.89 14.1321 118.335 13.9943 117.869 13.7188C117.406 13.4403 117.048 13.0497 116.795 12.5469C116.545 12.0412 116.42 11.4489 116.42 10.7699C116.42 10.0994 116.545 9.50852 116.795 8.99716C117.048 8.4858 117.4 8.08665 117.852 7.79972C118.306 7.51278 118.838 7.36932 119.445 7.36932C119.815 7.36932 120.173 7.4304 120.519 7.55256C120.866 7.67472 121.177 7.86648 121.453 8.12784C121.728 8.3892 121.945 8.72869 122.105 9.14631C122.264 9.56108 122.343 10.0653 122.343 10.6591V11.1108H117.14V10.1562H121.095C121.095 9.82102 121.026 9.52415 120.89 9.26562C120.754 9.00426 120.562 8.7983 120.315 8.64773C120.07 8.49716 119.784 8.42188 119.454 8.42188C119.096 8.42188 118.784 8.50994 118.517 8.68608C118.252 8.85937 118.048 9.08665 117.903 9.3679C117.761 9.64631 117.69 9.94886 117.69 10.2756V11.0213C117.69 11.4588 117.767 11.831 117.92 12.1378C118.076 12.4446 118.294 12.679 118.572 12.8409C118.85 13 119.176 13.0795 119.548 13.0795C119.789 13.0795 120.009 13.0455 120.208 12.9773C120.407 12.9062 120.579 12.8011 120.724 12.6619C120.869 12.5227 120.98 12.3509 121.056 12.1463L122.262 12.3636C122.166 12.7187 121.992 13.0298 121.742 13.2969C121.495 13.5611 121.184 13.767 120.809 13.9148C120.437 14.0597 120.012 14.1321 119.535 14.1321ZM125.031 10.1136V14H123.757V7.45455H124.98V8.51989H125.061C125.211 8.1733 125.447 7.89489 125.768 7.68466C126.092 7.47443 126.5 7.36932 126.991 7.36932C127.437 7.36932 127.828 7.46307 128.163 7.65057C128.498 7.83523 128.758 8.1108 128.943 8.47727C129.128 8.84375 129.22 9.29687 129.22 9.83665V14H127.946V9.99006C127.946 9.51562 127.822 9.14489 127.575 8.87784C127.328 8.60795 126.988 8.47301 126.557 8.47301C126.261 8.47301 125.998 8.53693 125.768 8.66477C125.541 8.79261 125.361 8.98011 125.227 9.22727C125.096 9.47159 125.031 9.76705 125.031 10.1136ZM133.984 7.45455V8.47727H130.409V7.45455H133.984ZM131.368 5.88636H132.642V12.0781C132.642 12.3253 132.679 12.5114 132.753 12.6364C132.827 12.7585 132.922 12.8423 133.038 12.8878C133.157 12.9304 133.287 12.9517 133.426 12.9517C133.528 12.9517 133.618 12.9446 133.694 12.9304C133.771 12.9162 133.831 12.9048 133.873 12.8963L134.104 13.9489C134.03 13.9773 133.925 14.0057 133.788 14.0341C133.652 14.0653 133.481 14.0824 133.277 14.0852C132.942 14.0909 132.629 14.0312 132.339 13.9062C132.05 13.7812 131.815 13.5881 131.636 13.3267C131.457 13.0653 131.368 12.7372 131.368 12.3423V5.88636ZM141.314 16.5909C140.794 16.5909 140.346 16.5227 139.971 16.3864C139.599 16.25 139.295 16.0696 139.059 15.8452C138.824 15.6207 138.648 15.375 138.531 15.108L139.626 14.6562C139.703 14.7812 139.805 14.9134 139.933 15.0526C140.064 15.1946 140.24 15.3153 140.461 15.4148C140.686 15.5142 140.974 15.5639 141.327 15.5639C141.809 15.5639 142.209 15.446 142.524 15.2102C142.839 14.9773 142.997 14.6051 142.997 14.0938V12.8068H142.916C142.839 12.946 142.729 13.1009 142.584 13.2713C142.442 13.4418 142.246 13.5895 141.996 13.7145C141.746 13.8395 141.42 13.902 141.02 13.902C140.503 13.902 140.037 13.7812 139.622 13.5398C139.21 13.2955 138.883 12.9361 138.642 12.4616C138.403 11.9844 138.284 11.3977 138.284 10.7017C138.284 10.0057 138.402 9.40909 138.638 8.91193C138.876 8.41477 139.203 8.03409 139.618 7.76989C140.032 7.50284 140.503 7.36932 141.028 7.36932C141.434 7.36932 141.763 7.4375 142.013 7.57386C142.263 7.70739 142.457 7.86364 142.596 8.04261C142.738 8.22159 142.848 8.37926 142.925 8.51562H143.018V7.45455H144.267V14.1449C144.267 14.7074 144.136 15.169 143.875 15.5298C143.613 15.8906 143.26 16.1577 142.814 16.331C142.371 16.5043 141.871 16.5909 141.314 16.5909ZM141.301 12.8452C141.667 12.8452 141.977 12.7599 142.23 12.5895C142.486 12.4162 142.679 12.169 142.809 11.848C142.943 11.5241 143.01 11.1364 143.01 10.6847C143.01 10.2443 142.944 9.85653 142.814 9.52131C142.683 9.18608 142.491 8.92472 142.238 8.73722C141.986 8.54687 141.673 8.4517 141.301 8.4517C140.917 8.4517 140.598 8.55114 140.342 8.75C140.086 8.94602 139.893 9.21307 139.763 9.55114C139.635 9.8892 139.571 10.267 139.571 10.6847C139.571 11.1136 139.636 11.4901 139.767 11.8139C139.898 12.1378 140.091 12.3906 140.346 12.5724C140.605 12.7543 140.923 12.8452 141.301 12.8452ZM147.881 14.1449C147.466 14.1449 147.091 14.0682 146.756 13.9148C146.42 13.7585 146.155 13.5327 145.959 13.2372C145.765 12.9418 145.669 12.5795 145.669 12.1506C145.669 11.7812 145.74 11.4773 145.882 11.2386C146.024 11 146.216 10.8111 146.457 10.6719C146.699 10.5327 146.969 10.4276 147.267 10.3565C147.565 10.2855 147.869 10.2315 148.179 10.1946C148.571 10.1491 148.889 10.1122 149.133 10.0838C149.378 10.0526 149.555 10.0028 149.666 9.93466C149.777 9.86648 149.832 9.75568 149.832 9.60227V9.57244C149.832 9.20028 149.727 8.91193 149.517 8.70739C149.309 8.50284 149 8.40057 148.588 8.40057C148.159 8.40057 147.821 8.49574 147.574 8.68608C147.329 8.87358 147.16 9.08239 147.067 9.3125L145.869 9.03977C146.011 8.64205 146.219 8.32102 146.491 8.0767C146.767 7.82955 147.084 7.65057 147.442 7.53977C147.8 7.42614 148.176 7.36932 148.571 7.36932C148.832 7.36932 149.109 7.40057 149.402 7.46307C149.697 7.52273 149.973 7.63352 150.229 7.79545C150.487 7.95739 150.699 8.18892 150.863 8.49006C151.028 8.78835 151.111 9.17614 151.111 9.65341V14H149.866V13.1051H149.815C149.733 13.2699 149.609 13.4318 149.444 13.5909C149.28 13.75 149.068 13.8821 148.809 13.9872C148.551 14.0923 148.241 14.1449 147.881 14.1449ZM148.157 13.1222C148.51 13.1222 148.811 13.0526 149.061 12.9134C149.314 12.7741 149.506 12.5923 149.636 12.3679C149.77 12.1406 149.836 11.8977 149.836 11.6392V10.7955C149.791 10.8409 149.703 10.8835 149.572 10.9233C149.444 10.9602 149.298 10.9929 149.133 11.0213C148.969 11.0469 148.808 11.071 148.652 11.0938C148.496 11.1136 148.365 11.1307 148.26 11.1449C148.013 11.1761 147.787 11.2287 147.582 11.3026C147.381 11.3764 147.219 11.483 147.096 11.6222C146.977 11.7585 146.917 11.9403 146.917 12.1676C146.917 12.483 147.034 12.7216 147.267 12.8835C147.5 13.0426 147.797 13.1222 148.157 13.1222ZM152.808 14V7.45455H154.031V8.51989H154.112C154.248 8.15909 154.471 7.87784 154.781 7.67614C155.09 7.47159 155.461 7.36932 155.893 7.36932C156.33 7.36932 156.697 7.47159 156.992 7.67614C157.291 7.88068 157.511 8.16193 157.653 8.51989H157.721C157.877 8.17045 158.126 7.89205 158.467 7.68466C158.808 7.47443 159.214 7.36932 159.686 7.36932C160.279 7.36932 160.764 7.5554 161.139 7.92756C161.517 8.29972 161.705 8.8608 161.705 9.6108V14H160.431V9.73011C160.431 9.28693 160.311 8.96591 160.069 8.76705C159.828 8.56818 159.539 8.46875 159.204 8.46875C158.789 8.46875 158.467 8.59659 158.237 8.85227C158.007 9.10511 157.892 9.4304 157.892 9.82812V14H156.622V9.64915C156.622 9.29403 156.511 9.00852 156.289 8.79261C156.068 8.5767 155.779 8.46875 155.424 8.46875C155.183 8.46875 154.96 8.53267 154.755 8.66051C154.553 8.78551 154.39 8.96023 154.265 9.18466C154.143 9.40909 154.082 9.66903 154.082 9.96449V14H152.808ZM166.234 14.1321C165.589 14.1321 165.034 13.9943 164.568 13.7188C164.105 13.4403 163.747 13.0497 163.494 12.5469C163.244 12.0412 163.119 11.4489 163.119 10.7699C163.119 10.0994 163.244 9.50852 163.494 8.99716C163.747 8.4858 164.099 8.08665 164.551 7.79972C165.006 7.51278 165.537 7.36932 166.145 7.36932C166.514 7.36932 166.872 7.4304 167.219 7.55256C167.565 7.67472 167.876 7.86648 168.152 8.12784C168.427 8.3892 168.645 8.72869 168.804 9.14631C168.963 9.56108 169.042 10.0653 169.042 10.6591V11.1108H163.839V10.1562H167.794C167.794 9.82102 167.726 9.52415 167.589 9.26562C167.453 9.00426 167.261 8.7983 167.014 8.64773C166.77 8.49716 166.483 8.42188 166.153 8.42188C165.795 8.42188 165.483 8.50994 165.216 8.68608C164.952 8.85937 164.747 9.08665 164.602 9.3679C164.46 9.64631 164.389 9.94886 164.389 10.2756V11.0213C164.389 11.4588 164.466 11.831 164.619 12.1378C164.775 12.4446 164.993 12.679 165.271 12.8409C165.55 13 165.875 13.0795 166.247 13.0795C166.488 13.0795 166.709 13.0455 166.907 12.9773C167.106 12.9062 167.278 12.8011 167.423 12.6619C167.568 12.5227 167.679 12.3509 167.756 12.1463L168.961 12.3636C168.865 12.7187 168.692 13.0298 168.442 13.2969C168.194 13.5611 167.883 13.767 167.508 13.9148C167.136 14.0597 166.711 14.1321 166.234 14.1321Z" fill="#020817"/>
</svg>
