<svg width="88" height="20" viewBox="0 0 88 20" fill="none" xmlns="http://www.w3.org/2000/svg">
<rect width="88" height="20" rx="10" fill="#C084FC"/>
<path d="M13.193 14.1449C12.7782 14.1449 12.4032 14.0682 12.068 13.9148C11.7328 13.7585 11.4672 13.5327 11.2711 13.2372C11.0779 12.9418 10.9814 12.5795 10.9814 12.1506C10.9814 11.7812 11.0524 11.4773 11.1944 11.2386C11.3365 11 11.5282 10.8111 11.7697 10.6719C12.0112 10.5327 12.2811 10.4276 12.5794 10.3565C12.8777 10.2855 13.1816 10.2315 13.4913 10.1946C13.8833 10.1491 14.2015 10.1122 14.4458 10.0838C14.6902 10.0526 14.8677 10.0028 14.9785 9.93466C15.0893 9.86648 15.1447 9.75568 15.1447 9.60227V9.57244C15.1447 9.20028 15.0396 8.91193 14.8294 8.70739C14.622 8.50284 14.3123 8.40057 13.9004 8.40057C13.4714 8.40057 13.1333 8.49574 12.8862 8.68608C12.6419 8.87358 12.4728 9.08239 12.3791 9.3125L11.1816 9.03977C11.3237 8.64205 11.5311 8.32102 11.8038 8.0767C12.0794 7.82955 12.3961 7.65057 12.7541 7.53977C13.112 7.42614 13.4885 7.36932 13.8833 7.36932C14.1447 7.36932 14.4217 7.40057 14.7143 7.46307C15.0098 7.52273 15.2853 7.63352 15.541 7.79545C15.7995 7.95739 16.0112 8.18892 16.176 8.49006C16.3407 8.78835 16.4231 9.17614 16.4231 9.65341V14H15.1788V13.1051H15.1277C15.0453 13.2699 14.9217 13.4318 14.7569 13.5909C14.5922 13.75 14.3805 13.8821 14.122 13.9872C13.8635 14.0923 13.5538 14.1449 13.193 14.1449ZM13.47 13.1222C13.8223 13.1222 14.1234 13.0526 14.3734 12.9134C14.6262 12.7741 14.818 12.5923 14.9487 12.3679C15.0822 12.1406 15.149 11.8977 15.149 11.6392V10.7955C15.1035 10.8409 15.0154 10.8835 14.8848 10.9233C14.7569 10.9602 14.6106 10.9929 14.4458 11.0213C14.2811 11.0469 14.1206 11.071 13.9643 11.0938C13.8081 11.1136 13.6774 11.1307 13.5723 11.1449C13.3251 11.1761 13.0993 11.2287 12.8947 11.3026C12.693 11.3764 12.5311 11.483 12.4089 11.6222C12.2896 11.7585 12.2299 11.9403 12.2299 12.1676C12.2299 12.483 12.3464 12.7216 12.5794 12.8835C12.8123 13.0426 13.1092 13.1222 13.47 13.1222ZM20.5705 14.1278C20.0421 14.1278 19.5705 13.9929 19.1557 13.723C18.7438 13.4503 18.4199 13.0625 18.1841 12.5597C17.9512 12.054 17.8347 11.4474 17.8347 10.7401C17.8347 10.0327 17.9526 9.42756 18.1884 8.92472C18.427 8.42187 18.7537 8.03693 19.1685 7.76989C19.5833 7.50284 20.0534 7.36932 20.579 7.36932C20.9853 7.36932 21.312 7.4375 21.5591 7.57386C21.8091 7.70739 22.0023 7.86364 22.1387 8.04261C22.2779 8.22159 22.3858 8.37926 22.4625 8.51562H22.5392V5.27273H23.8134V14H22.5691V12.9815H22.4625C22.3858 13.1207 22.275 13.2798 22.1301 13.4588C21.9881 13.6378 21.7921 13.794 21.5421 13.9276C21.2921 14.0611 20.9682 14.1278 20.5705 14.1278ZM20.8517 13.0412C21.2182 13.0412 21.5279 12.9446 21.7807 12.7514C22.0364 12.5554 22.2296 12.2841 22.3603 11.9375C22.4938 11.5909 22.5605 11.1875 22.5605 10.7273C22.5605 10.2727 22.4952 9.875 22.3645 9.53409C22.2338 9.19318 22.0421 8.92756 21.7892 8.73722C21.5364 8.54687 21.2239 8.4517 20.8517 8.4517C20.4682 8.4517 20.1486 8.55114 19.8929 8.75C19.6373 8.94886 19.4441 9.22017 19.3134 9.56392C19.1855 9.90767 19.1216 10.2955 19.1216 10.7273C19.1216 11.1648 19.187 11.5582 19.3176 11.9077C19.4483 12.2571 19.6415 12.5341 19.8972 12.7386C20.1557 12.9403 20.4739 13.0412 20.8517 13.0412ZM31.2314 7.45455L28.8578 14H27.4941L25.1163 7.45455H26.4842L28.1419 12.4915H28.21L29.8635 7.45455H31.2314ZM34.1461 14.1449C33.7314 14.1449 33.3564 14.0682 33.0211 13.9148C32.6859 13.7585 32.4203 13.5327 32.2243 13.2372C32.0311 12.9418 31.9345 12.5795 31.9345 12.1506C31.9345 11.7812 32.0055 11.4773 32.1475 11.2386C32.2896 11 32.4814 10.8111 32.7228 10.6719C32.9643 10.5327 33.2342 10.4276 33.5325 10.3565C33.8308 10.2855 34.1348 10.2315 34.4444 10.1946C34.8365 10.1491 35.1547 10.1122 35.399 10.0838C35.6433 10.0526 35.8208 10.0028 35.9316 9.93466C36.0424 9.86648 36.0978 9.75568 36.0978 9.60227V9.57244C36.0978 9.20028 35.9927 8.91193 35.7825 8.70739C35.5751 8.50284 35.2654 8.40057 34.8535 8.40057C34.4245 8.40057 34.0865 8.49574 33.8393 8.68608C33.595 8.87358 33.426 9.08239 33.3322 9.3125L32.1348 9.03977C32.2768 8.64205 32.4842 8.32102 32.7569 8.0767C33.0325 7.82955 33.3493 7.65057 33.7072 7.53977C34.0652 7.42614 34.4416 7.36932 34.8365 7.36932C35.0978 7.36932 35.3748 7.40057 35.6674 7.46307C35.9629 7.52273 36.2385 7.63352 36.4941 7.79545C36.7527 7.95739 36.9643 8.18892 37.1291 8.49006C37.2939 8.78835 37.3762 9.17614 37.3762 9.65341V14H36.1319V13.1051H36.0808C35.9984 13.2699 35.8748 13.4318 35.71 13.5909C35.5453 13.75 35.3336 13.8821 35.0751 13.9872C34.8166 14.0923 34.5069 14.1449 34.1461 14.1449ZM34.4231 13.1222C34.7754 13.1222 35.0765 13.0526 35.3265 12.9134C35.5794 12.7741 35.7711 12.5923 35.9018 12.3679C36.0353 12.1406 36.1021 11.8977 36.1021 11.6392V10.7955C36.0566 10.8409 35.9686 10.8835 35.8379 10.9233C35.71 10.9602 35.5637 10.9929 35.399 11.0213C35.2342 11.0469 35.0737 11.071 34.9174 11.0938C34.7612 11.1136 34.6305 11.1307 34.5254 11.1449C34.2782 11.1761 34.0524 11.2287 33.8478 11.3026C33.6461 11.3764 33.4842 11.483 33.362 11.6222C33.2427 11.7585 33.1831 11.9403 33.1831 12.1676C33.1831 12.483 33.2995 12.7216 33.5325 12.8835C33.7654 13.0426 34.0623 13.1222 34.4231 13.1222ZM40.3475 10.1136V14H39.0733V7.45455H40.2963V8.51989H40.3773C40.5279 8.1733 40.7637 7.89489 41.0847 7.68466C41.4086 7.47443 41.8162 7.36932 42.3077 7.36932C42.7537 7.36932 43.1444 7.46307 43.4796 7.65057C43.8148 7.83523 44.0748 8.1108 44.2594 8.47727C44.4441 8.84375 44.5364 9.29687 44.5364 9.83665V14H43.2623V9.99006C43.2623 9.51562 43.1387 9.14489 42.8915 8.87784C42.6444 8.60795 42.3049 8.47301 41.873 8.47301C41.5776 8.47301 41.3148 8.53693 41.0847 8.66477C40.8574 8.79261 40.677 8.98011 40.5435 9.22727C40.4128 9.47159 40.3475 9.76705 40.3475 10.1136ZM49.3006 7.45455V8.47727H45.7253V7.45455H49.3006ZM46.6841 5.88636H47.9583V12.0781C47.9583 12.3253 47.9952 12.5114 48.0691 12.6364C48.1429 12.7585 48.2381 12.8423 48.3546 12.8878C48.4739 12.9304 48.6032 12.9517 48.7424 12.9517C48.8446 12.9517 48.9341 12.9446 49.0108 12.9304C49.0875 12.9162 49.1472 12.9048 49.1898 12.8963L49.4199 13.9489C49.3461 13.9773 49.2409 14.0057 49.1046 14.0341C48.9682 14.0653 48.7978 14.0824 48.5932 14.0852C48.258 14.0909 47.9455 14.0312 47.6557 13.9062C47.3659 13.7812 47.1316 13.5881 46.9526 13.3267C46.7736 13.0653 46.6841 12.7372 46.6841 12.3423V5.88636ZM52.6149 14.1449C52.2001 14.1449 51.8251 14.0682 51.4899 13.9148C51.1547 13.7585 50.889 13.5327 50.693 13.2372C50.4998 12.9418 50.4032 12.5795 50.4032 12.1506C50.4032 11.7812 50.4743 11.4773 50.6163 11.2386C50.7583 11 50.9501 10.8111 51.1916 10.6719C51.4331 10.5327 51.7029 10.4276 52.0012 10.3565C52.2995 10.2855 52.6035 10.2315 52.9132 10.1946C53.3052 10.1491 53.6234 10.1122 53.8677 10.0838C54.112 10.0526 54.2896 10.0028 54.4004 9.93466C54.5112 9.86648 54.5666 9.75568 54.5666 9.60227V9.57244C54.5666 9.20028 54.4615 8.91193 54.2512 8.70739C54.0439 8.50284 53.7342 8.40057 53.3223 8.40057C52.8933 8.40057 52.5552 8.49574 52.3081 8.68608C52.0637 8.87358 51.8947 9.08239 51.801 9.3125L50.6035 9.03977C50.7456 8.64205 50.9529 8.32102 51.2257 8.0767C51.5012 7.82955 51.818 7.65057 52.176 7.53977C52.5339 7.42614 52.9103 7.36932 53.3052 7.36932C53.5666 7.36932 53.8436 7.40057 54.1362 7.46307C54.4316 7.52273 54.7072 7.63352 54.9629 7.79545C55.2214 7.95739 55.4331 8.18892 55.5978 8.49006C55.7626 8.78835 55.845 9.17614 55.845 9.65341V14H54.6007V13.1051H54.5495C54.4672 13.2699 54.3436 13.4318 54.1788 13.5909C54.014 13.75 53.8024 13.8821 53.5439 13.9872C53.2853 14.0923 52.9757 14.1449 52.6149 14.1449ZM52.8919 13.1222C53.2441 13.1222 53.5453 13.0526 53.7953 12.9134C54.0481 12.7741 54.2399 12.5923 54.3706 12.3679C54.5041 12.1406 54.5708 11.8977 54.5708 11.6392V10.7955C54.5254 10.8409 54.4373 10.8835 54.3066 10.9233C54.1788 10.9602 54.0325 10.9929 53.8677 11.0213C53.7029 11.0469 53.5424 11.071 53.3862 11.0938C53.2299 11.1136 53.0993 11.1307 52.9941 11.1449C52.747 11.1761 52.5211 11.2287 52.3166 11.3026C52.1149 11.3764 51.9529 11.483 51.8308 11.6222C51.7115 11.7585 51.6518 11.9403 51.6518 12.1676C51.6518 12.483 51.7683 12.7216 52.0012 12.8835C52.2342 13.0426 52.5311 13.1222 52.8919 13.1222ZM60.2864 16.5909C59.7665 16.5909 59.3191 16.5227 58.9441 16.3864C58.5719 16.25 58.2679 16.0696 58.0321 15.8452C57.7963 15.6207 57.6202 15.375 57.5037 15.108L58.5989 14.6562C58.6756 14.7812 58.7779 14.9134 58.9057 15.0526C59.0364 15.1946 59.2125 15.3153 59.4341 15.4148C59.6586 15.5142 59.9469 15.5639 60.2992 15.5639C60.7821 15.5639 61.1813 15.446 61.4966 15.2102C61.812 14.9773 61.9696 14.6051 61.9696 14.0938V12.8068H61.8887C61.812 12.946 61.7012 13.1009 61.5563 13.2713C61.4142 13.4418 61.2182 13.5895 60.9682 13.7145C60.7182 13.8395 60.3929 13.902 59.9924 13.902C59.4753 13.902 59.0094 13.7812 58.5946 13.5398C58.1827 13.2955 57.856 12.9361 57.6145 12.4616C57.3759 11.9844 57.2566 11.3977 57.2566 10.7017C57.2566 10.0057 57.3745 9.40909 57.6103 8.91193C57.8489 8.41477 58.1756 8.03409 58.5904 7.76989C59.0051 7.50284 59.4753 7.36932 60.0009 7.36932C60.4071 7.36932 60.7353 7.4375 60.9853 7.57386C61.2353 7.70739 61.4299 7.86364 61.5691 8.04261C61.7111 8.22159 61.8205 8.37926 61.8972 8.51562H61.9909V7.45455H63.2395V14.1449C63.2395 14.7074 63.1088 15.169 62.8475 15.5298C62.5861 15.8906 62.2324 16.1577 61.7864 16.331C61.3432 16.5043 60.8432 16.5909 60.2864 16.5909ZM60.2736 12.8452C60.6401 12.8452 60.9498 12.7599 61.2026 12.5895C61.4583 12.4162 61.6515 12.169 61.7821 11.848C61.9157 11.5241 61.9824 11.1364 61.9824 10.6847C61.9824 10.2443 61.9171 9.85653 61.7864 9.52131C61.6557 9.18608 61.464 8.92472 61.2111 8.73722C60.9583 8.54687 60.6458 8.4517 60.2736 8.4517C59.8901 8.4517 59.5705 8.55114 59.3148 8.75C59.0591 8.94602 58.8659 9.21307 58.7353 9.55114C58.6074 9.8892 58.5435 10.267 58.5435 10.6847C58.5435 11.1136 58.6088 11.4901 58.7395 11.8139C58.8702 12.1378 59.0634 12.3906 59.3191 12.5724C59.5776 12.7543 59.8958 12.8452 60.2736 12.8452ZM67.7694 14.1321C67.1245 14.1321 66.5691 13.9943 66.1032 13.7188C65.6401 13.4403 65.2821 13.0497 65.0293 12.5469C64.7793 12.0412 64.6543 11.4489 64.6543 10.7699C64.6543 10.0994 64.7793 9.50852 65.0293 8.99716C65.2821 8.4858 65.6344 8.08665 66.0861 7.79972C66.5407 7.51278 67.0719 7.36932 67.6799 7.36932C68.0492 7.36932 68.4071 7.4304 68.7537 7.55256C69.1003 7.67472 69.4114 7.86648 69.687 8.12784C69.9625 8.3892 70.1799 8.72869 70.339 9.14631C70.498 9.56108 70.5776 10.0653 70.5776 10.6591V11.1108H65.3745V10.1562H69.329C69.329 9.82102 69.2608 9.52415 69.1245 9.26562C68.9881 9.00426 68.7963 8.7983 68.5492 8.64773C68.3049 8.49716 68.0179 8.42188 67.6884 8.42188C67.3304 8.42188 67.0179 8.50994 66.7509 8.68608C66.4867 8.85937 66.2821 9.08665 66.1373 9.3679C65.9952 9.64631 65.9242 9.94886 65.9242 10.2756V11.0213C65.9242 11.4588 66.0009 11.831 66.1543 12.1378C66.3105 12.4446 66.5279 12.679 66.8063 12.8409C67.0847 13 67.41 13.0795 67.7821 13.0795C68.0236 13.0795 68.2438 13.0455 68.4426 12.9773C68.6415 12.9062 68.8134 12.8011 68.9583 12.6619C69.1032 12.5227 69.214 12.3509 69.2907 12.1463L70.4966 12.3636C70.4 12.7187 70.2267 13.0298 69.9767 13.2969C69.7296 13.5611 69.4185 13.767 69.0435 13.9148C68.6713 14.0597 68.2466 14.1321 67.7694 14.1321ZM76.8961 9.05256L75.7413 9.2571C75.693 9.10937 75.6163 8.96875 75.5112 8.83523C75.4089 8.7017 75.2697 8.59233 75.0936 8.5071C74.9174 8.42187 74.6973 8.37926 74.4331 8.37926C74.0723 8.37926 73.7711 8.46023 73.5297 8.62216C73.2882 8.78125 73.1674 8.98722 73.1674 9.24006C73.1674 9.45881 73.2484 9.63494 73.4103 9.76847C73.5723 9.90199 73.8336 10.0114 74.1944 10.0966L75.2342 10.3352C75.8365 10.4744 76.2853 10.6889 76.5808 10.9787C76.8762 11.2685 77.024 11.6449 77.024 12.108C77.024 12.5 76.9103 12.8494 76.6831 13.1562C76.4586 13.4602 76.1447 13.6989 75.7413 13.8722C75.3407 14.0455 74.8762 14.1321 74.3478 14.1321C73.6149 14.1321 73.0169 13.9759 72.5538 13.6634C72.0907 13.348 71.8066 12.9006 71.7015 12.321L72.9331 12.1335C73.0098 12.4545 73.1674 12.6974 73.4061 12.8622C73.6447 13.0241 73.9558 13.1051 74.3393 13.1051C74.7569 13.1051 75.0907 13.0185 75.3407 12.8452C75.5907 12.669 75.7157 12.4545 75.7157 12.2017C75.7157 11.9972 75.639 11.8253 75.4856 11.6861C75.335 11.5469 75.1035 11.4418 74.791 11.3707L73.6831 11.1278C73.0723 10.9886 72.6206 10.767 72.3279 10.4631C72.0382 10.1591 71.8933 9.77415 71.8933 9.30824C71.8933 8.92187 72.0012 8.58381 72.2172 8.29403C72.4331 8.00426 72.7314 7.77841 73.112 7.61648C73.4927 7.4517 73.9288 7.36932 74.4203 7.36932C75.1277 7.36932 75.6845 7.52273 76.0907 7.82955C76.497 8.13352 76.7654 8.54119 76.8961 9.05256Z" fill="white"/>
</svg>
