<svg width="69" height="20" viewBox="0 0 69 20" fill="none" xmlns="http://www.w3.org/2000/svg">
<rect width="69" height="20" rx="10" fill="white"/>
<path d="M16.0856 9.05256L14.9308 9.2571C14.8825 9.10937 14.8058 8.96875 14.7006 8.83523C14.5984 8.7017 14.4592 8.59233 14.283 8.5071C14.1069 8.42187 13.8867 8.37926 13.6225 8.37926C13.2617 8.37926 12.9606 8.46023 12.7191 8.62216C12.4776 8.78125 12.3569 8.98722 12.3569 9.24006C12.3569 9.45881 12.4379 9.63494 12.5998 9.76847C12.7617 9.90199 13.0231 10.0114 13.3839 10.0966L14.4237 10.3352C15.0259 10.4744 15.4748 10.6889 15.7702 10.9787C16.0657 11.2685 16.2134 11.6449 16.2134 12.108C16.2134 12.5 16.0998 12.8494 15.8725 13.1562C15.6481 13.4602 15.3342 13.6989 14.9308 13.8722C14.5302 14.0455 14.0657 14.1321 13.5373 14.1321C12.8043 14.1321 12.2063 13.9759 11.7433 13.6634C11.2802 13.348 10.9961 12.9006 10.891 12.321L12.1225 12.1335C12.1992 12.4545 12.3569 12.6974 12.5955 12.8622C12.8342 13.0241 13.1452 13.1051 13.5288 13.1051C13.9464 13.1051 14.2802 13.0185 14.5302 12.8452C14.7802 12.669 14.9052 12.4545 14.9052 12.2017C14.9052 11.9972 14.8285 11.8253 14.6751 11.6861C14.5245 11.5469 14.293 11.4418 13.9805 11.3707L12.8725 11.1278C12.2617 10.9886 11.81 10.767 11.5174 10.4631C11.2276 10.1591 11.0827 9.77415 11.0827 9.30824C11.0827 8.92187 11.1907 8.58381 11.4066 8.29403C11.6225 8.00426 11.9208 7.77841 12.3015 7.61648C12.6822 7.4517 13.1183 7.36932 13.6097 7.36932C14.3171 7.36932 14.8739 7.52273 15.2802 7.82955C15.6864 8.13352 15.9549 8.54119 16.0856 9.05256ZM20.4354 14.1321C19.7905 14.1321 19.2351 13.9943 18.7692 13.7188C18.3061 13.4403 17.9482 13.0497 17.6953 12.5469C17.4453 12.0412 17.3203 11.4489 17.3203 10.7699C17.3203 10.0994 17.4453 9.50852 17.6953 8.99716C17.9482 8.4858 18.3004 8.08665 18.7521 7.79972C19.2067 7.51278 19.7379 7.36932 20.3459 7.36932C20.7152 7.36932 21.0732 7.4304 21.4197 7.55256C21.7663 7.67472 22.0774 7.86648 22.353 8.12784C22.6286 8.3892 22.8459 8.72869 23.005 9.14631C23.1641 9.56108 23.2436 10.0653 23.2436 10.6591V11.1108H18.0405V10.1562H21.995C21.995 9.82102 21.9268 9.52415 21.7905 9.26562C21.6541 9.00426 21.4624 8.7983 21.2152 8.64773C20.9709 8.49716 20.6839 8.42188 20.3544 8.42188C19.9964 8.42188 19.6839 8.50994 19.4169 8.68608C19.1527 8.85937 18.9482 9.08665 18.8033 9.3679C18.6612 9.64631 18.5902 9.94886 18.5902 10.2756V11.0213C18.5902 11.4588 18.6669 11.831 18.8203 12.1378C18.9766 12.4446 19.1939 12.679 19.4723 12.8409C19.7507 13 20.076 13.0795 20.4482 13.0795C20.6896 13.0795 20.9098 13.0455 21.1087 12.9773C21.3075 12.9062 21.4794 12.8011 21.6243 12.6619C21.7692 12.5227 21.88 12.3509 21.9567 12.1463L23.1626 12.3636C23.0661 12.7187 22.8928 13.0298 22.6428 13.2969C22.3956 13.5611 22.0845 13.767 21.7095 13.9148C21.3374 14.0597 20.9126 14.1321 20.4354 14.1321ZM24.6573 14V7.45455H25.8888V8.49432H25.957C26.0763 8.14205 26.2866 7.86506 26.5877 7.66335C26.8917 7.45881 27.2354 7.35653 27.619 7.35653C27.6985 7.35653 27.7923 7.35937 27.9002 7.36506C28.011 7.37074 28.0977 7.37784 28.1602 7.38636V8.60511C28.109 8.59091 28.0181 8.57528 27.8874 8.55824C27.7567 8.53835 27.6261 8.52841 27.4954 8.52841C27.1942 8.52841 26.9258 8.59233 26.69 8.72017C26.457 8.84517 26.2724 9.01989 26.136 9.24432C25.9996 9.46591 25.9315 9.71875 25.9315 10.0028V14H24.6573ZM35.0614 7.45455L32.6879 14H31.3242L28.9464 7.45455H30.3143L31.9719 12.4915H32.0401L33.6935 7.45455H35.0614ZM36.2589 14V7.45455H37.533V14H36.2589ZM36.9023 6.4446C36.6808 6.4446 36.4904 6.37074 36.3313 6.22301C36.1751 6.07244 36.0969 5.89347 36.0969 5.68608C36.0969 5.47585 36.1751 5.29687 36.3313 5.14915C36.4904 4.99858 36.6808 4.9233 36.9023 4.9233C37.1239 4.9233 37.3129 4.99858 37.4691 5.14915C37.6282 5.29687 37.7077 5.47585 37.7077 5.68608C37.7077 5.89347 37.6282 6.07244 37.4691 6.22301C37.3129 6.37074 37.1239 6.4446 36.9023 6.4446ZM42.0043 14.1321C41.3707 14.1321 40.8253 13.9886 40.3679 13.7017C39.9134 13.4119 39.5639 13.0128 39.3196 12.5043C39.0753 11.9957 38.9531 11.4134 38.9531 10.7571C38.9531 10.0923 39.0781 9.50568 39.3281 8.99716C39.5781 8.4858 39.9304 8.08665 40.3849 7.79972C40.8395 7.51278 41.375 7.36932 41.9915 7.36932C42.4886 7.36932 42.9318 7.46165 43.321 7.64631C43.7102 7.82812 44.0241 8.08381 44.2628 8.41335C44.5043 8.7429 44.6477 9.12784 44.6932 9.56818H43.4531C43.3849 9.26136 43.2287 8.99716 42.9844 8.77557C42.7429 8.55398 42.419 8.44318 42.0128 8.44318C41.6577 8.44318 41.3466 8.53693 41.0795 8.72443C40.8153 8.90909 40.6094 9.1733 40.4616 9.51705C40.3139 9.85795 40.2401 10.2614 40.2401 10.7273C40.2401 11.2045 40.3125 11.6165 40.4574 11.9631C40.6023 12.3097 40.8068 12.5781 41.071 12.7685C41.3381 12.9588 41.652 13.054 42.0128 13.054C42.2543 13.054 42.473 13.0099 42.669 12.9219C42.8679 12.831 43.0341 12.7017 43.1676 12.5341C43.304 12.3665 43.3991 12.1648 43.4531 11.929H44.6932C44.6477 12.3523 44.5099 12.7301 44.2798 13.0625C44.0497 13.3949 43.7415 13.6562 43.3551 13.8466C42.9716 14.0369 42.5213 14.1321 42.0043 14.1321ZM48.8768 14.1321C48.2319 14.1321 47.6765 13.9943 47.2106 13.7188C46.7475 13.4403 46.3896 13.0497 46.1367 12.5469C45.8867 12.0412 45.7617 11.4489 45.7617 10.7699C45.7617 10.0994 45.8867 9.50852 46.1367 8.99716C46.3896 8.4858 46.7418 8.08665 47.1935 7.79972C47.6481 7.51278 48.1793 7.36932 48.7873 7.36932C49.1566 7.36932 49.5146 7.4304 49.8612 7.55256C50.2077 7.67472 50.5188 7.86648 50.7944 8.12784C51.07 8.3892 51.2873 8.72869 51.4464 9.14631C51.6055 9.56108 51.685 10.0653 51.685 10.6591V11.1108H46.4819V10.1562H50.4364C50.4364 9.82102 50.3683 9.52415 50.2319 9.26562C50.0955 9.00426 49.9038 8.7983 49.6566 8.64773C49.4123 8.49716 49.1254 8.42188 48.7958 8.42188C48.4379 8.42188 48.1254 8.50994 47.8583 8.68608C47.5941 8.85937 47.3896 9.08665 47.2447 9.3679C47.1026 9.64631 47.0316 9.94886 47.0316 10.2756V11.0213C47.0316 11.4588 47.1083 11.831 47.2617 12.1378C47.418 12.4446 47.6353 12.679 47.9137 12.8409C48.1921 13 48.5174 13.0795 48.8896 13.0795C49.131 13.0795 49.3512 13.0455 49.5501 12.9773C49.7489 12.9062 49.9208 12.8011 50.0657 12.6619C50.2106 12.5227 50.3214 12.3509 50.3981 12.1463L51.604 12.3636C51.5075 12.7187 51.3342 13.0298 51.0842 13.2969C50.837 13.5611 50.5259 13.767 50.1509 13.9148C49.7788 14.0597 49.354 14.1321 48.8768 14.1321ZM58.0036 9.05256L56.8487 9.2571C56.8004 9.10937 56.7237 8.96875 56.6186 8.83523C56.5163 8.7017 56.3771 8.59233 56.201 8.5071C56.0249 8.42187 55.8047 8.37926 55.5405 8.37926C55.1797 8.37926 54.8786 8.46023 54.6371 8.62216C54.3956 8.78125 54.2749 8.98722 54.2749 9.24006C54.2749 9.45881 54.3558 9.63494 54.5178 9.76847C54.6797 9.90199 54.9411 10.0114 55.3018 10.0966L56.3416 10.3352C56.9439 10.4744 57.3928 10.6889 57.6882 10.9787C57.9837 11.2685 58.1314 11.6449 58.1314 12.108C58.1314 12.5 58.0178 12.8494 57.7905 13.1562C57.5661 13.4602 57.2521 13.6989 56.8487 13.8722C56.4482 14.0455 55.9837 14.1321 55.4553 14.1321C54.7223 14.1321 54.1243 13.9759 53.6612 13.6634C53.1982 13.348 52.9141 12.9006 52.8089 12.321L54.0405 12.1335C54.1172 12.4545 54.2749 12.6974 54.5135 12.8622C54.7521 13.0241 55.0632 13.1051 55.4467 13.1051C55.8643 13.1051 56.1982 13.0185 56.4482 12.8452C56.6982 12.669 56.8232 12.4545 56.8232 12.2017C56.8232 11.9972 56.7464 11.8253 56.593 11.6861C56.4425 11.5469 56.2109 11.4418 55.8984 11.3707L54.7905 11.1278C54.1797 10.9886 53.728 10.767 53.4354 10.4631C53.1456 10.1591 53.0007 9.77415 53.0007 9.30824C53.0007 8.92187 53.1087 8.58381 53.3246 8.29403C53.5405 8.00426 53.8388 7.77841 54.2195 7.61648C54.6001 7.4517 55.0362 7.36932 55.5277 7.36932C56.2351 7.36932 56.7919 7.52273 57.1982 7.82955C57.6044 8.13352 57.8729 8.54119 58.0036 9.05256Z" fill="#B457E0"/>
</svg>
